%TF.GenerationSoftware,KiCad,Pcbnew,10.0.3*%
%TF.CreationDate,2026-06-14T15:58:53-05:00*%
%TF.ProjectId,Lathe PCB,4c617468-6520-4504-9342-2e6b69636164,rev?*%
%TF.SameCoordinates,Original*%
%TF.FileFunction,Paste,Top*%
%TF.FilePolarity,Positive*%
%FSLAX46Y46*%
G04 Gerber Fmt 4.6, Leading zero omitted, Abs format (unit mm)*
G04 Created by KiCad (PCBNEW 10.0.3) date 2026-06-14 15:58:53*
%MOMM*%
%LPD*%
G01*
G04 APERTURE LIST*
G04 Aperture macros list*
%AMRoundRect*
0 Rectangle with rounded corners*
0 $1 Rounding radius*
0 $2 $3 $4 $5 $6 $7 $8 $9 X,Y pos of 4 corners*
0 Add a 4 corners polygon primitive as box body*
4,1,4,$2,$3,$4,$5,$6,$7,$8,$9,$2,$3,0*
0 Add four circle primitives for the rounded corners*
1,1,$1+$1,$2,$3*
1,1,$1+$1,$4,$5*
1,1,$1+$1,$6,$7*
1,1,$1+$1,$8,$9*
0 Add four rect primitives between the rounded corners*
20,1,$1+$1,$2,$3,$4,$5,0*
20,1,$1+$1,$4,$5,$6,$7,0*
20,1,$1+$1,$6,$7,$8,$9,0*
20,1,$1+$1,$8,$9,$2,$3,0*%
G04 Aperture macros list end*
%ADD10R,1.700000X0.400000*%
%ADD11R,1.728000X1.485000*%
%ADD12R,0.450000X1.000000*%
%ADD13R,2.500000X1.800000*%
%ADD14R,2.470000X0.980000*%
%ADD15R,2.470000X3.600000*%
%ADD16RoundRect,0.225000X-0.225000X-0.375000X0.225000X-0.375000X0.225000X0.375000X-0.225000X0.375000X0*%
%ADD17R,1.485000X1.728000*%
%ADD18RoundRect,0.250000X-1.000000X-0.650000X1.000000X-0.650000X1.000000X0.650000X-1.000000X0.650000X0*%
%ADD19R,1.230000X1.860000*%
%ADD20R,0.800000X0.900000*%
%ADD21RoundRect,0.250000X0.350000X0.450000X-0.350000X0.450000X-0.350000X-0.450000X0.350000X-0.450000X0*%
%ADD22R,3.500000X5.100000*%
%ADD23O,0.595000X2.360000*%
%ADD24RoundRect,0.250000X0.650000X-1.000000X0.650000X1.000000X-0.650000X1.000000X-0.650000X-1.000000X0*%
%ADD25RoundRect,0.250000X-0.350000X-0.450000X0.350000X-0.450000X0.350000X0.450000X-0.350000X0.450000X0*%
%ADD26RoundRect,0.250000X-0.650000X1.000000X-0.650000X-1.000000X0.650000X-1.000000X0.650000X1.000000X0*%
G04 APERTURE END LIST*
D10*
%TO.C,U3*%
X89250000Y-49250000D03*
X89250000Y-48600000D03*
X89250000Y-47950000D03*
X89250000Y-47300000D03*
X89250000Y-46650000D03*
X89250000Y-46000000D03*
X89250000Y-45350000D03*
X83650000Y-45350000D03*
X83650000Y-46000000D03*
X83650000Y-46650000D03*
X83650000Y-47300000D03*
X83650000Y-47950000D03*
X83650000Y-48600000D03*
X83650000Y-49250000D03*
%TD*%
D11*
%TO.C,C10*%
X86500000Y-27820000D03*
X86500000Y-31000000D03*
%TD*%
D12*
%TO.C,Q2*%
X108340000Y-47000000D03*
X109000000Y-47000000D03*
X109650000Y-47000000D03*
X110300000Y-47000000D03*
X108340000Y-44000000D03*
X109000000Y-44000000D03*
D13*
X109320000Y-45050000D03*
D12*
X109650000Y-44000000D03*
X110300000Y-44000000D03*
%TD*%
D14*
%TO.C,U2*%
X88330000Y-77800000D03*
X88330000Y-75500000D03*
X88330000Y-73200000D03*
D15*
X82670000Y-75500000D03*
%TD*%
D12*
%TO.C,Q8*%
X100020000Y-64450000D03*
X100680000Y-64450000D03*
X101330000Y-64450000D03*
X101980000Y-64450000D03*
X100020000Y-61450000D03*
X100680000Y-61450000D03*
D13*
X101000000Y-62500000D03*
D12*
X101330000Y-61450000D03*
X101980000Y-61450000D03*
%TD*%
%TO.C,Q1*%
X99690000Y-47000000D03*
X100350000Y-47000000D03*
X101000000Y-47000000D03*
X101650000Y-47000000D03*
X99690000Y-44000000D03*
X100350000Y-44000000D03*
D13*
X100670000Y-45050000D03*
D12*
X101000000Y-44000000D03*
X101650000Y-44000000D03*
%TD*%
D16*
%TO.C,D2*%
X98000000Y-98000000D03*
X101300000Y-98000000D03*
%TD*%
D17*
%TO.C,C7*%
X116915000Y-74515000D03*
X120095000Y-74515000D03*
%TD*%
D18*
%TO.C,D7*%
X120500000Y-45000000D03*
X124500000Y-45000000D03*
%TD*%
D17*
%TO.C,C3*%
X51320000Y-66000000D03*
X54500000Y-66000000D03*
%TD*%
D19*
%TO.C,SW3*%
X66320000Y-109500000D03*
X70680000Y-109500000D03*
%TD*%
D12*
%TO.C,Q7*%
X108520000Y-56450000D03*
X109180000Y-56450000D03*
X109830000Y-56450000D03*
X110480000Y-56450000D03*
X108520000Y-53450000D03*
X109180000Y-53450000D03*
D13*
X109500000Y-54500000D03*
D12*
X109830000Y-53450000D03*
X110480000Y-53450000D03*
%TD*%
D19*
%TO.C,SW2*%
X80640000Y-109500000D03*
X85000000Y-109500000D03*
%TD*%
D20*
%TO.C,C11*%
X100000000Y-90500000D03*
X98600000Y-90500000D03*
%TD*%
D16*
%TO.C,D1*%
X109500000Y-98000000D03*
X112800000Y-98000000D03*
%TD*%
D21*
%TO.C,R1*%
X115000000Y-83500000D03*
X113000000Y-83500000D03*
%TD*%
D22*
%TO.C,R13*%
X151990000Y-67770000D03*
X156110000Y-67770000D03*
%TD*%
D23*
%TO.C,U1*%
X147780000Y-89730000D03*
X149050000Y-89730000D03*
X150330000Y-89730000D03*
X151600000Y-89730000D03*
X152870000Y-89730000D03*
X154130000Y-89730000D03*
X155400000Y-89730000D03*
X156670000Y-89730000D03*
X157950000Y-89730000D03*
X159220000Y-89730000D03*
X159220000Y-80270000D03*
X157950000Y-80270000D03*
X156670000Y-80270000D03*
X155400000Y-80270000D03*
X154130000Y-80270000D03*
X152870000Y-80270000D03*
X151600000Y-80270000D03*
X150330000Y-80270000D03*
X149050000Y-80270000D03*
X147780000Y-80270000D03*
%TD*%
D12*
%TO.C,Q3*%
X108520000Y-63950000D03*
X109180000Y-63950000D03*
X109830000Y-63950000D03*
X110480000Y-63950000D03*
X108520000Y-60950000D03*
X109180000Y-60950000D03*
D13*
X109500000Y-62000000D03*
D12*
X109830000Y-60950000D03*
X110480000Y-60950000D03*
%TD*%
%TO.C,Q5*%
X109000000Y-73000000D03*
X109660000Y-73000000D03*
X110310000Y-73000000D03*
X110960000Y-73000000D03*
X109000000Y-70000000D03*
X109660000Y-70000000D03*
D13*
X109980000Y-71050000D03*
D12*
X110310000Y-70000000D03*
X110960000Y-70000000D03*
%TD*%
D18*
%TO.C,D8*%
X120500000Y-54000000D03*
X124500000Y-54000000D03*
%TD*%
D11*
%TO.C,C9*%
X106000000Y-31000000D03*
X106000000Y-27820000D03*
%TD*%
D18*
%TO.C,D9*%
X133000000Y-45000000D03*
X137000000Y-45000000D03*
%TD*%
D20*
%TO.C,C1*%
X99000000Y-84500000D03*
X100400000Y-84500000D03*
%TD*%
D12*
%TO.C,Q4*%
X99840000Y-73000000D03*
X100500000Y-73000000D03*
X101150000Y-73000000D03*
X101800000Y-73000000D03*
X99840000Y-70000000D03*
X100500000Y-70000000D03*
D13*
X100820000Y-71050000D03*
D12*
X101150000Y-70000000D03*
X101800000Y-70000000D03*
%TD*%
D18*
%TO.C,D10*%
X133000000Y-54000000D03*
X137000000Y-54000000D03*
%TD*%
D22*
%TO.C,R12*%
X156000000Y-49000000D03*
X151880000Y-49000000D03*
%TD*%
D24*
%TO.C,D4*%
X69500000Y-79000000D03*
X69500000Y-75000000D03*
%TD*%
D17*
%TO.C,C4*%
X51410000Y-72840000D03*
X54590000Y-72840000D03*
%TD*%
D20*
%TO.C,C2*%
X101000000Y-79000000D03*
X99600000Y-79000000D03*
%TD*%
D17*
%TO.C,C5*%
X54590000Y-79000000D03*
X51410000Y-79000000D03*
%TD*%
D11*
%TO.C,C8*%
X96500000Y-31000000D03*
X96500000Y-27820000D03*
%TD*%
D22*
%TO.C,R11*%
X155620000Y-57500000D03*
X151500000Y-57500000D03*
%TD*%
D25*
%TO.C,R2*%
X113000000Y-89500000D03*
X115000000Y-89500000D03*
%TD*%
D24*
%TO.C,D3*%
X69500000Y-70500000D03*
X69500000Y-66500000D03*
%TD*%
%TO.C,D6*%
X69500000Y-96500000D03*
X69500000Y-92500000D03*
%TD*%
D26*
%TO.C,D5*%
X69500000Y-84000000D03*
X69500000Y-88000000D03*
%TD*%
D17*
%TO.C,C6*%
X54590000Y-85000000D03*
X51410000Y-85000000D03*
%TD*%
D22*
%TO.C,R10*%
X151930000Y-37770000D03*
X156050000Y-37770000D03*
%TD*%
D12*
%TO.C,Q6*%
X100020000Y-56450000D03*
X100680000Y-56450000D03*
X101330000Y-56450000D03*
X101980000Y-56450000D03*
X100020000Y-53450000D03*
X100680000Y-53450000D03*
D13*
X101000000Y-54500000D03*
D12*
X101330000Y-53450000D03*
X101980000Y-53450000D03*
%TD*%
M02*
