%TF.GenerationSoftware,KiCad,Pcbnew,10.0.3*%
%TF.CreationDate,2026-06-14T15:58:53-05:00*%
%TF.ProjectId,Lathe PCB,4c617468-6520-4504-9342-2e6b69636164,rev?*%
%TF.SameCoordinates,Original*%
%TF.FileFunction,Legend,Bot*%
%TF.FilePolarity,Positive*%
%FSLAX46Y46*%
G04 Gerber Fmt 4.6, Leading zero omitted, Abs format (unit mm)*
G04 Created by KiCad (PCBNEW 10.0.3) date 2026-06-14 15:58:53*
%MOMM*%
%LPD*%
G01*
G04 APERTURE LIST*
%ADD10C,0.500000*%
%ADD11C,0.150000*%
%ADD12C,0.120000*%
%ADD13C,0.000000*%
G04 APERTURE END LIST*
D10*
G36*
X58490000Y-27038555D02*
G01*
X55426095Y-27038555D01*
X55426095Y-27912944D01*
X56668436Y-27912944D01*
X56668436Y-29284063D01*
X55426095Y-29284063D01*
X55426095Y-30158452D01*
X58490000Y-30158452D01*
X58490000Y-29284063D01*
X57142695Y-29284063D01*
X57142695Y-27912944D01*
X58490000Y-27912944D01*
X58490000Y-27038555D01*
G37*
G36*
X57348408Y-31675505D02*
G01*
X56861510Y-31675505D01*
X56861510Y-33913991D01*
X57348408Y-33913991D01*
X57348408Y-31675505D01*
G37*
G36*
X58490000Y-37074799D02*
G01*
X58477245Y-37406638D01*
X58440918Y-37695882D01*
X58383021Y-37948883D01*
X58300341Y-38180339D01*
X58199305Y-38370038D01*
X58078756Y-38522548D01*
X57942556Y-38633609D01*
X57789816Y-38701887D01*
X57616953Y-38725575D01*
X57430040Y-38693439D01*
X57262313Y-38599485D01*
X57114585Y-38448057D01*
X56997981Y-38249912D01*
X56915739Y-38011108D01*
X56874150Y-37739139D01*
X56865724Y-37739139D01*
X56824321Y-37981186D01*
X56752261Y-38187681D01*
X56647554Y-38365012D01*
X56520583Y-38498118D01*
X56377913Y-38578685D01*
X56215244Y-38606507D01*
X56039833Y-38577788D01*
X55888520Y-38495339D01*
X55756391Y-38360564D01*
X55640235Y-38169312D01*
X55550047Y-37943173D01*
X55483338Y-37677709D01*
X55441086Y-37365614D01*
X55426095Y-36997862D01*
X55426095Y-36983818D01*
X55862618Y-36983818D01*
X55876205Y-37209857D01*
X55913932Y-37389448D01*
X55973810Y-37532754D01*
X56054847Y-37641833D01*
X56153159Y-37708543D01*
X56273862Y-37732117D01*
X56397228Y-37708008D01*
X56496898Y-37640000D01*
X56578311Y-37529091D01*
X56638446Y-37383854D01*
X56676055Y-37205158D01*
X56686961Y-37025645D01*
X57113386Y-37025645D01*
X57129351Y-37273125D01*
X57173980Y-37471152D01*
X57245643Y-37630757D01*
X57340940Y-37751482D01*
X57454583Y-37825240D01*
X57591857Y-37851186D01*
X57728789Y-37824938D01*
X57839387Y-37750995D01*
X57929645Y-37630757D01*
X57996412Y-37472229D01*
X58038385Y-37274213D01*
X58053476Y-37025645D01*
X58053476Y-36284063D01*
X57113386Y-36284063D01*
X57113386Y-37025645D01*
X56686961Y-37025645D01*
X56689502Y-36983818D01*
X56689502Y-36284063D01*
X55862618Y-36284063D01*
X55862618Y-36983818D01*
X55426095Y-36983818D01*
X55426095Y-35430739D01*
X58490000Y-35430739D01*
X58490000Y-37074799D01*
G37*
G36*
X58490000Y-40494199D02*
G01*
X57272937Y-40494199D01*
X57272937Y-41130757D01*
X58490000Y-42026212D01*
X58490000Y-42984560D01*
X57197283Y-41984385D01*
X57117946Y-42250117D01*
X57010347Y-42474643D01*
X56872135Y-42662770D01*
X56713587Y-42800971D01*
X56536602Y-42885434D01*
X56336877Y-42914645D01*
X56155823Y-42890021D01*
X55996967Y-42819274D01*
X55856390Y-42704596D01*
X55731265Y-42547427D01*
X55626048Y-42354109D01*
X55539485Y-42120551D01*
X55478072Y-41864718D01*
X55439599Y-41572027D01*
X55426095Y-41235781D01*
X55887897Y-41235781D01*
X55903004Y-41469714D01*
X55945406Y-41658747D01*
X56013743Y-41812805D01*
X56104915Y-41929021D01*
X56216301Y-42000739D01*
X56353729Y-42026212D01*
X56491091Y-42000932D01*
X56600947Y-41930174D01*
X56689502Y-41816163D01*
X56755117Y-41664741D01*
X56796315Y-41474926D01*
X56811135Y-41235781D01*
X56811135Y-40494199D01*
X55887897Y-40494199D01*
X55887897Y-41235781D01*
X55426095Y-41235781D01*
X55426095Y-39626831D01*
X58490000Y-39626831D01*
X58490000Y-40494199D01*
G37*
G36*
X58490000Y-43913904D02*
G01*
X58015741Y-43913904D01*
X58015741Y-44942166D01*
X55900354Y-44942166D01*
X55900354Y-43913904D01*
X55426095Y-43913904D01*
X55426095Y-46851840D01*
X55900354Y-46851840D01*
X55900354Y-45823578D01*
X58015741Y-45823578D01*
X58015741Y-46851840D01*
X58490000Y-46851840D01*
X58490000Y-43913904D01*
G37*
G36*
X58490000Y-49522941D02*
G01*
X58475810Y-49863397D01*
X58435289Y-50160748D01*
X58370382Y-50421755D01*
X58279091Y-50658653D01*
X58167695Y-50854350D01*
X58034609Y-51012822D01*
X57885829Y-51127475D01*
X57718506Y-51198259D01*
X57528843Y-51222871D01*
X56383039Y-51222871D01*
X56193394Y-51198194D01*
X56026850Y-51127356D01*
X55879471Y-51012822D01*
X55747647Y-50854562D01*
X55636888Y-50658892D01*
X55545713Y-50421755D01*
X55480806Y-50160748D01*
X55440285Y-49863397D01*
X55426095Y-49522941D01*
X55896140Y-49522941D01*
X55911964Y-49765967D01*
X55956475Y-49963176D01*
X56028398Y-50124694D01*
X56124134Y-50246752D01*
X56240379Y-50321869D01*
X56383039Y-50348482D01*
X57528843Y-50348482D01*
X57674335Y-50321698D01*
X57791870Y-50246421D01*
X57887697Y-50124694D01*
X57959620Y-49963176D01*
X58004130Y-49765967D01*
X58019954Y-49522941D01*
X58019954Y-48879361D01*
X55896140Y-48879361D01*
X55896140Y-49522941D01*
X55426095Y-49522941D01*
X55426095Y-48004972D01*
X58490000Y-48004972D01*
X58490000Y-49522941D01*
G37*
G36*
X58531948Y-53802991D02*
G01*
X58518712Y-53476073D01*
X58480993Y-53191470D01*
X58420757Y-52942646D01*
X58335521Y-52716639D01*
X58231109Y-52530297D01*
X58106050Y-52379666D01*
X57965743Y-52271042D01*
X57806790Y-52203766D01*
X57625380Y-52180303D01*
X56290715Y-52180303D01*
X56109306Y-52203771D01*
X55950418Y-52271052D01*
X55810228Y-52379666D01*
X55685054Y-52530316D01*
X55580585Y-52716661D01*
X55495338Y-52942646D01*
X55435101Y-53191470D01*
X55397383Y-53476073D01*
X55384146Y-53802991D01*
X55397319Y-54125155D01*
X55434977Y-54407555D01*
X55495338Y-54656315D01*
X55580519Y-54882709D01*
X55684992Y-55070321D01*
X55810228Y-55222958D01*
X55950550Y-55333649D01*
X56109427Y-55402119D01*
X56290715Y-55425985D01*
X56290715Y-54544574D01*
X56152639Y-54520870D01*
X56045173Y-54455518D01*
X55961353Y-54352233D01*
X55899284Y-54212503D01*
X55860011Y-54033300D01*
X55845765Y-53802991D01*
X55859724Y-53572529D01*
X55898265Y-53392062D01*
X55959155Y-53250392D01*
X56041909Y-53145287D01*
X56148630Y-53078827D01*
X56286502Y-53054692D01*
X57625380Y-53054692D01*
X57763457Y-53078667D01*
X57871800Y-53145031D01*
X57957123Y-53250392D01*
X58020348Y-53392590D01*
X58060162Y-53573070D01*
X58074542Y-53802991D01*
X58060105Y-54033049D01*
X58020255Y-54212261D01*
X57957123Y-54352233D01*
X57871959Y-54455647D01*
X57763619Y-54520950D01*
X57625380Y-54544574D01*
X57285394Y-54544574D01*
X57285394Y-53677206D01*
X56832201Y-53677206D01*
X56832201Y-55425985D01*
X57625380Y-55425985D01*
X57806669Y-55402125D01*
X57965611Y-55333659D01*
X58106050Y-55222958D01*
X58231171Y-55070341D01*
X58335586Y-54882730D01*
X58420757Y-54656315D01*
X58481118Y-54407555D01*
X58518776Y-54125155D01*
X58531948Y-53802991D01*
G37*
G36*
X58490000Y-56488136D02*
G01*
X55426095Y-56488136D01*
X55426095Y-59552163D01*
X55887897Y-59552163D01*
X55887897Y-57348482D01*
X56685289Y-57348482D01*
X56685289Y-59307309D01*
X57130239Y-59307309D01*
X57130239Y-57348482D01*
X58028381Y-57348482D01*
X58028381Y-59552163D01*
X58490000Y-59552163D01*
X58490000Y-56488136D01*
G37*
G36*
X58490000Y-64642489D02*
G01*
X55426095Y-64642489D01*
X55426095Y-65782798D01*
X56744091Y-66356463D01*
X55426095Y-66936845D01*
X55426095Y-68084176D01*
X58490000Y-68084176D01*
X58490000Y-67265657D01*
X57201496Y-67265657D01*
X56653782Y-67290081D01*
X56104052Y-67349616D01*
X55619169Y-67426552D01*
X57159548Y-66706036D01*
X57159548Y-65985519D01*
X55656905Y-65293091D01*
X56347501Y-65408496D01*
X56754638Y-65447460D01*
X57201496Y-65461008D01*
X58490000Y-65461008D01*
X58490000Y-64642489D01*
G37*
G36*
X57803939Y-68994374D02*
G01*
X57989647Y-69078204D01*
X58146851Y-69211626D01*
X58280256Y-69394844D01*
X58387582Y-69621526D01*
X58465693Y-69885946D01*
X58514656Y-70195412D01*
X58531948Y-70559577D01*
X58514659Y-70923576D01*
X58465700Y-71232944D01*
X58387589Y-71497321D01*
X58280256Y-71724005D01*
X58146840Y-71907366D01*
X57989630Y-72040880D01*
X57803927Y-72124763D01*
X57583431Y-72154483D01*
X56328450Y-72154483D01*
X56110349Y-72124875D01*
X55926062Y-72041172D01*
X55769471Y-71907684D01*
X55636022Y-71724005D01*
X55528603Y-71497301D01*
X55450437Y-71232917D01*
X55401447Y-70923557D01*
X55384146Y-70559577D01*
X55845765Y-70559577D01*
X55860157Y-70789487D01*
X55899517Y-70964714D01*
X55961353Y-71098133D01*
X56044678Y-71195427D01*
X56152128Y-71257486D01*
X56290715Y-71280094D01*
X57625380Y-71280094D01*
X57764092Y-71257480D01*
X57871596Y-71195414D01*
X57954924Y-71098133D01*
X58016654Y-70964739D01*
X58055957Y-70789513D01*
X58070329Y-70559577D01*
X58055953Y-70329433D01*
X58016646Y-70154117D01*
X57954924Y-70020717D01*
X57871611Y-69923611D01*
X57764107Y-69861642D01*
X57625380Y-69839061D01*
X56290715Y-69839061D01*
X56152112Y-69861636D01*
X56044664Y-69923598D01*
X55961353Y-70020717D01*
X55899526Y-70154142D01*
X55860161Y-70329459D01*
X55845765Y-70559577D01*
X55384146Y-70559577D01*
X55401449Y-70195432D01*
X55450444Y-69885973D01*
X55528611Y-69621545D01*
X55636022Y-69394844D01*
X55769428Y-69211613D01*
X55926607Y-69078192D01*
X56112255Y-68994370D01*
X56332663Y-68964672D01*
X57583431Y-68964672D01*
X57803939Y-68994374D01*
G37*
G36*
X58490000Y-74314811D02*
G01*
X55900354Y-74314811D01*
X55900354Y-72978803D01*
X55426095Y-72978803D01*
X55426095Y-76532231D01*
X55900354Y-76532231D01*
X55900354Y-75196222D01*
X58490000Y-75196222D01*
X58490000Y-74314811D01*
G37*
G36*
X57803939Y-77386559D02*
G01*
X57989647Y-77470389D01*
X58146851Y-77603810D01*
X58280256Y-77787028D01*
X58387582Y-78013710D01*
X58465693Y-78278130D01*
X58514656Y-78587597D01*
X58531948Y-78951762D01*
X58514659Y-79315760D01*
X58465700Y-79625128D01*
X58387589Y-79889505D01*
X58280256Y-80116189D01*
X58146840Y-80299550D01*
X57989630Y-80433064D01*
X57803927Y-80516947D01*
X57583431Y-80546667D01*
X56328450Y-80546667D01*
X56110349Y-80517059D01*
X55926062Y-80433357D01*
X55769471Y-80299869D01*
X55636022Y-80116189D01*
X55528603Y-79889486D01*
X55450437Y-79625102D01*
X55401447Y-79315741D01*
X55384146Y-78951762D01*
X55845765Y-78951762D01*
X55860157Y-79181671D01*
X55899517Y-79356898D01*
X55961353Y-79490317D01*
X56044678Y-79587611D01*
X56152128Y-79649671D01*
X56290715Y-79672278D01*
X57625380Y-79672278D01*
X57764092Y-79649664D01*
X57871596Y-79587598D01*
X57954924Y-79490317D01*
X58016654Y-79356923D01*
X58055957Y-79181698D01*
X58070329Y-78951762D01*
X58055953Y-78721617D01*
X58016646Y-78546301D01*
X57954924Y-78412901D01*
X57871611Y-78315795D01*
X57764107Y-78253827D01*
X57625380Y-78231245D01*
X56290715Y-78231245D01*
X56152112Y-78253820D01*
X56044664Y-78315782D01*
X55961353Y-78412901D01*
X55899526Y-78546326D01*
X55860161Y-78721644D01*
X55845765Y-78951762D01*
X55384146Y-78951762D01*
X55401449Y-78587616D01*
X55450444Y-78278157D01*
X55528611Y-78013730D01*
X55636022Y-77787028D01*
X55769428Y-77603797D01*
X55926607Y-77470376D01*
X56112255Y-77386554D01*
X56332663Y-77356856D01*
X57583431Y-77356856D01*
X57803939Y-77386559D01*
G37*
G36*
X58490000Y-82455120D02*
G01*
X57272937Y-82455120D01*
X57272937Y-83091678D01*
X58490000Y-83987133D01*
X58490000Y-84945481D01*
X57197283Y-83945307D01*
X57117946Y-84211038D01*
X57010347Y-84435564D01*
X56872135Y-84623691D01*
X56713587Y-84761892D01*
X56536602Y-84846355D01*
X56336877Y-84875566D01*
X56155823Y-84850942D01*
X55996967Y-84780195D01*
X55856390Y-84665518D01*
X55731265Y-84508348D01*
X55626048Y-84315030D01*
X55539485Y-84081472D01*
X55478072Y-83825639D01*
X55439599Y-83532948D01*
X55426095Y-83196702D01*
X55887897Y-83196702D01*
X55903004Y-83430635D01*
X55945406Y-83619668D01*
X56013743Y-83773726D01*
X56104915Y-83889942D01*
X56216301Y-83961660D01*
X56353729Y-83987133D01*
X56491091Y-83961853D01*
X56600947Y-83891095D01*
X56689502Y-83777084D01*
X56755117Y-83625662D01*
X56796315Y-83435847D01*
X56811135Y-83196702D01*
X56811135Y-82455120D01*
X55887897Y-82455120D01*
X55887897Y-83196702D01*
X55426095Y-83196702D01*
X55426095Y-81587752D01*
X58490000Y-81587752D01*
X58490000Y-82455120D01*
G37*
G36*
X58490000Y-91483862D02*
G01*
X58475810Y-91824318D01*
X58435289Y-92121669D01*
X58370382Y-92382676D01*
X58279091Y-92619574D01*
X58167695Y-92815271D01*
X58034609Y-92973743D01*
X57885829Y-93088396D01*
X57718506Y-93159180D01*
X57528843Y-93183792D01*
X56383039Y-93183792D01*
X56193394Y-93159115D01*
X56026850Y-93088277D01*
X55879471Y-92973743D01*
X55747647Y-92815483D01*
X55636888Y-92619813D01*
X55545713Y-92382676D01*
X55480806Y-92121669D01*
X55440285Y-91824318D01*
X55426095Y-91483862D01*
X55896140Y-91483862D01*
X55911964Y-91726889D01*
X55956475Y-91924097D01*
X56028398Y-92085615D01*
X56124134Y-92207673D01*
X56240379Y-92282790D01*
X56383039Y-92309403D01*
X57528843Y-92309403D01*
X57674335Y-92282619D01*
X57791870Y-92207342D01*
X57887697Y-92085615D01*
X57959620Y-91924097D01*
X58004130Y-91726889D01*
X58019954Y-91483862D01*
X58019954Y-90840282D01*
X55896140Y-90840282D01*
X55896140Y-91483862D01*
X55426095Y-91483862D01*
X55426095Y-89965893D01*
X58490000Y-89965893D01*
X58490000Y-91483862D01*
G37*
G36*
X58490000Y-95043396D02*
G01*
X57272937Y-95043396D01*
X57272937Y-95679954D01*
X58490000Y-96575409D01*
X58490000Y-97533757D01*
X57197283Y-96533583D01*
X57117946Y-96799315D01*
X57010347Y-97023841D01*
X56872135Y-97211967D01*
X56713587Y-97350168D01*
X56536602Y-97434632D01*
X56336877Y-97463843D01*
X56155823Y-97439218D01*
X55996967Y-97368472D01*
X55856390Y-97253794D01*
X55731265Y-97096625D01*
X55626048Y-96903307D01*
X55539485Y-96669748D01*
X55478072Y-96413916D01*
X55439599Y-96121224D01*
X55426095Y-95784979D01*
X55887897Y-95784979D01*
X55903004Y-96018911D01*
X55945406Y-96207945D01*
X56013743Y-96362002D01*
X56104915Y-96478218D01*
X56216301Y-96549936D01*
X56353729Y-96575409D01*
X56491091Y-96550130D01*
X56600947Y-96479371D01*
X56689502Y-96365361D01*
X56755117Y-96213939D01*
X56796315Y-96024123D01*
X56811135Y-95784979D01*
X56811135Y-95043396D01*
X55887897Y-95043396D01*
X55887897Y-95784979D01*
X55426095Y-95784979D01*
X55426095Y-94176029D01*
X58490000Y-94176029D01*
X58490000Y-95043396D01*
G37*
G36*
X58490000Y-98463101D02*
G01*
X58015741Y-98463101D01*
X58015741Y-99491364D01*
X55900354Y-99491364D01*
X55900354Y-98463101D01*
X55426095Y-98463101D01*
X55426095Y-101401038D01*
X55900354Y-101401038D01*
X55900354Y-100372775D01*
X58015741Y-100372775D01*
X58015741Y-101401038D01*
X58490000Y-101401038D01*
X58490000Y-98463101D01*
G37*
G36*
X58490000Y-103561671D02*
G01*
X55426095Y-102274511D01*
X55426095Y-103176988D01*
X57423879Y-103953375D01*
X57740785Y-104068780D01*
X58011528Y-104149075D01*
X57740785Y-104229675D01*
X57419666Y-104345080D01*
X55426095Y-105093379D01*
X55426095Y-105981812D01*
X58490000Y-104694652D01*
X58490000Y-103561671D01*
G37*
G36*
X58490000Y-106841242D02*
G01*
X55426095Y-106841242D01*
X55426095Y-109905268D01*
X55887897Y-109905268D01*
X55887897Y-107701587D01*
X56685289Y-107701587D01*
X56685289Y-109660415D01*
X57130239Y-109660415D01*
X57130239Y-107701587D01*
X58028381Y-107701587D01*
X58028381Y-109905268D01*
X58490000Y-109905268D01*
X58490000Y-106841242D01*
G37*
G36*
X58490000Y-111827765D02*
G01*
X57272937Y-111827765D01*
X57272937Y-112464323D01*
X58490000Y-113359778D01*
X58490000Y-114318126D01*
X57197283Y-113317951D01*
X57117946Y-113583683D01*
X57010347Y-113808209D01*
X56872135Y-113996336D01*
X56713587Y-114134537D01*
X56536602Y-114219000D01*
X56336877Y-114248211D01*
X56155823Y-114223587D01*
X55996967Y-114152840D01*
X55856390Y-114038162D01*
X55731265Y-113880993D01*
X55626048Y-113687675D01*
X55539485Y-113454117D01*
X55478072Y-113198284D01*
X55439599Y-112905593D01*
X55426095Y-112569347D01*
X55887897Y-112569347D01*
X55903004Y-112803280D01*
X55945406Y-112992313D01*
X56013743Y-113146371D01*
X56104915Y-113262587D01*
X56216301Y-113334305D01*
X56353729Y-113359778D01*
X56491091Y-113334498D01*
X56600947Y-113263740D01*
X56689502Y-113149729D01*
X56755117Y-112998307D01*
X56796315Y-112808491D01*
X56811135Y-112569347D01*
X56811135Y-111827765D01*
X55887897Y-111827765D01*
X55887897Y-112569347D01*
X55426095Y-112569347D01*
X55426095Y-110960397D01*
X58490000Y-110960397D01*
X58490000Y-111827765D01*
G37*
D11*
X85086666Y-93057819D02*
X85419999Y-92581628D01*
X85658094Y-93057819D02*
X85658094Y-92057819D01*
X85658094Y-92057819D02*
X85277142Y-92057819D01*
X85277142Y-92057819D02*
X85181904Y-92105438D01*
X85181904Y-92105438D02*
X85134285Y-92153057D01*
X85134285Y-92153057D02*
X85086666Y-92248295D01*
X85086666Y-92248295D02*
X85086666Y-92391152D01*
X85086666Y-92391152D02*
X85134285Y-92486390D01*
X85134285Y-92486390D02*
X85181904Y-92534009D01*
X85181904Y-92534009D02*
X85277142Y-92581628D01*
X85277142Y-92581628D02*
X85658094Y-92581628D01*
X84181904Y-92057819D02*
X84658094Y-92057819D01*
X84658094Y-92057819D02*
X84705713Y-92534009D01*
X84705713Y-92534009D02*
X84658094Y-92486390D01*
X84658094Y-92486390D02*
X84562856Y-92438771D01*
X84562856Y-92438771D02*
X84324761Y-92438771D01*
X84324761Y-92438771D02*
X84229523Y-92486390D01*
X84229523Y-92486390D02*
X84181904Y-92534009D01*
X84181904Y-92534009D02*
X84134285Y-92629247D01*
X84134285Y-92629247D02*
X84134285Y-92867342D01*
X84134285Y-92867342D02*
X84181904Y-92962580D01*
X84181904Y-92962580D02*
X84229523Y-93010200D01*
X84229523Y-93010200D02*
X84324761Y-93057819D01*
X84324761Y-93057819D02*
X84562856Y-93057819D01*
X84562856Y-93057819D02*
X84658094Y-93010200D01*
X84658094Y-93010200D02*
X84705713Y-92962580D01*
X84666666Y-82057819D02*
X84999999Y-81581628D01*
X85238094Y-82057819D02*
X85238094Y-81057819D01*
X85238094Y-81057819D02*
X84857142Y-81057819D01*
X84857142Y-81057819D02*
X84761904Y-81105438D01*
X84761904Y-81105438D02*
X84714285Y-81153057D01*
X84714285Y-81153057D02*
X84666666Y-81248295D01*
X84666666Y-81248295D02*
X84666666Y-81391152D01*
X84666666Y-81391152D02*
X84714285Y-81486390D01*
X84714285Y-81486390D02*
X84761904Y-81534009D01*
X84761904Y-81534009D02*
X84857142Y-81581628D01*
X84857142Y-81581628D02*
X85238094Y-81581628D01*
X84333332Y-81057819D02*
X83714285Y-81057819D01*
X83714285Y-81057819D02*
X84047618Y-81438771D01*
X84047618Y-81438771D02*
X83904761Y-81438771D01*
X83904761Y-81438771D02*
X83809523Y-81486390D01*
X83809523Y-81486390D02*
X83761904Y-81534009D01*
X83761904Y-81534009D02*
X83714285Y-81629247D01*
X83714285Y-81629247D02*
X83714285Y-81867342D01*
X83714285Y-81867342D02*
X83761904Y-81962580D01*
X83761904Y-81962580D02*
X83809523Y-82010200D01*
X83809523Y-82010200D02*
X83904761Y-82057819D01*
X83904761Y-82057819D02*
X84190475Y-82057819D01*
X84190475Y-82057819D02*
X84285713Y-82010200D01*
X84285713Y-82010200D02*
X84333332Y-81962580D01*
X84746666Y-97557819D02*
X85079999Y-97081628D01*
X85318094Y-97557819D02*
X85318094Y-96557819D01*
X85318094Y-96557819D02*
X84937142Y-96557819D01*
X84937142Y-96557819D02*
X84841904Y-96605438D01*
X84841904Y-96605438D02*
X84794285Y-96653057D01*
X84794285Y-96653057D02*
X84746666Y-96748295D01*
X84746666Y-96748295D02*
X84746666Y-96891152D01*
X84746666Y-96891152D02*
X84794285Y-96986390D01*
X84794285Y-96986390D02*
X84841904Y-97034009D01*
X84841904Y-97034009D02*
X84937142Y-97081628D01*
X84937142Y-97081628D02*
X85318094Y-97081628D01*
X83889523Y-96557819D02*
X84079999Y-96557819D01*
X84079999Y-96557819D02*
X84175237Y-96605438D01*
X84175237Y-96605438D02*
X84222856Y-96653057D01*
X84222856Y-96653057D02*
X84318094Y-96795914D01*
X84318094Y-96795914D02*
X84365713Y-96986390D01*
X84365713Y-96986390D02*
X84365713Y-97367342D01*
X84365713Y-97367342D02*
X84318094Y-97462580D01*
X84318094Y-97462580D02*
X84270475Y-97510200D01*
X84270475Y-97510200D02*
X84175237Y-97557819D01*
X84175237Y-97557819D02*
X83984761Y-97557819D01*
X83984761Y-97557819D02*
X83889523Y-97510200D01*
X83889523Y-97510200D02*
X83841904Y-97462580D01*
X83841904Y-97462580D02*
X83794285Y-97367342D01*
X83794285Y-97367342D02*
X83794285Y-97129247D01*
X83794285Y-97129247D02*
X83841904Y-97034009D01*
X83841904Y-97034009D02*
X83889523Y-96986390D01*
X83889523Y-96986390D02*
X83984761Y-96938771D01*
X83984761Y-96938771D02*
X84175237Y-96938771D01*
X84175237Y-96938771D02*
X84270475Y-96986390D01*
X84270475Y-96986390D02*
X84318094Y-97034009D01*
X84318094Y-97034009D02*
X84365713Y-97129247D01*
X84666666Y-87557819D02*
X84999999Y-87081628D01*
X85238094Y-87557819D02*
X85238094Y-86557819D01*
X85238094Y-86557819D02*
X84857142Y-86557819D01*
X84857142Y-86557819D02*
X84761904Y-86605438D01*
X84761904Y-86605438D02*
X84714285Y-86653057D01*
X84714285Y-86653057D02*
X84666666Y-86748295D01*
X84666666Y-86748295D02*
X84666666Y-86891152D01*
X84666666Y-86891152D02*
X84714285Y-86986390D01*
X84714285Y-86986390D02*
X84761904Y-87034009D01*
X84761904Y-87034009D02*
X84857142Y-87081628D01*
X84857142Y-87081628D02*
X85238094Y-87081628D01*
X83809523Y-86891152D02*
X83809523Y-87557819D01*
X84047618Y-86510200D02*
X84285713Y-87224485D01*
X84285713Y-87224485D02*
X83666666Y-87224485D01*
%TO.C,R5*%
D12*
X83396000Y-94000000D02*
X80856000Y-94000000D01*
X83396000Y-94000000D02*
X83650000Y-93492000D01*
X83650000Y-93492000D02*
X84158000Y-94508000D01*
X84158000Y-94508000D02*
X84666000Y-93492000D01*
X84666000Y-93492000D02*
X85174000Y-94508000D01*
X85174000Y-94508000D02*
X85682000Y-93492000D01*
X85682000Y-93492000D02*
X86190000Y-94508000D01*
X86190000Y-94508000D02*
X86444000Y-94000000D01*
X86444000Y-94000000D02*
X88984000Y-94000000D01*
%TO.C,R3*%
X82976000Y-83000000D02*
X80436000Y-83000000D01*
X82976000Y-83000000D02*
X83230000Y-82492000D01*
X83230000Y-82492000D02*
X83738000Y-83508000D01*
X83738000Y-83508000D02*
X84246000Y-82492000D01*
X84246000Y-82492000D02*
X84754000Y-83508000D01*
X84754000Y-83508000D02*
X85262000Y-82492000D01*
X85262000Y-82492000D02*
X85770000Y-83508000D01*
X85770000Y-83508000D02*
X86024000Y-83000000D01*
X86024000Y-83000000D02*
X88564000Y-83000000D01*
%TO.C,R6*%
X83056000Y-98500000D02*
X80516000Y-98500000D01*
X83056000Y-98500000D02*
X83310000Y-97992000D01*
X83310000Y-97992000D02*
X83818000Y-99008000D01*
X83818000Y-99008000D02*
X84326000Y-97992000D01*
X84326000Y-97992000D02*
X84834000Y-99008000D01*
X84834000Y-99008000D02*
X85342000Y-97992000D01*
X85342000Y-97992000D02*
X85850000Y-99008000D01*
X85850000Y-99008000D02*
X86104000Y-98500000D01*
X86104000Y-98500000D02*
X88644000Y-98500000D01*
%TO.C,R4*%
X82976000Y-88500000D02*
X80436000Y-88500000D01*
X82976000Y-88500000D02*
X83230000Y-87992000D01*
X83230000Y-87992000D02*
X83738000Y-89008000D01*
X83738000Y-89008000D02*
X84246000Y-87992000D01*
X84246000Y-87992000D02*
X84754000Y-89008000D01*
X84754000Y-89008000D02*
X85262000Y-87992000D01*
X85262000Y-87992000D02*
X85770000Y-89008000D01*
X85770000Y-89008000D02*
X86024000Y-88500000D01*
X86024000Y-88500000D02*
X88564000Y-88500000D01*
D13*
%TO.C,G\u002A\u002A\u002A*%
G36*
X85938723Y-50354837D02*
G01*
X86583117Y-50468950D01*
X87136520Y-50727474D01*
X87594509Y-51120174D01*
X87952660Y-51636812D01*
X88206551Y-52267154D01*
X88351758Y-53000963D01*
X88383859Y-53828004D01*
X88298429Y-54738040D01*
X88091047Y-55720836D01*
X88050901Y-55867532D01*
X87760718Y-56731783D01*
X87414014Y-57477760D01*
X87020109Y-58090573D01*
X86588322Y-58555332D01*
X86127975Y-58857146D01*
X86104440Y-58867711D01*
X85565655Y-59014365D01*
X85022806Y-58989600D01*
X84492632Y-58799304D01*
X83991876Y-58449369D01*
X83537277Y-57945683D01*
X83261606Y-57529576D01*
X82983749Y-56964773D01*
X82773651Y-56320186D01*
X82612720Y-55547587D01*
X82590842Y-55407598D01*
X82523878Y-54508798D01*
X82583696Y-53658452D01*
X82760984Y-52871886D01*
X83046433Y-52164425D01*
X83430732Y-51551393D01*
X83904572Y-51048117D01*
X84458641Y-50669922D01*
X85083630Y-50432133D01*
X85770228Y-50350075D01*
X85938723Y-50354837D01*
G37*
G36*
X112506303Y-50259342D02*
G01*
X113115044Y-50468218D01*
X113418365Y-50643888D01*
X113956703Y-51094752D01*
X114461019Y-51697053D01*
X114919671Y-52433496D01*
X115321018Y-53286785D01*
X115653419Y-54239624D01*
X115709446Y-54443981D01*
X115839020Y-55093089D01*
X115906055Y-55748984D01*
X115909585Y-56368445D01*
X115848647Y-56908253D01*
X115722276Y-57325187D01*
X115512070Y-57688860D01*
X115154381Y-58094537D01*
X114747692Y-58367273D01*
X114565633Y-58427790D01*
X114144716Y-58475765D01*
X113654228Y-58448939D01*
X113151562Y-58352250D01*
X112694110Y-58190634D01*
X112604134Y-58147678D01*
X111914509Y-57730450D01*
X111273302Y-57193336D01*
X110697318Y-56562967D01*
X110203358Y-55865974D01*
X109808226Y-55128986D01*
X109528726Y-54378635D01*
X109381661Y-53641551D01*
X109383833Y-52944365D01*
X109409593Y-52768080D01*
X109598713Y-52069516D01*
X109902851Y-51464039D01*
X110303649Y-50963831D01*
X110782751Y-50581074D01*
X111321799Y-50327953D01*
X111902435Y-50216648D01*
X112506303Y-50259342D01*
G37*
G36*
X99994463Y-53028417D02*
G01*
X100627457Y-53097528D01*
X101153326Y-53201706D01*
X101827367Y-53412349D01*
X102632764Y-53763963D01*
X103302959Y-54184253D01*
X103825183Y-54664821D01*
X104186668Y-55197264D01*
X104209158Y-55243323D01*
X104379756Y-55735419D01*
X104392195Y-56192137D01*
X104248203Y-56654412D01*
X104180918Y-56784547D01*
X103827395Y-57227058D01*
X103320089Y-57596535D01*
X102669059Y-57886861D01*
X101884363Y-58091918D01*
X101785975Y-58109364D01*
X101090056Y-58183489D01*
X100311371Y-58197563D01*
X99513706Y-58154663D01*
X98760849Y-58057863D01*
X98116588Y-57910241D01*
X97512203Y-57709765D01*
X96683524Y-57361915D01*
X96004096Y-56977532D01*
X95478840Y-56561735D01*
X95112677Y-56119645D01*
X94910529Y-55656380D01*
X94877316Y-55177061D01*
X95017961Y-54686807D01*
X95339015Y-54202970D01*
X95824081Y-53782731D01*
X96466917Y-53432645D01*
X97262834Y-53155910D01*
X97436089Y-53114936D01*
X97975158Y-53037632D01*
X98616071Y-52997854D01*
X99306587Y-52994988D01*
X99994463Y-53028417D01*
G37*
G36*
X99015646Y-74093579D02*
G01*
X99276802Y-74186308D01*
X99625923Y-74350697D01*
X99669875Y-74372801D01*
X100280710Y-74759144D01*
X100846334Y-75256494D01*
X101341711Y-75831765D01*
X101741804Y-76451871D01*
X102021576Y-77083726D01*
X102155992Y-77694243D01*
X102160589Y-78104365D01*
X102087684Y-78538672D01*
X101945260Y-78898653D01*
X101749491Y-79163472D01*
X101516551Y-79312291D01*
X101262614Y-79324272D01*
X101003854Y-79178578D01*
X100897252Y-79040529D01*
X100854606Y-78762828D01*
X100974453Y-78432228D01*
X101004386Y-78375486D01*
X101098332Y-77992959D01*
X101039967Y-77539545D01*
X100828287Y-77005461D01*
X100575508Y-76575985D01*
X100193834Y-76095469D01*
X99761293Y-75688487D01*
X99307300Y-75378140D01*
X98861268Y-75187528D01*
X98452613Y-75139751D01*
X98268471Y-75167065D01*
X98092664Y-75264890D01*
X97951256Y-75480820D01*
X97892833Y-75610426D01*
X97844390Y-75789821D01*
X97821388Y-76024225D01*
X97820354Y-76354715D01*
X97837813Y-76822369D01*
X97855933Y-77172611D01*
X97883959Y-77619047D01*
X97913182Y-77999836D01*
X97939593Y-78258430D01*
X97954816Y-78474881D01*
X97898141Y-78725335D01*
X97726296Y-78849238D01*
X97425190Y-78863155D01*
X97396685Y-78860188D01*
X97242372Y-78824796D01*
X97122568Y-78735489D01*
X97002617Y-78555293D01*
X96847861Y-78247235D01*
X96653849Y-77886730D01*
X96355205Y-77503403D01*
X96000907Y-77247618D01*
X95557314Y-77089186D01*
X95074134Y-77028422D01*
X94586865Y-77078405D01*
X94157562Y-77232197D01*
X93815129Y-77474636D01*
X93588472Y-77790562D01*
X93506496Y-78164815D01*
X93515964Y-78314194D01*
X93654557Y-78794684D01*
X93952364Y-79319984D01*
X94401581Y-79881143D01*
X94994407Y-80469209D01*
X95723040Y-81075234D01*
X96579678Y-81690266D01*
X96976230Y-81959103D01*
X97269592Y-82168194D01*
X97457685Y-82322434D01*
X97563532Y-82443570D01*
X97610156Y-82553352D01*
X97620580Y-82673527D01*
X97589449Y-82904318D01*
X97513256Y-83065045D01*
X97468650Y-83102602D01*
X97265896Y-83166437D01*
X96983528Y-83122233D01*
X96612780Y-82965706D01*
X96144889Y-82692573D01*
X95571090Y-82298550D01*
X94882619Y-81779354D01*
X94267924Y-81266217D01*
X93584198Y-80584131D01*
X93055102Y-79907836D01*
X92684484Y-79244581D01*
X92476188Y-78601615D01*
X92434062Y-77986189D01*
X92561953Y-77405552D01*
X92730507Y-77091202D01*
X93070979Y-76700263D01*
X93504532Y-76368297D01*
X93983146Y-76138126D01*
X94053166Y-76115611D01*
X94595865Y-76007107D01*
X95184110Y-75982746D01*
X95749422Y-76041211D01*
X96223323Y-76181186D01*
X96395373Y-76256966D01*
X96594295Y-76342074D01*
X96680352Y-76375186D01*
X96693757Y-76329613D01*
X96721094Y-76149505D01*
X96752369Y-75879304D01*
X96769855Y-75743415D01*
X96919323Y-75181105D01*
X97172014Y-74699150D01*
X97506317Y-74341626D01*
X97740036Y-74195692D01*
X98016099Y-74108470D01*
X98397232Y-74064966D01*
X98485010Y-74059796D01*
X98774399Y-74056684D01*
X99015646Y-74093579D01*
G37*
G36*
X121476900Y-59045048D02*
G01*
X121430343Y-59553122D01*
X121358359Y-59924975D01*
X121232114Y-60291534D01*
X120841003Y-61032087D01*
X120292696Y-61690878D01*
X119589094Y-62266723D01*
X118732097Y-62758443D01*
X117723605Y-63164856D01*
X116565517Y-63484780D01*
X115259734Y-63717034D01*
X114979574Y-63747762D01*
X114493867Y-63784114D01*
X113917296Y-63814042D01*
X113299633Y-63835074D01*
X112690650Y-63844736D01*
X112552612Y-63845179D01*
X111029980Y-63807320D01*
X109638192Y-63691244D01*
X108385324Y-63498168D01*
X107279450Y-63229308D01*
X106328643Y-62885881D01*
X105957143Y-62732369D01*
X105374059Y-62529034D01*
X104755556Y-62362468D01*
X104072998Y-62227324D01*
X103297752Y-62118254D01*
X102401183Y-62029910D01*
X101354657Y-61956945D01*
X101090107Y-61942856D01*
X100292538Y-61916919D01*
X99455563Y-61911188D01*
X98603422Y-61924125D01*
X97760356Y-61954190D01*
X96950605Y-61999844D01*
X96198411Y-62059548D01*
X95528014Y-62131762D01*
X94963655Y-62214947D01*
X94529575Y-62307565D01*
X94250015Y-62408075D01*
X94039340Y-62487028D01*
X93611695Y-62570450D01*
X93019677Y-62630300D01*
X92270696Y-62666094D01*
X91372165Y-62677349D01*
X90331496Y-62663582D01*
X89597442Y-62639947D01*
X87931480Y-62533569D01*
X86405685Y-62354599D01*
X85002004Y-62099376D01*
X83702384Y-61764236D01*
X82488772Y-61345515D01*
X81343116Y-60839550D01*
X81295557Y-60816069D01*
X80841598Y-60583419D01*
X80491311Y-60377659D01*
X80188933Y-60158824D01*
X79878700Y-59886950D01*
X79504850Y-59522071D01*
X79242949Y-59255161D01*
X78932940Y-58913326D01*
X78694619Y-58601887D01*
X78489527Y-58268746D01*
X78279203Y-57861807D01*
X78041532Y-57331754D01*
X77757315Y-56456402D01*
X77618558Y-55577242D01*
X77614865Y-54643919D01*
X77618739Y-54597767D01*
X78140691Y-54597767D01*
X78151692Y-55614337D01*
X78337154Y-56592579D01*
X78697140Y-57532194D01*
X78895441Y-57908418D01*
X79396999Y-58651616D01*
X80009598Y-59310257D01*
X80743558Y-59890839D01*
X81609202Y-60399859D01*
X82616852Y-60843816D01*
X83776828Y-61229206D01*
X85099454Y-61562528D01*
X85494756Y-61647482D01*
X86214325Y-61788646D01*
X86890336Y-61898835D01*
X87559812Y-61981511D01*
X88259776Y-62040138D01*
X89027252Y-62078179D01*
X89899264Y-62099099D01*
X90912834Y-62106360D01*
X91369687Y-62106800D01*
X92027637Y-62105698D01*
X92545561Y-62100950D01*
X92948018Y-62091046D01*
X93259566Y-62074479D01*
X93504764Y-62049742D01*
X93708169Y-62015326D01*
X93894339Y-61969724D01*
X94087834Y-61911429D01*
X94453009Y-61803593D01*
X94823516Y-61714148D01*
X95224032Y-61640751D01*
X95684324Y-61579447D01*
X96234156Y-61526281D01*
X96903292Y-61477296D01*
X97721499Y-61428538D01*
X97936870Y-61417363D01*
X99105415Y-61381508D01*
X100271106Y-61385111D01*
X101409041Y-61426054D01*
X102494316Y-61502217D01*
X103502031Y-61611483D01*
X104407282Y-61751733D01*
X105185168Y-61920848D01*
X105810786Y-62116710D01*
X105986207Y-62183991D01*
X106708726Y-62451976D01*
X107322375Y-62660533D01*
X107870951Y-62822851D01*
X108398248Y-62952120D01*
X108948063Y-63061529D01*
X109456589Y-63134254D01*
X110125849Y-63197412D01*
X110891534Y-63245666D01*
X111714476Y-63278279D01*
X112555508Y-63294519D01*
X113375463Y-63293648D01*
X114135174Y-63274933D01*
X114795473Y-63237639D01*
X115317194Y-63181030D01*
X115397420Y-63168689D01*
X116614453Y-62927364D01*
X117689849Y-62607255D01*
X118619346Y-62210905D01*
X119398681Y-61740857D01*
X120023590Y-61199655D01*
X120489812Y-60589842D01*
X120793084Y-59913961D01*
X120832630Y-59771809D01*
X120930864Y-59192019D01*
X120974913Y-58492578D01*
X120967132Y-57711982D01*
X120909877Y-56888728D01*
X120805501Y-56061313D01*
X120656361Y-55268232D01*
X120464811Y-54547982D01*
X120433810Y-54451404D01*
X119914574Y-53144448D01*
X119227393Y-51885409D01*
X118377857Y-50680085D01*
X117371558Y-49534271D01*
X116214089Y-48453760D01*
X114911042Y-47444349D01*
X113468007Y-46511833D01*
X111890578Y-45662007D01*
X111540886Y-45492721D01*
X110686435Y-45105500D01*
X109887468Y-44790116D01*
X109085441Y-44526603D01*
X108221810Y-44294997D01*
X107238031Y-44075331D01*
X106485137Y-43922432D01*
X104197092Y-43499861D01*
X102028360Y-43167362D01*
X99953770Y-42922282D01*
X97948148Y-42761968D01*
X95986321Y-42683770D01*
X94043116Y-42685034D01*
X93534060Y-42698214D01*
X92013934Y-42775048D01*
X90643180Y-42908156D01*
X89404871Y-43101932D01*
X88282079Y-43360769D01*
X87257879Y-43689064D01*
X86315342Y-44091209D01*
X85437542Y-44571601D01*
X84607552Y-45134632D01*
X84414247Y-45284827D01*
X83952613Y-45675029D01*
X83422226Y-46155480D01*
X82852476Y-46696853D01*
X82272752Y-47269824D01*
X81712446Y-47845065D01*
X81200947Y-48393251D01*
X80767646Y-48885056D01*
X80441932Y-49291153D01*
X79840041Y-50154138D01*
X79153826Y-51321053D01*
X78641821Y-52450828D01*
X78304088Y-53543165D01*
X78140691Y-54597767D01*
X77618739Y-54597767D01*
X77640939Y-54333289D01*
X77845066Y-53211588D01*
X78221061Y-52064693D01*
X78765957Y-50899227D01*
X79476785Y-49721815D01*
X80350577Y-48539080D01*
X80833406Y-47971518D01*
X81436280Y-47321683D01*
X82096643Y-46658197D01*
X82786424Y-46006723D01*
X83477553Y-45392923D01*
X84141960Y-44842457D01*
X84751575Y-44380987D01*
X85278327Y-44034176D01*
X85656530Y-43823790D01*
X86728298Y-43338379D01*
X87952737Y-42925219D01*
X89320789Y-42587098D01*
X90823397Y-42326804D01*
X91267924Y-42279090D01*
X91877644Y-42237769D01*
X92605837Y-42205281D01*
X93421756Y-42181791D01*
X94294655Y-42167463D01*
X95193788Y-42162461D01*
X96088409Y-42166950D01*
X96947772Y-42181094D01*
X97741130Y-42205057D01*
X98437738Y-42239003D01*
X99006847Y-42283096D01*
X99285198Y-42311295D01*
X100572361Y-42454716D01*
X101865352Y-42618928D01*
X103143696Y-42800270D01*
X104386916Y-42995082D01*
X105574535Y-43199703D01*
X106686077Y-43410470D01*
X107701066Y-43623725D01*
X108599024Y-43835804D01*
X109359476Y-44043048D01*
X109961945Y-44241794D01*
X111448753Y-44863874D01*
X112945296Y-45615810D01*
X114384942Y-46462487D01*
X115707940Y-47371362D01*
X115890660Y-47511269D01*
X116475322Y-47996897D01*
X117094803Y-48559421D01*
X117712967Y-49162755D01*
X118293677Y-49770811D01*
X118800796Y-50347505D01*
X119198189Y-50856750D01*
X119298873Y-51000081D01*
X120036883Y-52204861D01*
X120634777Y-53475743D01*
X121080172Y-54782724D01*
X121360682Y-56095799D01*
X121408363Y-56467297D01*
X121463761Y-57111876D01*
X121493634Y-57783586D01*
X121498005Y-58441589D01*
X121496222Y-58492578D01*
X121476900Y-59045048D01*
G37*
G36*
X86842629Y-32170795D02*
G01*
X86743876Y-32276866D01*
X86683425Y-32408188D01*
X86668018Y-32451031D01*
X86517976Y-32809899D01*
X86297589Y-33276204D01*
X86027377Y-33811121D01*
X85727863Y-34375824D01*
X85419567Y-34931489D01*
X85123012Y-35439288D01*
X84858719Y-35860398D01*
X84268994Y-36698191D01*
X83256085Y-37948014D01*
X82126045Y-39148346D01*
X80901434Y-40281377D01*
X79604816Y-41329297D01*
X78258752Y-42274297D01*
X76885805Y-43098568D01*
X75508536Y-43784300D01*
X74149508Y-44313684D01*
X73899447Y-44393811D01*
X73470738Y-44519845D01*
X73089470Y-44618995D01*
X72816229Y-44674850D01*
X72635571Y-44704396D01*
X72446446Y-44769853D01*
X72324926Y-44901783D01*
X72206119Y-45150809D01*
X72111844Y-45378709D01*
X71854994Y-46066040D01*
X71580923Y-46881604D01*
X71299351Y-47790981D01*
X71020000Y-48759750D01*
X70752590Y-49753490D01*
X70506842Y-50737781D01*
X70292477Y-51678200D01*
X70119217Y-52540328D01*
X70020801Y-53101689D01*
X69808979Y-54580994D01*
X69670256Y-56021506D01*
X69604726Y-57402525D01*
X69612483Y-58703350D01*
X69693623Y-59903278D01*
X69848238Y-60981608D01*
X70076425Y-61917640D01*
X70105925Y-62008295D01*
X70250737Y-62397392D01*
X70459121Y-62905742D01*
X70717770Y-63504938D01*
X71013381Y-64166571D01*
X71332649Y-64862234D01*
X71662268Y-65563517D01*
X71988933Y-66242013D01*
X72299341Y-66869312D01*
X72580186Y-67417008D01*
X72818164Y-67856692D01*
X72999969Y-68159955D01*
X73139810Y-68405737D01*
X73193903Y-68637721D01*
X73177338Y-68943494D01*
X73130675Y-69232051D01*
X72999041Y-69794410D01*
X72800423Y-70488758D01*
X72541623Y-71297662D01*
X72229445Y-72203685D01*
X71870693Y-73189391D01*
X71472170Y-74237347D01*
X71040680Y-75330115D01*
X70583026Y-76450261D01*
X70106012Y-77580350D01*
X69616442Y-78702945D01*
X69121120Y-79800612D01*
X68626848Y-80855915D01*
X68140431Y-81851418D01*
X67951150Y-82227570D01*
X67508011Y-83086264D01*
X67115437Y-83808653D01*
X66760317Y-84415469D01*
X66429537Y-84927443D01*
X66109986Y-85365304D01*
X65788550Y-85749785D01*
X65452116Y-86101616D01*
X65308527Y-86245782D01*
X64957377Y-86628351D01*
X64692396Y-86963800D01*
X64540140Y-87219574D01*
X64497016Y-87325543D01*
X64308812Y-87885259D01*
X64124793Y-88582773D01*
X63953053Y-89384783D01*
X63801686Y-90257983D01*
X63776258Y-90434740D01*
X63701522Y-91115066D01*
X63640718Y-91917945D01*
X63594947Y-92800567D01*
X63565314Y-93720120D01*
X63552921Y-94633793D01*
X63558873Y-95498777D01*
X63584271Y-96272259D01*
X63630220Y-96911428D01*
X63800877Y-98226867D01*
X64047878Y-99492690D01*
X64360642Y-100625595D01*
X64736259Y-101619031D01*
X65171818Y-102466445D01*
X65664409Y-103161285D01*
X66211121Y-103697001D01*
X66809043Y-104067039D01*
X66984967Y-104141187D01*
X67211273Y-104214355D01*
X67481671Y-104273836D01*
X67829791Y-104325460D01*
X68289263Y-104375057D01*
X68893718Y-104428459D01*
X70290502Y-104506593D01*
X71714193Y-104502551D01*
X73025510Y-104408282D01*
X73203975Y-104390976D01*
X73453305Y-104395209D01*
X73661843Y-104465740D01*
X73917804Y-104623885D01*
X74080133Y-104730388D01*
X74261490Y-104838848D01*
X74341535Y-104871368D01*
X74337883Y-104822377D01*
X74299572Y-104631379D01*
X74230061Y-104331456D01*
X74137719Y-103960023D01*
X73947606Y-103158772D01*
X73642899Y-101529802D01*
X73432926Y-99868769D01*
X73324033Y-98232369D01*
X73323527Y-97695767D01*
X73871408Y-97695767D01*
X73885955Y-98534532D01*
X73918889Y-99333416D01*
X73970235Y-100053841D01*
X74040019Y-100657228D01*
X74265768Y-101992825D01*
X74587217Y-103508992D01*
X74958511Y-104927857D01*
X74970071Y-104967773D01*
X75083003Y-105374059D01*
X75168627Y-105711781D01*
X75218771Y-105946725D01*
X75225265Y-106044680D01*
X75221541Y-106116303D01*
X75290751Y-106309406D01*
X75423021Y-106578415D01*
X75595548Y-106883534D01*
X75785525Y-107184968D01*
X75970148Y-107442920D01*
X76126613Y-107617593D01*
X76388393Y-107838831D01*
X76962940Y-108274865D01*
X77610233Y-108717287D01*
X78270410Y-109126068D01*
X78883609Y-109461179D01*
X78970409Y-109504245D01*
X80011170Y-109961374D01*
X81021154Y-110286719D01*
X82058609Y-110499326D01*
X82336945Y-110538066D01*
X83316166Y-110606596D01*
X84225817Y-110548547D01*
X85116430Y-110357945D01*
X86038538Y-110028816D01*
X86366464Y-109878858D01*
X87232111Y-109366689D01*
X88082613Y-108700720D01*
X88900697Y-107898988D01*
X89669095Y-106979532D01*
X90370535Y-105960388D01*
X90987749Y-104859596D01*
X91367805Y-104014625D01*
X91774618Y-102763716D01*
X92003727Y-101498754D01*
X92055263Y-100222315D01*
X91929357Y-98936977D01*
X91626140Y-97645316D01*
X91145744Y-96349910D01*
X90488299Y-95053335D01*
X90114131Y-94442368D01*
X89222701Y-93214255D01*
X88187811Y-92042495D01*
X87031453Y-90943997D01*
X85775623Y-89935667D01*
X84442315Y-89034414D01*
X83053521Y-88257146D01*
X81631237Y-87620772D01*
X80197456Y-87142198D01*
X80054071Y-87103786D01*
X79686183Y-87014282D01*
X79380061Y-86952041D01*
X79190614Y-86928707D01*
X79000069Y-86975599D01*
X78691544Y-87125878D01*
X78311538Y-87358705D01*
X77890687Y-87652567D01*
X77459624Y-87985948D01*
X77048988Y-88337335D01*
X76689412Y-88685213D01*
X76365165Y-89042208D01*
X75709853Y-89902467D01*
X75159407Y-90847951D01*
X74704524Y-91898752D01*
X74335898Y-93074960D01*
X74044225Y-94396665D01*
X73996561Y-94713476D01*
X73937823Y-95325975D01*
X73897368Y-96052910D01*
X73875221Y-96855700D01*
X73871408Y-97695767D01*
X73323527Y-97695767D01*
X73322568Y-96677299D01*
X73361535Y-95926108D01*
X73513758Y-94478043D01*
X73766904Y-93154068D01*
X74126126Y-91934951D01*
X74596578Y-90801461D01*
X75183416Y-89734366D01*
X75472348Y-89310467D01*
X75970558Y-88690909D01*
X76535260Y-88086047D01*
X77119472Y-87545198D01*
X77676214Y-87117675D01*
X78257552Y-86726969D01*
X77273749Y-86775531D01*
X76864515Y-86804612D01*
X76091611Y-86924162D01*
X75440637Y-87127888D01*
X74883351Y-87423445D01*
X74779619Y-87486125D01*
X74448930Y-87615039D01*
X74152110Y-87633899D01*
X73937763Y-87536876D01*
X73936128Y-87535207D01*
X73861428Y-87373063D01*
X73830440Y-87136788D01*
X73837642Y-87018396D01*
X73894116Y-86866065D01*
X74036556Y-86717262D01*
X74299982Y-86526466D01*
X74323690Y-86510724D01*
X74658174Y-86322050D01*
X75073351Y-86129490D01*
X75485017Y-85972412D01*
X75667372Y-85913905D01*
X75953587Y-85835031D01*
X76233379Y-85782675D01*
X76553060Y-85751228D01*
X76958943Y-85735078D01*
X77497341Y-85728614D01*
X77900911Y-85729425D01*
X78553980Y-85751527D01*
X79134215Y-85808171D01*
X79700833Y-85908554D01*
X80313052Y-86061875D01*
X81030087Y-86277331D01*
X81139912Y-86312514D01*
X82644359Y-86884532D01*
X84115471Y-87607240D01*
X85535346Y-88465383D01*
X86886080Y-89443704D01*
X88149768Y-90526949D01*
X89308508Y-91699863D01*
X90344394Y-92947189D01*
X91239523Y-94253673D01*
X91975992Y-95604059D01*
X92387877Y-96568490D01*
X92808331Y-97918076D01*
X93051795Y-99271773D01*
X93099087Y-100222315D01*
X93119098Y-100624527D01*
X93011071Y-101971283D01*
X92728542Y-103306988D01*
X92272341Y-104626588D01*
X91643296Y-105925028D01*
X90842239Y-107197255D01*
X89869997Y-108438214D01*
X89637615Y-108698504D01*
X88698990Y-109596389D01*
X87682549Y-110342716D01*
X86598705Y-110931578D01*
X85457873Y-111357069D01*
X84270468Y-111613286D01*
X83908205Y-111647302D01*
X83298185Y-111658789D01*
X82626863Y-111631061D01*
X81959494Y-111567314D01*
X81361334Y-111470746D01*
X80634032Y-111287522D01*
X79795492Y-111005643D01*
X78947554Y-110654826D01*
X78113134Y-110248912D01*
X77315146Y-109801740D01*
X76576506Y-109327152D01*
X75920129Y-108838989D01*
X75368930Y-108351090D01*
X74945824Y-107877298D01*
X74673727Y-107431452D01*
X74543989Y-107163781D01*
X74322498Y-106768243D01*
X74072345Y-106369872D01*
X73820782Y-106009331D01*
X73595058Y-105727280D01*
X73422427Y-105564383D01*
X73326175Y-105511238D01*
X73166632Y-105472260D01*
X72938085Y-105477361D01*
X72587747Y-105523985D01*
X72168815Y-105576013D01*
X71694635Y-105606463D01*
X71149398Y-105613431D01*
X70506568Y-105596686D01*
X69739611Y-105555995D01*
X68821989Y-105491128D01*
X68713839Y-105482701D01*
X67977813Y-105416456D01*
X67385853Y-105340854D01*
X66907168Y-105246685D01*
X66510966Y-105124735D01*
X66166455Y-104965793D01*
X65842845Y-104760648D01*
X65509345Y-104500088D01*
X65020351Y-104035110D01*
X64398373Y-103242558D01*
X63862187Y-102297675D01*
X63412675Y-101203650D01*
X63050720Y-99963674D01*
X62777205Y-98580939D01*
X62593013Y-97058635D01*
X62499026Y-95399952D01*
X62496127Y-93608082D01*
X62545853Y-92338158D01*
X62657376Y-90915016D01*
X62823661Y-89627995D01*
X63043231Y-88486082D01*
X63314608Y-87498267D01*
X63636314Y-86673537D01*
X63689260Y-86561658D01*
X63881173Y-86191963D01*
X64060633Y-85930634D01*
X64265972Y-85729335D01*
X64535525Y-85539732D01*
X64785404Y-85322304D01*
X65095323Y-84954192D01*
X65453963Y-84452242D01*
X65851596Y-83832293D01*
X66278496Y-83110183D01*
X66724933Y-82301750D01*
X67181180Y-81422833D01*
X67637508Y-80489271D01*
X67698892Y-80359490D01*
X68229882Y-79210659D01*
X68761322Y-78016621D01*
X69284219Y-76800149D01*
X69789580Y-75584013D01*
X70268413Y-74390987D01*
X70711724Y-73243842D01*
X71110519Y-72165351D01*
X71455807Y-71178285D01*
X71738594Y-70305417D01*
X71949887Y-69569520D01*
X72150906Y-68800824D01*
X71925405Y-68443608D01*
X71894778Y-68394315D01*
X71676171Y-68011861D01*
X71409900Y-67505567D01*
X71108898Y-66903733D01*
X70786093Y-66234658D01*
X70454416Y-65526643D01*
X70126797Y-64807987D01*
X69816167Y-64106989D01*
X69535455Y-63451948D01*
X69297591Y-62871166D01*
X69115506Y-62392940D01*
X69002130Y-62045571D01*
X68929641Y-61764920D01*
X68762423Y-60930673D01*
X68646241Y-60005601D01*
X68578206Y-58962051D01*
X68555426Y-57772370D01*
X68555807Y-57601773D01*
X68646718Y-55489049D01*
X68897822Y-53328538D01*
X69310163Y-51114546D01*
X69884786Y-48841383D01*
X70622735Y-46503356D01*
X70687035Y-46315994D01*
X70868878Y-45770887D01*
X71025928Y-45277774D01*
X71149357Y-44865776D01*
X71230335Y-44564010D01*
X71260032Y-44401595D01*
X71258644Y-44375716D01*
X71210070Y-44166832D01*
X71102394Y-43843418D01*
X70949518Y-43444593D01*
X70765342Y-43009476D01*
X70460444Y-42296194D01*
X69927455Y-40889900D01*
X69505001Y-39535190D01*
X69196359Y-38246956D01*
X69004809Y-37040087D01*
X68949125Y-36171253D01*
X70005867Y-36171253D01*
X70097824Y-37150201D01*
X70292722Y-38232378D01*
X70585775Y-39398933D01*
X70972195Y-40631013D01*
X71447195Y-41909766D01*
X72005987Y-43216341D01*
X72119097Y-43465451D01*
X72286569Y-43814687D01*
X72430618Y-44032559D01*
X72588675Y-44137330D01*
X72798168Y-44147264D01*
X73096527Y-44080625D01*
X73521180Y-43955675D01*
X73562218Y-43943459D01*
X74951848Y-43445632D01*
X76351738Y-42788014D01*
X77741821Y-41986521D01*
X79102031Y-41057069D01*
X80412303Y-40015571D01*
X81652571Y-38877944D01*
X82802768Y-37660103D01*
X83842829Y-36377963D01*
X84752688Y-35047440D01*
X84965826Y-34689469D01*
X85211983Y-34246585D01*
X85456137Y-33781606D01*
X85683972Y-33324177D01*
X85881170Y-32903945D01*
X86033413Y-32550556D01*
X86126384Y-32293656D01*
X86145766Y-32162892D01*
X86097905Y-32116381D01*
X85892358Y-32015718D01*
X85548271Y-31888971D01*
X85088325Y-31742197D01*
X84535203Y-31581455D01*
X83911588Y-31412804D01*
X83240163Y-31242301D01*
X82543609Y-31076005D01*
X81844610Y-30919975D01*
X81165848Y-30780269D01*
X80530005Y-30662946D01*
X80171624Y-30604291D01*
X79780226Y-30550147D01*
X79391710Y-30510781D01*
X78969732Y-30483987D01*
X78477948Y-30467556D01*
X77880017Y-30459279D01*
X77139594Y-30456949D01*
X77100034Y-30456946D01*
X76416722Y-30457899D01*
X75880909Y-30462335D01*
X75462757Y-30472535D01*
X75132425Y-30490780D01*
X74860073Y-30519348D01*
X74615863Y-30560522D01*
X74369953Y-30616580D01*
X74092504Y-30689804D01*
X73887049Y-30748114D01*
X72902715Y-31106416D01*
X72069682Y-31557212D01*
X71383437Y-32105691D01*
X70839469Y-32757043D01*
X70433269Y-33516459D01*
X70160325Y-34389130D01*
X70016126Y-35380245D01*
X70005867Y-36171253D01*
X68949125Y-36171253D01*
X68933629Y-35929473D01*
X68986099Y-34930003D01*
X69146799Y-34040473D01*
X69467680Y-33063495D01*
X69926528Y-32200278D01*
X70523514Y-31450575D01*
X71258806Y-30814136D01*
X72132571Y-30290713D01*
X72559148Y-30091867D01*
X73325688Y-29800383D01*
X74126646Y-29585267D01*
X74996372Y-29439859D01*
X75969219Y-29357498D01*
X77079537Y-29331525D01*
X78017346Y-29354736D01*
X79564256Y-29479924D01*
X81177918Y-29706780D01*
X82815191Y-30027609D01*
X84432932Y-30434716D01*
X85987998Y-30920408D01*
X86474078Y-31088651D01*
X87872225Y-30614667D01*
X88566135Y-30389468D01*
X89524360Y-30102633D01*
X90539937Y-29820804D01*
X91556822Y-29558868D01*
X92518974Y-29331712D01*
X93370349Y-29154222D01*
X94530041Y-28955134D01*
X96534175Y-28705512D01*
X98548934Y-28568452D01*
X100537777Y-28544995D01*
X102464164Y-28636181D01*
X104291554Y-28843053D01*
X104839876Y-28932315D01*
X106255270Y-29224540D01*
X107652001Y-29598044D01*
X108998405Y-30041760D01*
X110262819Y-30544623D01*
X111413579Y-31095566D01*
X112419021Y-31683524D01*
X112721714Y-31878647D01*
X112925464Y-31992589D01*
X113069289Y-32034244D01*
X113198425Y-32016569D01*
X113358106Y-31952520D01*
X113691734Y-31807867D01*
X115094630Y-31222804D01*
X116383869Y-30727091D01*
X117587416Y-30311540D01*
X118733233Y-29966966D01*
X119849285Y-29684181D01*
X120963537Y-29453999D01*
X121065170Y-29436232D01*
X121715729Y-29355122D01*
X122473546Y-29304318D01*
X123291303Y-29283472D01*
X124121686Y-29292235D01*
X124917381Y-29330259D01*
X125631071Y-29397194D01*
X126215443Y-29492693D01*
X126263719Y-29503335D01*
X126959345Y-29680059D01*
X127731729Y-29912045D01*
X128517597Y-30177971D01*
X129253677Y-30456518D01*
X129876693Y-30726366D01*
X130124505Y-30856124D01*
X130575869Y-31184811D01*
X130930355Y-31600807D01*
X131200319Y-32125400D01*
X131398116Y-32779878D01*
X131536102Y-33585531D01*
X131564487Y-33862164D01*
X131584866Y-34653004D01*
X131587356Y-34749609D01*
X131526664Y-35752871D01*
X131386713Y-36842924D01*
X131171806Y-37990745D01*
X130886245Y-39167309D01*
X130534332Y-40343594D01*
X130303075Y-41014370D01*
X129935662Y-41949872D01*
X129568560Y-42727638D01*
X129204611Y-43342480D01*
X128846657Y-43789208D01*
X128497539Y-44062634D01*
X128395039Y-44123459D01*
X128253544Y-44249611D01*
X128160758Y-44424305D01*
X128107777Y-44680005D01*
X128085694Y-45049173D01*
X128085605Y-45564271D01*
X128089530Y-45723167D01*
X128174121Y-46662481D01*
X128360928Y-47707158D01*
X128643583Y-48826895D01*
X129015719Y-49991384D01*
X129335338Y-50932981D01*
X129963954Y-53055174D01*
X130449731Y-55128170D01*
X130791691Y-57143597D01*
X130988861Y-59093084D01*
X131040263Y-60968258D01*
X130944924Y-62760748D01*
X130701866Y-64462181D01*
X130613013Y-64886143D01*
X130425457Y-65620694D01*
X130205328Y-66328005D01*
X129963009Y-66983217D01*
X129708882Y-67561472D01*
X129453331Y-68037915D01*
X129206736Y-68387685D01*
X128979481Y-68585927D01*
X128732565Y-68738700D01*
X128333477Y-69072151D01*
X128001550Y-69454015D01*
X127787782Y-69831011D01*
X127717344Y-70046490D01*
X127638149Y-70522130D01*
X127643939Y-71064636D01*
X127737784Y-71683321D01*
X127922758Y-72387504D01*
X128201931Y-73186499D01*
X128578377Y-74089624D01*
X129055166Y-75106194D01*
X129635370Y-76245526D01*
X130322062Y-77516936D01*
X131145085Y-79076045D01*
X132098556Y-81116058D01*
X132896851Y-83136031D01*
X133547765Y-85158270D01*
X134059091Y-87205083D01*
X134438624Y-89298778D01*
X134456962Y-89431157D01*
X134517362Y-90031660D01*
X134562299Y-90753204D01*
X134591752Y-91558386D01*
X134605701Y-92409801D01*
X134604127Y-93270045D01*
X134587010Y-94101716D01*
X134554329Y-94867408D01*
X134506066Y-95529718D01*
X134442200Y-96051242D01*
X134415810Y-96207254D01*
X134266132Y-96959256D01*
X134082789Y-97713540D01*
X133878503Y-98425025D01*
X133665993Y-99048628D01*
X133457980Y-99539271D01*
X133456771Y-99541726D01*
X133347878Y-99755007D01*
X133242172Y-99927612D01*
X133114321Y-100082865D01*
X132938991Y-100244086D01*
X132690850Y-100434598D01*
X132344565Y-100677721D01*
X131874805Y-100996778D01*
X130330074Y-102008557D01*
X128559599Y-103094414D01*
X126777188Y-104112945D01*
X126464888Y-104278642D01*
X125001796Y-105054916D01*
X123252381Y-105911095D01*
X121547899Y-106672249D01*
X119907307Y-107329145D01*
X118349563Y-107872551D01*
X116893623Y-108293233D01*
X116823792Y-108310839D01*
X115786520Y-108532725D01*
X114743944Y-108686364D01*
X113729437Y-108770053D01*
X112776374Y-108782089D01*
X111918127Y-108720768D01*
X111188072Y-108584389D01*
X110473626Y-108350852D01*
X109604507Y-107920367D01*
X108859644Y-107361219D01*
X108238735Y-106673115D01*
X107741479Y-105855767D01*
X107367572Y-104908883D01*
X107350583Y-104853421D01*
X107120132Y-104019700D01*
X106894828Y-103061141D01*
X106685682Y-102027930D01*
X106503699Y-100970257D01*
X106474466Y-100764414D01*
X106406644Y-100083086D01*
X106361201Y-99291536D01*
X106337877Y-98430892D01*
X106336763Y-97753226D01*
X107379627Y-97753226D01*
X107415554Y-99055986D01*
X107519741Y-100355052D01*
X107691819Y-101605366D01*
X107740874Y-101880552D01*
X107880816Y-102570484D01*
X108044007Y-103272134D01*
X108220287Y-103947811D01*
X108399495Y-104559823D01*
X108571471Y-105070479D01*
X108726056Y-105442088D01*
X108807683Y-105599155D01*
X109274191Y-106269507D01*
X109871033Y-106819103D01*
X110593913Y-107244616D01*
X111438537Y-107542719D01*
X111478636Y-107552723D01*
X111970434Y-107639738D01*
X112572604Y-107698041D01*
X113224477Y-107724972D01*
X113865387Y-107717871D01*
X114434664Y-107674079D01*
X115524145Y-107497313D01*
X116850545Y-107186617D01*
X118279568Y-106760775D01*
X119797271Y-106224379D01*
X121389709Y-105582025D01*
X123042939Y-104838304D01*
X123116064Y-104803619D01*
X123498430Y-104616901D01*
X123809023Y-104456420D01*
X124017575Y-104338293D01*
X124093819Y-104278642D01*
X124072061Y-104188881D01*
X123993187Y-103952615D01*
X123867437Y-103604789D01*
X123706133Y-103175090D01*
X123520594Y-102693203D01*
X123322140Y-102188815D01*
X123122092Y-101691612D01*
X122931769Y-101231278D01*
X122776892Y-100867845D01*
X122002883Y-99178115D01*
X121165631Y-97541797D01*
X120275060Y-95972618D01*
X119341095Y-94484306D01*
X118373659Y-93090589D01*
X117382678Y-91805194D01*
X116378075Y-90641851D01*
X115369776Y-89614286D01*
X114367705Y-88736228D01*
X113381786Y-88021404D01*
X112820809Y-87659542D01*
X111593054Y-88196372D01*
X111211680Y-88364727D01*
X110776083Y-88567735D01*
X110449021Y-88743942D01*
X110196776Y-88917627D01*
X109985630Y-89113072D01*
X109781866Y-89354558D01*
X109551767Y-89666366D01*
X109213142Y-90182814D01*
X108711113Y-91130263D01*
X108271181Y-92194453D01*
X107907367Y-93339825D01*
X107633692Y-94530820D01*
X107514037Y-95316848D01*
X107412331Y-96491828D01*
X107379627Y-97753226D01*
X106336763Y-97753226D01*
X106336416Y-97542285D01*
X106356560Y-96666844D01*
X106398051Y-95845700D01*
X106460631Y-95119982D01*
X106544043Y-94530820D01*
X106805698Y-93337518D01*
X107172115Y-92099366D01*
X107612283Y-90960263D01*
X108117879Y-89939007D01*
X108680579Y-89054395D01*
X109292059Y-88325223D01*
X109337265Y-88279376D01*
X109548993Y-88075278D01*
X109751518Y-87909011D01*
X109979872Y-87759662D01*
X110269087Y-87606316D01*
X110654195Y-87428061D01*
X111170228Y-87203982D01*
X111571005Y-87030345D01*
X112369913Y-86673895D01*
X113194631Y-86294098D01*
X114013346Y-85906331D01*
X114794248Y-85525972D01*
X115505524Y-85168400D01*
X116115361Y-84848991D01*
X116591948Y-84583125D01*
X116812513Y-84455430D01*
X117286663Y-84198717D01*
X117675977Y-84025242D01*
X118024199Y-83920476D01*
X118375072Y-83869892D01*
X118772340Y-83858962D01*
X119057990Y-83869415D01*
X119411745Y-83907814D01*
X119792041Y-83981405D01*
X120226256Y-84097689D01*
X120741771Y-84264166D01*
X121365963Y-84488335D01*
X122126213Y-84777696D01*
X122531708Y-84933300D01*
X123119428Y-85154360D01*
X123687598Y-85363454D01*
X124187292Y-85542636D01*
X124569584Y-85673960D01*
X124649810Y-85700737D01*
X125107832Y-85872737D01*
X125409035Y-86033524D01*
X125570467Y-86199557D01*
X125609174Y-86387299D01*
X125542203Y-86613212D01*
X125493964Y-86703399D01*
X125401342Y-86806588D01*
X125270364Y-86868154D01*
X125085170Y-86884736D01*
X124829900Y-86852973D01*
X124488696Y-86769503D01*
X124045697Y-86630966D01*
X123485044Y-86434000D01*
X122790879Y-86175243D01*
X121947340Y-85851336D01*
X121629669Y-85728810D01*
X120954382Y-85473452D01*
X120408285Y-85277184D01*
X119966005Y-85132726D01*
X119602171Y-85032794D01*
X119291411Y-84970109D01*
X119008352Y-84937390D01*
X118727622Y-84927354D01*
X118607037Y-84927664D01*
X118369865Y-84940117D01*
X118161199Y-84981773D01*
X117935607Y-85068406D01*
X117647657Y-85215789D01*
X117251918Y-85439695D01*
X117031938Y-85563471D01*
X116566349Y-85815457D01*
X116020691Y-86101808D01*
X115445840Y-86395965D01*
X114892674Y-86671366D01*
X113427797Y-87388433D01*
X113774717Y-87620705D01*
X113861237Y-87679474D01*
X114587376Y-88230043D01*
X115369511Y-88914657D01*
X116186046Y-89710418D01*
X117015386Y-90594431D01*
X117835936Y-91543800D01*
X118626099Y-92535627D01*
X119364281Y-93547017D01*
X120016747Y-94528608D01*
X120852310Y-95905493D01*
X121674167Y-97386897D01*
X122461707Y-98932013D01*
X123194319Y-100500033D01*
X123851392Y-102050151D01*
X124412315Y-103541559D01*
X124487532Y-103734240D01*
X124589644Y-103933746D01*
X124665595Y-104011102D01*
X124693453Y-104006678D01*
X124876531Y-103933821D01*
X125186039Y-103780126D01*
X125602953Y-103556779D01*
X126108249Y-103274963D01*
X126682905Y-102945862D01*
X127307897Y-102580663D01*
X127964201Y-102190548D01*
X128632795Y-101786702D01*
X129294655Y-101380311D01*
X129930758Y-100982558D01*
X130522081Y-100604628D01*
X131049599Y-100257706D01*
X132456143Y-99315679D01*
X132745362Y-98460564D01*
X132900862Y-97975307D01*
X133176416Y-96925291D01*
X133374778Y-95839926D01*
X133500106Y-94685971D01*
X133556554Y-93430187D01*
X133548280Y-92039335D01*
X133520952Y-91306764D01*
X133434074Y-90087213D01*
X133290782Y-88916083D01*
X133082854Y-87742522D01*
X132802070Y-86515676D01*
X132440210Y-85184693D01*
X132275277Y-84640832D01*
X131810598Y-83292930D01*
X131253949Y-81883640D01*
X130626353Y-80461671D01*
X129948828Y-79075735D01*
X129242396Y-77774541D01*
X128716390Y-76826213D01*
X128167947Y-75756697D01*
X127686238Y-74726166D01*
X127279782Y-73755138D01*
X126957099Y-72864130D01*
X126726709Y-72073658D01*
X126597130Y-71404240D01*
X126577462Y-71225091D01*
X126574539Y-70386562D01*
X126726133Y-69628710D01*
X127029461Y-68958100D01*
X127481741Y-68381298D01*
X128080191Y-67904868D01*
X128419767Y-67596122D01*
X128740687Y-67110059D01*
X129040508Y-66449227D01*
X129318405Y-65615150D01*
X129688976Y-64034609D01*
X129912265Y-62341982D01*
X129981669Y-60562383D01*
X129897348Y-58697668D01*
X129659458Y-56749695D01*
X129268158Y-54720319D01*
X128723606Y-52611398D01*
X128025960Y-50424788D01*
X127912081Y-50090092D01*
X127731534Y-49530290D01*
X127569842Y-48994932D01*
X127441251Y-48531850D01*
X127360006Y-48188872D01*
X127344177Y-48108804D01*
X127259895Y-47691309D01*
X127192266Y-47412036D01*
X127124335Y-47239055D01*
X127039144Y-47140436D01*
X126919739Y-47084249D01*
X126749165Y-47038564D01*
X126594279Y-46997685D01*
X125963548Y-46807020D01*
X125253472Y-46562775D01*
X124525740Y-46287960D01*
X123842042Y-46005583D01*
X123264068Y-45738654D01*
X123167122Y-45689965D01*
X121808943Y-44927378D01*
X120518517Y-44045278D01*
X119287800Y-43035238D01*
X118108745Y-41888830D01*
X116973307Y-40597627D01*
X115873439Y-39153199D01*
X114801095Y-37547120D01*
X113748231Y-35770962D01*
X113472367Y-35275739D01*
X113161301Y-34711231D01*
X112862088Y-34162883D01*
X112612946Y-33700399D01*
X112461152Y-33425608D01*
X112378692Y-33290272D01*
X113002403Y-33290272D01*
X113510759Y-34239948D01*
X114208906Y-35512057D01*
X114988844Y-36847436D01*
X115748097Y-38047687D01*
X116500743Y-39132966D01*
X117260855Y-40123432D01*
X118042509Y-41039242D01*
X118859780Y-41900554D01*
X119148333Y-42183221D01*
X120409235Y-43287104D01*
X121747443Y-44260341D01*
X123143207Y-45090878D01*
X124576774Y-45766658D01*
X126028392Y-46275628D01*
X126197860Y-46323953D01*
X126538286Y-46415907D01*
X126799605Y-46479565D01*
X126935712Y-46503356D01*
X126984411Y-46484274D01*
X127019130Y-46384197D01*
X127022565Y-46169996D01*
X126997517Y-45810222D01*
X126977205Y-45183564D01*
X127046099Y-44513671D01*
X127211799Y-43951738D01*
X127468879Y-43515020D01*
X127811913Y-43220770D01*
X128004754Y-43078237D01*
X128318633Y-42717112D01*
X128639582Y-42200881D01*
X128961017Y-41543529D01*
X129276356Y-40759042D01*
X129579014Y-39861405D01*
X129862410Y-38864604D01*
X130048322Y-38125433D01*
X130218673Y-37361587D01*
X130340186Y-36679349D01*
X130419749Y-36031792D01*
X130464249Y-35371986D01*
X130480576Y-34653004D01*
X130479274Y-34293560D01*
X130445567Y-33557454D01*
X130362843Y-32967098D01*
X130223730Y-32502152D01*
X130020854Y-32142277D01*
X129746844Y-31867136D01*
X129394327Y-31656389D01*
X129053547Y-31512657D01*
X128585856Y-31337909D01*
X128037983Y-31147524D01*
X127456295Y-30956712D01*
X126887156Y-30780682D01*
X126376932Y-30634641D01*
X125971988Y-30533799D01*
X125970373Y-30533449D01*
X125429651Y-30444851D01*
X124766259Y-30380226D01*
X124034835Y-30341426D01*
X123290017Y-30330301D01*
X122586446Y-30348704D01*
X121978759Y-30398486D01*
X121490177Y-30465135D01*
X120146043Y-30717264D01*
X118730252Y-31080995D01*
X117229486Y-31560433D01*
X115630429Y-32159684D01*
X113919766Y-32882852D01*
X113002403Y-33290272D01*
X112378692Y-33290272D01*
X112222006Y-33033113D01*
X112015235Y-32743782D01*
X111861153Y-32587682D01*
X111356913Y-32275572D01*
X110195769Y-31671506D01*
X108895084Y-31130384D01*
X107475935Y-30658800D01*
X105959398Y-30263348D01*
X104366550Y-29950623D01*
X102718467Y-29727218D01*
X102213632Y-29684157D01*
X101395942Y-29643244D01*
X100479891Y-29623272D01*
X99511381Y-29623632D01*
X98536317Y-29643712D01*
X97600600Y-29682902D01*
X96750135Y-29740591D01*
X96030826Y-29816169D01*
X94237104Y-30092961D01*
X91967752Y-30556693D01*
X89760629Y-31134529D01*
X87661207Y-31815606D01*
X87290154Y-31952520D01*
X87013462Y-32069503D01*
X86855957Y-32162892D01*
X86842629Y-32170795D01*
G37*
G36*
X145384843Y-41492312D02*
G01*
X145627433Y-41545925D01*
X145884321Y-41625710D01*
X146111641Y-41713617D01*
X145931017Y-42141142D01*
X145853166Y-42313848D01*
X145754919Y-42497413D01*
X145693419Y-42568667D01*
X145632873Y-42536682D01*
X145475675Y-42417965D01*
X145267977Y-42241680D01*
X145071321Y-42060471D01*
X144969304Y-41931117D01*
X144954801Y-41820049D01*
X145006098Y-41680757D01*
X145068762Y-41563605D01*
X145184028Y-41481545D01*
X145384843Y-41492312D01*
G37*
G36*
X167597398Y-40833717D02*
G01*
X167732860Y-40992713D01*
X167919548Y-41241439D01*
X168134757Y-41550817D01*
X168179082Y-41616564D01*
X168392845Y-41933183D01*
X168517213Y-42138750D01*
X168550832Y-42262167D01*
X168492350Y-42332338D01*
X168340412Y-42378164D01*
X168093667Y-42428549D01*
X168064746Y-42434623D01*
X167791955Y-42477961D01*
X167636999Y-42445226D01*
X167558113Y-42308409D01*
X167513529Y-42039500D01*
X167487445Y-41788661D01*
X167463975Y-41400440D01*
X167465579Y-41083189D01*
X167491541Y-40869175D01*
X167541150Y-40790667D01*
X167597398Y-40833717D01*
G37*
G36*
X145151686Y-43050626D02*
G01*
X145387187Y-43139766D01*
X145547229Y-43257813D01*
X145584903Y-43392457D01*
X145582622Y-43400665D01*
X145536094Y-43593091D01*
X145484031Y-43838667D01*
X145477635Y-43870315D01*
X145428449Y-44078835D01*
X145388514Y-44197744D01*
X145362384Y-44215990D01*
X145221254Y-44201294D01*
X145008566Y-44120263D01*
X144771151Y-43996148D01*
X144555840Y-43852199D01*
X144409463Y-43711667D01*
X144398090Y-43694196D01*
X144349270Y-43497764D01*
X144367281Y-43264789D01*
X144446267Y-43093600D01*
X144461534Y-43079784D01*
X144641950Y-43008323D01*
X144887637Y-43002708D01*
X145151686Y-43050626D01*
G37*
G36*
X180109911Y-43011970D02*
G01*
X180613535Y-44567589D01*
X181021150Y-46105002D01*
X181341227Y-47648667D01*
X181409802Y-48048118D01*
X181499784Y-48621749D01*
X181583773Y-49208713D01*
X181657146Y-49772979D01*
X181715279Y-50278519D01*
X181753549Y-50689304D01*
X181767333Y-50969305D01*
X181767333Y-51289333D01*
X181145572Y-51289333D01*
X180523810Y-51289333D01*
X180468695Y-49955833D01*
X180466443Y-49902887D01*
X180434066Y-49316323D01*
X180388206Y-48699524D01*
X180331885Y-48077393D01*
X180268125Y-47474835D01*
X180199946Y-46916753D01*
X180130371Y-46428051D01*
X180062422Y-46033633D01*
X179999120Y-45758403D01*
X179943487Y-45627265D01*
X179907802Y-45607579D01*
X179719937Y-45563789D01*
X179410517Y-45523586D01*
X179012683Y-45490037D01*
X178559575Y-45466210D01*
X178084333Y-45455172D01*
X177904101Y-45455089D01*
X177311168Y-45472918D01*
X176685761Y-45520447D01*
X176015185Y-45600412D01*
X175286743Y-45715550D01*
X174487740Y-45868597D01*
X173605481Y-46062289D01*
X172627270Y-46299362D01*
X171540412Y-46582553D01*
X170966008Y-46740414D01*
X170332211Y-46914598D01*
X168989973Y-47298233D01*
X167501000Y-47736194D01*
X167082100Y-47860144D01*
X165734375Y-48248039D01*
X164511722Y-48580554D01*
X163389087Y-48863146D01*
X162341418Y-49101270D01*
X161343661Y-49300383D01*
X160370763Y-49465939D01*
X159397672Y-49603394D01*
X158399333Y-49718204D01*
X158061084Y-49751105D01*
X157275307Y-49814058D01*
X156465370Y-49862628D01*
X155663333Y-49895950D01*
X154901254Y-49913158D01*
X154211195Y-49913383D01*
X153625213Y-49895760D01*
X153175369Y-49859421D01*
X153103379Y-49850266D01*
X151819922Y-49613755D01*
X150466687Y-49231330D01*
X149052875Y-48706385D01*
X147587690Y-48042315D01*
X146080333Y-47242514D01*
X145958404Y-47172560D01*
X145260232Y-46751461D01*
X144746116Y-46422613D01*
X149678667Y-46422613D01*
X149723635Y-46577052D01*
X149910144Y-46748359D01*
X150249155Y-46900542D01*
X150748948Y-47038365D01*
X151080443Y-47112502D01*
X151584067Y-47215118D01*
X151956612Y-47266826D01*
X152219416Y-47262278D01*
X152393820Y-47196127D01*
X152442090Y-47136275D01*
X153404000Y-47136275D01*
X153404119Y-47145825D01*
X153488402Y-47401646D01*
X153706082Y-47636128D01*
X154023345Y-47812360D01*
X154281136Y-47885043D01*
X154748886Y-47894199D01*
X155185686Y-47751372D01*
X155564817Y-47467599D01*
X155859558Y-47053917D01*
X156028095Y-46610377D01*
X156143957Y-46035312D01*
X156191355Y-45408454D01*
X156169445Y-44781086D01*
X156077382Y-44204490D01*
X155914320Y-43729949D01*
X155802201Y-43534552D01*
X155517390Y-43214006D01*
X155184170Y-43007188D01*
X155075870Y-42980029D01*
X158568667Y-42980029D01*
X158569129Y-42994033D01*
X158634655Y-43210081D01*
X158793098Y-43503254D01*
X159018762Y-43835424D01*
X159285950Y-44168464D01*
X159568968Y-44464247D01*
X159830122Y-44708828D01*
X159666466Y-45029621D01*
X159636530Y-45092647D01*
X159527129Y-45364754D01*
X159511785Y-45408454D01*
X159402494Y-45719715D01*
X159284164Y-46097374D01*
X159276390Y-46124087D01*
X159150125Y-46643744D01*
X159111465Y-47042986D01*
X159160630Y-47345383D01*
X159297837Y-47574501D01*
X159301735Y-47578760D01*
X159527297Y-47713727D01*
X159786237Y-47701104D01*
X160033456Y-47542833D01*
X160062158Y-47510560D01*
X160151792Y-47358508D01*
X160236174Y-47119613D01*
X160323607Y-46766760D01*
X160422397Y-46272833D01*
X160490735Y-45913274D01*
X160559547Y-45583330D01*
X160616775Y-45372901D01*
X160672085Y-45255450D01*
X160735145Y-45204439D01*
X160815620Y-45193333D01*
X160942733Y-45225795D01*
X161047576Y-45351112D01*
X161155354Y-45605908D01*
X161324876Y-45988771D01*
X161568439Y-46374748D01*
X161843847Y-46687276D01*
X162128154Y-46905124D01*
X162398415Y-47007062D01*
X162631683Y-46971860D01*
X162741281Y-46883149D01*
X162788154Y-46740414D01*
X162754631Y-46526996D01*
X162636659Y-46219191D01*
X162430184Y-45793291D01*
X162356630Y-45647155D01*
X162059955Y-44982428D01*
X161850707Y-44345341D01*
X161710893Y-43671350D01*
X161622521Y-42895908D01*
X161604209Y-42685480D01*
X161545246Y-42195220D01*
X161470049Y-41847829D01*
X161371103Y-41623821D01*
X161240894Y-41503707D01*
X161203483Y-41495802D01*
X162473866Y-41495802D01*
X162478496Y-41785424D01*
X162596381Y-42012286D01*
X162630096Y-42044195D01*
X162795417Y-42133343D01*
X162978891Y-42095427D01*
X163220350Y-41924868D01*
X163454572Y-41777136D01*
X163692207Y-41758877D01*
X163921114Y-41898970D01*
X164157183Y-42202117D01*
X164180172Y-42238879D01*
X164502911Y-42895131D01*
X164712339Y-43610537D01*
X164788732Y-44318987D01*
X164784904Y-44527721D01*
X164729966Y-44925418D01*
X164596179Y-45200978D01*
X164365835Y-45381516D01*
X164021223Y-45494149D01*
X163921369Y-45517752D01*
X163674518Y-45613063D01*
X163577965Y-45733679D01*
X163565524Y-45883012D01*
X163653710Y-46176119D01*
X163891078Y-46400686D01*
X163926462Y-46420940D01*
X164200917Y-46524379D01*
X164498876Y-46523960D01*
X164876333Y-46420830D01*
X165119331Y-46306643D01*
X165471543Y-45998407D01*
X165726899Y-45558375D01*
X165881992Y-44993349D01*
X165933415Y-44310133D01*
X165915531Y-43912222D01*
X165809723Y-43226128D01*
X165620330Y-42566198D01*
X165360509Y-41960877D01*
X165043417Y-41438613D01*
X164784676Y-41144373D01*
X166614020Y-41144373D01*
X166619200Y-41501241D01*
X166676779Y-42302075D01*
X166803015Y-43156070D01*
X167004185Y-44110940D01*
X167053092Y-44310133D01*
X167098663Y-44495739D01*
X167185530Y-44790450D01*
X167271974Y-44992894D01*
X167374756Y-45141603D01*
X167510640Y-45275106D01*
X167529501Y-45291409D01*
X167821532Y-45478104D01*
X168082876Y-45526108D01*
X168288400Y-45430400D01*
X168312449Y-45403901D01*
X168372629Y-45278403D01*
X168377959Y-45092782D01*
X168326088Y-44814541D01*
X168214666Y-44411184D01*
X168203960Y-44374957D01*
X168125929Y-44089905D01*
X168079128Y-43879996D01*
X168073358Y-43788420D01*
X168145332Y-43767043D01*
X168344760Y-43734200D01*
X168620757Y-43700736D01*
X168902951Y-43676218D01*
X169071958Y-43684657D01*
X169167634Y-43738334D01*
X169237743Y-43848706D01*
X169285697Y-43928148D01*
X169445665Y-44141369D01*
X169644860Y-44367833D01*
X169848479Y-44548622D01*
X170105137Y-44678725D01*
X170314298Y-44672397D01*
X170455097Y-44532228D01*
X170506667Y-44260810D01*
X170502005Y-44236146D01*
X170437276Y-44073446D01*
X170305819Y-43795415D01*
X170119713Y-43426208D01*
X169891034Y-42989985D01*
X169631858Y-42510902D01*
X169589792Y-42434257D01*
X169305688Y-41915011D01*
X169029729Y-41408137D01*
X168780325Y-40947610D01*
X168575884Y-40567408D01*
X168434814Y-40301506D01*
X168177451Y-39861364D01*
X167898799Y-39516638D01*
X167698835Y-39377511D01*
X170193522Y-39377511D01*
X170248665Y-39757475D01*
X170367731Y-40267377D01*
X170403547Y-40404484D01*
X170539855Y-40902635D01*
X170694113Y-41437647D01*
X170857290Y-41980944D01*
X171020355Y-42503951D01*
X171174278Y-42978089D01*
X171310028Y-43374785D01*
X171418576Y-43665461D01*
X171490891Y-43821542D01*
X171499398Y-43834206D01*
X171667488Y-44014956D01*
X171887100Y-44181059D01*
X172025993Y-44257278D01*
X172038795Y-44260810D01*
X172293640Y-44331121D01*
X172491058Y-44256635D01*
X172630555Y-44031340D01*
X172648189Y-43967914D01*
X172657649Y-43755019D01*
X172619511Y-43433379D01*
X172531317Y-42976875D01*
X172479188Y-42725644D01*
X172420013Y-42414174D01*
X172385334Y-42195300D01*
X172381400Y-42105346D01*
X172482338Y-42046866D01*
X172691186Y-41956856D01*
X172961928Y-41853120D01*
X173250784Y-41751087D01*
X173513974Y-41666189D01*
X173707717Y-41613855D01*
X173788234Y-41609515D01*
X173798577Y-41631937D01*
X173875769Y-41777875D01*
X174008090Y-42017852D01*
X174174350Y-42313248D01*
X174337525Y-42580156D01*
X174670290Y-42997790D01*
X175004792Y-43247618D01*
X175342209Y-43330667D01*
X175415666Y-43326574D01*
X175617477Y-43243318D01*
X175726046Y-43047066D01*
X175742105Y-42730259D01*
X175666386Y-42285334D01*
X175499620Y-41704733D01*
X175473952Y-41625496D01*
X175095616Y-40326862D01*
X174782951Y-38970356D01*
X174681244Y-38566631D01*
X174519925Y-38190297D01*
X174321110Y-37973652D01*
X174080836Y-37912815D01*
X173795137Y-38003908D01*
X173707383Y-38068177D01*
X173529439Y-38312014D01*
X173385567Y-38657331D01*
X173288598Y-39057819D01*
X173251361Y-39467168D01*
X173286687Y-39839068D01*
X173300705Y-39905334D01*
X173323654Y-40146285D01*
X173269952Y-40268963D01*
X173268586Y-40270020D01*
X173147063Y-40334846D01*
X172934253Y-40426423D01*
X172679570Y-40526129D01*
X172432431Y-40615344D01*
X172242251Y-40675444D01*
X172158446Y-40687811D01*
X172158420Y-40687778D01*
X172116293Y-40606092D01*
X172016228Y-40402334D01*
X171873167Y-40107164D01*
X171702049Y-39751241D01*
X171527190Y-39394471D01*
X171367950Y-39100093D01*
X171235863Y-38905883D01*
X171110085Y-38781865D01*
X170969775Y-38698062D01*
X170915695Y-38672523D01*
X170735793Y-38605201D01*
X170605490Y-38622658D01*
X170442472Y-38729858D01*
X170424950Y-38743206D01*
X170280332Y-38897780D01*
X170203634Y-39100081D01*
X170193522Y-39377511D01*
X167698835Y-39377511D01*
X167625356Y-39326387D01*
X167349381Y-39283351D01*
X167090071Y-39371423D01*
X166879667Y-39596226D01*
X166731822Y-39962522D01*
X166644089Y-40476506D01*
X166614020Y-41144373D01*
X164784676Y-41144373D01*
X164682211Y-41027850D01*
X164290049Y-40757036D01*
X164102874Y-40689062D01*
X163707240Y-40628911D01*
X163302913Y-40649002D01*
X162968562Y-40749766D01*
X162747080Y-40922617D01*
X162568168Y-41192005D01*
X162473866Y-41495802D01*
X161203483Y-41495802D01*
X161071908Y-41468000D01*
X161069326Y-41468015D01*
X160860556Y-41542928D01*
X160772799Y-41621813D01*
X160639375Y-41741749D01*
X160598205Y-41791155D01*
X160508413Y-41914596D01*
X160455933Y-42042391D01*
X160433980Y-42215708D01*
X160435771Y-42475716D01*
X160454523Y-42863582D01*
X160468879Y-43093207D01*
X160499411Y-43448443D01*
X160533645Y-43726356D01*
X160566524Y-43881000D01*
X160553993Y-43904316D01*
X160446040Y-43842246D01*
X160255058Y-43691416D01*
X160003017Y-43467930D01*
X159734989Y-43228658D01*
X159318784Y-42902210D01*
X158992673Y-42713656D01*
X158758032Y-42663462D01*
X158616237Y-42752096D01*
X158568667Y-42980029D01*
X155075870Y-42980029D01*
X154831970Y-42918865D01*
X154490217Y-42953807D01*
X154188340Y-43116783D01*
X154047205Y-43296274D01*
X153955767Y-43412562D01*
X153862896Y-43633615D01*
X153833173Y-43885432D01*
X153920458Y-44034379D01*
X154112298Y-44064936D01*
X154396244Y-43961583D01*
X154401627Y-43958688D01*
X154605276Y-43863866D01*
X154749238Y-43856000D01*
X154914356Y-43930192D01*
X155062252Y-44035651D01*
X155247672Y-44291934D01*
X155351556Y-44660915D01*
X155382180Y-45164429D01*
X155382064Y-45181523D01*
X155360333Y-45581265D01*
X155290507Y-45902160D01*
X155154435Y-46229062D01*
X155127042Y-46284040D01*
X154921302Y-46617430D01*
X154698751Y-46805795D01*
X154422813Y-46869069D01*
X154056906Y-46827189D01*
X153784590Y-46784714D01*
X153556797Y-46804633D01*
X153438111Y-46917949D01*
X153404000Y-47136275D01*
X152442090Y-47136275D01*
X152501163Y-47063029D01*
X152562784Y-46857637D01*
X152600022Y-46574603D01*
X152602135Y-46553627D01*
X152637972Y-46233753D01*
X152690553Y-45804527D01*
X152753144Y-45319527D01*
X152819010Y-44832336D01*
X152864076Y-44501239D01*
X152928737Y-43978491D01*
X152964409Y-43585064D01*
X152971065Y-43296274D01*
X152948674Y-43087437D01*
X152897208Y-42933867D01*
X152816638Y-42810880D01*
X152759687Y-42745770D01*
X152632723Y-42663065D01*
X152499138Y-42702870D01*
X152452641Y-42736977D01*
X152379797Y-42835708D01*
X152320581Y-42915968D01*
X152202662Y-43214873D01*
X152096753Y-43643569D01*
X152000725Y-44211932D01*
X151912449Y-44929839D01*
X151829794Y-45807167D01*
X151781856Y-46378667D01*
X151433858Y-46378667D01*
X151286647Y-46372762D01*
X150950430Y-46337342D01*
X150610893Y-46280564D01*
X150276207Y-46232186D01*
X149963228Y-46236791D01*
X149754554Y-46301713D01*
X149678667Y-46422613D01*
X144746116Y-46422613D01*
X144472936Y-46247877D01*
X143629600Y-45684995D01*
X142763311Y-45085999D01*
X141907155Y-44474076D01*
X141094216Y-43872410D01*
X140487740Y-43404589D01*
X143695549Y-43404589D01*
X143705004Y-43723233D01*
X143717850Y-43766041D01*
X143878616Y-44039471D01*
X144154889Y-44320011D01*
X144506558Y-44572599D01*
X144893512Y-44762172D01*
X145240054Y-44872242D01*
X145566131Y-44930771D01*
X145797838Y-44918532D01*
X145906405Y-44833500D01*
X145913565Y-44809862D01*
X145972547Y-44609311D01*
X146030212Y-44410220D01*
X147086188Y-44410220D01*
X147113997Y-44988142D01*
X147225342Y-45459855D01*
X147417112Y-45810024D01*
X147686193Y-46023315D01*
X147953134Y-46105101D01*
X148382144Y-46109188D01*
X148806863Y-45985428D01*
X149182070Y-45749277D01*
X149462542Y-45416192D01*
X149517651Y-45308576D01*
X149647848Y-44991937D01*
X149792884Y-44578457D01*
X149938747Y-44113919D01*
X150071428Y-43644107D01*
X150176915Y-43214804D01*
X150241197Y-42871794D01*
X150245790Y-42835708D01*
X150241046Y-42503598D01*
X150136543Y-42299498D01*
X149935422Y-42230000D01*
X149895142Y-42232352D01*
X149760405Y-42286900D01*
X149639263Y-42428752D01*
X149521659Y-42677888D01*
X149397533Y-43054288D01*
X149256827Y-43577932D01*
X149109741Y-44139763D01*
X148968783Y-44620982D01*
X148846817Y-44963902D01*
X148738431Y-45183537D01*
X148638216Y-45294903D01*
X148448829Y-45358193D01*
X148226253Y-45327766D01*
X148072979Y-45198899D01*
X148020920Y-45037119D01*
X147989699Y-44694655D01*
X148004129Y-44239600D01*
X148062942Y-43700818D01*
X148164870Y-43107176D01*
X148245153Y-42653998D01*
X148281192Y-42260997D01*
X148253645Y-41998683D01*
X148160632Y-41852194D01*
X148000271Y-41806667D01*
X147811078Y-41861628D01*
X147626814Y-42052820D01*
X147462726Y-42388827D01*
X147314951Y-42877750D01*
X147179627Y-43527688D01*
X147145028Y-43741422D01*
X147086188Y-44410220D01*
X146030212Y-44410220D01*
X146064567Y-44291610D01*
X146178795Y-43894609D01*
X146304406Y-43456157D01*
X146430571Y-43014105D01*
X146546463Y-42606302D01*
X146641256Y-42270599D01*
X146704122Y-42044844D01*
X146767223Y-41801008D01*
X146793803Y-41621813D01*
X146768407Y-41506414D01*
X146689865Y-41401969D01*
X146585267Y-41305963D01*
X146282171Y-41110564D01*
X145902204Y-40930702D01*
X145505653Y-40792971D01*
X145152804Y-40723963D01*
X144994701Y-40712918D01*
X144787837Y-40720787D01*
X144653000Y-40783181D01*
X144527511Y-40919721D01*
X144434527Y-41085144D01*
X144352631Y-41419908D01*
X144353013Y-41778810D01*
X144441475Y-42083352D01*
X144453107Y-42105571D01*
X144494025Y-42240595D01*
X144421122Y-42303293D01*
X144193674Y-42442690D01*
X143966444Y-42711652D01*
X143791549Y-43049840D01*
X143695549Y-43404589D01*
X140487740Y-43404589D01*
X140357580Y-43304187D01*
X139730333Y-42792594D01*
X139345089Y-42464781D01*
X138754983Y-41955404D01*
X138258635Y-41517119D01*
X137863675Y-41156944D01*
X137577733Y-40881897D01*
X137408438Y-40698998D01*
X137363419Y-40615263D01*
X137395141Y-40602598D01*
X137573120Y-40581011D01*
X137887768Y-40562818D01*
X138317810Y-40548827D01*
X138841977Y-40539841D01*
X139438997Y-40536667D01*
X139831991Y-40535673D01*
X140358459Y-40530939D01*
X140808259Y-40522843D01*
X141158227Y-40511982D01*
X141385196Y-40498954D01*
X141466000Y-40484358D01*
X141452001Y-40448139D01*
X141372563Y-40280585D01*
X141232385Y-39997527D01*
X141042308Y-39620565D01*
X140813177Y-39171295D01*
X140555833Y-38671317D01*
X140396449Y-38360060D01*
X140160911Y-37888054D01*
X139964369Y-37479057D01*
X139816877Y-37154734D01*
X139728486Y-36936749D01*
X139709248Y-36846766D01*
X139769429Y-36840872D01*
X139942762Y-36897706D01*
X140174915Y-37014861D01*
X140281545Y-37074073D01*
X140567471Y-37224964D01*
X140948197Y-37419900D01*
X141386961Y-37640148D01*
X141847000Y-37866973D01*
X142973132Y-38387420D01*
X144831551Y-39121421D01*
X146702550Y-39709492D01*
X148575850Y-40150582D01*
X150441172Y-40443639D01*
X152288237Y-40587610D01*
X154106764Y-40581445D01*
X155886476Y-40424091D01*
X157617092Y-40114497D01*
X159288333Y-39651610D01*
X159584530Y-39548818D01*
X160113516Y-39349868D01*
X160706147Y-39113160D01*
X161309503Y-38860004D01*
X161870667Y-38611711D01*
X163538474Y-37880967D01*
X165119528Y-37256099D01*
X166606246Y-36743246D01*
X168011892Y-36339012D01*
X169349727Y-36040003D01*
X170633015Y-35842823D01*
X171875018Y-35744079D01*
X173089000Y-35740376D01*
X173800392Y-35775565D01*
X174434399Y-35834022D01*
X174988095Y-35921345D01*
X175506996Y-36044812D01*
X176036616Y-36211699D01*
X176104636Y-36234964D01*
X176380650Y-36314886D01*
X176559417Y-36329254D01*
X176688046Y-36283239D01*
X176696585Y-36278048D01*
X176795516Y-36242964D01*
X176898374Y-36265296D01*
X177014657Y-36358840D01*
X177153864Y-36537395D01*
X177325492Y-36814757D01*
X177539041Y-37204725D01*
X177804009Y-37721095D01*
X178129894Y-38377667D01*
X178780749Y-39748296D01*
X179501805Y-41413691D01*
X180002727Y-42730259D01*
X180109911Y-43011970D01*
G37*
%TD*%
M02*
