%TF.GenerationSoftware,KiCad,Pcbnew,10.0.3*%
%TF.CreationDate,2026-06-14T15:58:53-05:00*%
%TF.ProjectId,Lathe PCB,4c617468-6520-4504-9342-2e6b69636164,rev?*%
%TF.SameCoordinates,Original*%
%TF.FileFunction,Copper,L2,Bot*%
%TF.FilePolarity,Positive*%
%FSLAX46Y46*%
G04 Gerber Fmt 4.6, Leading zero omitted, Abs format (unit mm)*
G04 Created by KiCad (PCBNEW 10.0.3) date 2026-06-14 15:58:53*
%MOMM*%
%LPD*%
G01*
G04 APERTURE LIST*
%TA.AperFunction,ComponentPad*%
%ADD10O,1.700000X2.000000*%
%TD*%
%TA.AperFunction,ComponentPad*%
%ADD11O,1.700000X1.900000*%
%TD*%
%TA.AperFunction,ComponentPad*%
%ADD12C,0.800000*%
%TD*%
%TA.AperFunction,ComponentPad*%
%ADD13C,6.400000*%
%TD*%
%TA.AperFunction,ComponentPad*%
%ADD14C,1.300000*%
%TD*%
%TA.AperFunction,ComponentPad*%
%ADD15C,1.524000*%
%TD*%
%TA.AperFunction,ComponentPad*%
%ADD16R,1.800000X1.800000*%
%TD*%
%TA.AperFunction,ComponentPad*%
%ADD17C,1.800000*%
%TD*%
%TA.AperFunction,ComponentPad*%
%ADD18C,1.600000*%
%TD*%
%TA.AperFunction,ComponentPad*%
%ADD19R,4.000000X8.000000*%
%TD*%
%TA.AperFunction,ComponentPad*%
%ADD20O,4.000000X8.000000*%
%TD*%
%TA.AperFunction,ComponentPad*%
%ADD21C,1.400000*%
%TD*%
%TA.AperFunction,ComponentPad*%
%ADD22O,1.400000X1.400000*%
%TD*%
%TA.AperFunction,ComponentPad*%
%ADD23C,1.550000*%
%TD*%
%TA.AperFunction,ViaPad*%
%ADD24C,0.600000*%
%TD*%
%TA.AperFunction,Conductor*%
%ADD25C,0.200000*%
%TD*%
G04 APERTURE END LIST*
D10*
%TO.P,SW1,0,0_0*%
%TO.N,unconnected-(SW1-Pad0)*%
X40000000Y-107000000D03*
%TO.N,unconnected-(SW1-Pad0)_3*%
X40000000Y-112000000D03*
%TO.N,unconnected-(SW1-Pad0)_2*%
X54000000Y-107000000D03*
%TO.N,unconnected-(SW1-Pad0)_1*%
X54000000Y-112000000D03*
D11*
%TO.P,SW1,1,1_1*%
%TO.N,GND*%
X44000000Y-109500000D03*
%TO.P,SW1,2,2_2*%
%TO.N,Net-(R16-Pad2)*%
X47000000Y-109500000D03*
%TO.P,SW1,3,3_3*%
%TO.N,+3.3V*%
X50000000Y-109500000D03*
%TD*%
D12*
%TO.P,REF\u002A\u002A,1*%
%TO.N,N/C*%
X169500000Y-95000000D03*
X170202944Y-93302944D03*
X170202944Y-96697056D03*
X171900000Y-92600000D03*
D13*
X171900000Y-95000000D03*
D12*
X171900000Y-97400000D03*
X173597056Y-93302944D03*
X173597056Y-96697056D03*
X174300000Y-95000000D03*
%TD*%
D14*
%TO.P,R8,1,1_1*%
%TO.N,Net-(LED1-Pad2)*%
X134800000Y-96000000D03*
%TO.P,R8,2,2_2*%
%TO.N,HIGHSRC B*%
X124500000Y-96000000D03*
%TD*%
D15*
%TO.P,LED1,1,1_1*%
%TO.N,HIGHSRC A*%
X134730000Y-109500000D03*
%TO.P,LED1,2,2_2*%
%TO.N,Net-(LED1-Pad2)*%
X137270000Y-109500000D03*
%TD*%
%TO.P,R16,1,1_1*%
%TO.N,EN*%
X61500000Y-68750000D03*
%TO.P,R16,2,2_2*%
%TO.N,Net-(R16-Pad2)*%
X61500000Y-84250000D03*
%TD*%
D16*
%TO.P,U7,1,1_1*%
%TO.N,EN*%
X158500000Y-110500000D03*
D17*
%TO.P,U7,2,2_2*%
%TO.N,HIGHIN A*%
X156000000Y-110500000D03*
%TO.P,U7,3,3_3*%
%TO.N,LOWIN A*%
X153500000Y-110500000D03*
%TO.P,U7,4,4_4*%
%TO.N,HIGHIN B*%
X151000000Y-110500000D03*
%TO.P,U7,5,5_5*%
%TO.N,LOWIN B*%
X148500000Y-110500000D03*
%TO.P,U7,6,6_6*%
%TO.N,GND*%
X146000000Y-110500000D03*
%TD*%
D15*
%TO.P,R19,1,1_1*%
%TO.N,HIGHIN B*%
X68750000Y-55500000D03*
%TO.P,R19,2,2_2*%
%TO.N,+3.3V*%
X53250000Y-55500000D03*
%TD*%
%TO.P,R18,1,1_1*%
%TO.N,+3.3V*%
X53000000Y-45000000D03*
%TO.P,R18,2,2_2*%
%TO.N,LOWIN B*%
X68500000Y-45000000D03*
%TD*%
D18*
%TO.P,R9,1,1_1*%
%TO.N,HIGHSRC A*%
X90090000Y-57750000D03*
%TO.P,R9,2,2_2*%
%TO.N,Net-(C7-Pad1)*%
X90090000Y-68250000D03*
%TD*%
D19*
%TO.P,U4,1,1_1*%
%TO.N,HIGHSRC A*%
X24000000Y-88000000D03*
X33000000Y-88000000D03*
D20*
%TO.P,U4,2,2_2*%
%TO.N,HIGHSRC B*%
X24000000Y-72000000D03*
X33000000Y-72000000D03*
%TD*%
D15*
%TO.P,R14,1,1_1*%
%TO.N,HIGHIN A*%
X74500000Y-54000000D03*
%TO.P,R14,2,2_2*%
%TO.N,+3.3V*%
X74500000Y-38500000D03*
%TD*%
D21*
%TO.P,R5,1*%
%TO.N,Net-(D6-K)*%
X79840000Y-94000000D03*
D22*
%TO.P,R5,2*%
%TO.N,GATEL A*%
X90000000Y-94000000D03*
%TD*%
D15*
%TO.P,R15,1,1_1*%
%TO.N,+3.3V*%
X47000000Y-54250000D03*
%TO.P,R15,2,2_2*%
%TO.N,LOWIN A*%
X47000000Y-38750000D03*
%TD*%
%TO.P,LED3,1,1_1*%
%TO.N,Net-(LED3-Pad1)*%
X27230000Y-109500000D03*
%TO.P,LED3,2,2_2*%
%TO.N,GND*%
X29770000Y-109500000D03*
%TD*%
D18*
%TO.P,C13,1,1_1*%
%TO.N,+12V*%
X30500000Y-37500000D03*
%TO.P,C13,2,2_2*%
%TO.N,GND*%
X35500000Y-37500000D03*
%TD*%
%TO.P,LED2,1,-_1*%
%TO.N,Net-(LED2--)*%
X126960000Y-109500000D03*
%TO.P,LED2,2,+_2*%
%TO.N,HIGHSRC B*%
X129500000Y-109500000D03*
%TD*%
%TO.P,C12,1,1_1*%
%TO.N,+12V*%
X30500000Y-49500000D03*
%TO.P,C12,2,2_2*%
%TO.N,GND*%
X35500000Y-49500000D03*
%TD*%
D21*
%TO.P,R3,1*%
%TO.N,Net-(D3-K)*%
X79420000Y-83000000D03*
D22*
%TO.P,R3,2*%
%TO.N,GATEH B*%
X89580000Y-83000000D03*
%TD*%
D19*
%TO.P,U5,1,1_1*%
%TO.N,GND*%
X170500000Y-79500000D03*
X179500000Y-79500000D03*
D20*
%TO.P,U5,2,2_2*%
%TO.N,+12V*%
X170500000Y-63500000D03*
X179500000Y-63500000D03*
%TD*%
D21*
%TO.P,R6,1*%
%TO.N,GATEL B*%
X79500000Y-98500000D03*
D22*
%TO.P,R6,2*%
%TO.N,Net-(D5-K)*%
X89660000Y-98500000D03*
%TD*%
D12*
%TO.P,REF\u002A\u002A,1*%
%TO.N,N/C*%
X32100000Y-112500000D03*
X32802944Y-110802944D03*
X32802944Y-114197056D03*
X34500000Y-110100000D03*
D13*
X34500000Y-112500000D03*
D12*
X34500000Y-114900000D03*
X36197056Y-110802944D03*
X36197056Y-114197056D03*
X36900000Y-112500000D03*
%TD*%
D23*
%TO.P,U6,1,1_1*%
%TO.N,/H-Bridge/Power/LOWSRC B*%
X166000000Y-109500000D03*
%TO.P,U6,2,2_2*%
%TO.N,GND*%
X168500000Y-109500000D03*
%TO.P,U6,3,3_3*%
%TO.N,/H-Bridge/Power/LOWSRC A*%
X171000000Y-109500000D03*
%TD*%
D14*
%TO.P,R7,1,1_1*%
%TO.N,HIGHSRC A*%
X82500000Y-57850000D03*
%TO.P,R7,2,2_2*%
%TO.N,Net-(LED2--)*%
X82500000Y-68150000D03*
%TD*%
D21*
%TO.P,R4,1*%
%TO.N,Net-(D4-K)*%
X79420000Y-88500000D03*
D22*
%TO.P,R4,2*%
%TO.N,GATEH A*%
X89580000Y-88500000D03*
%TD*%
D15*
%TO.P,R17,1,1_1*%
%TO.N,Net-(R16-Pad2)*%
X58500000Y-96500000D03*
%TO.P,R17,2,2_2*%
%TO.N,Net-(LED3-Pad1)*%
X45500000Y-96500000D03*
%TD*%
D12*
%TO.P,REF\u002A\u002A,1*%
%TO.N,N/C*%
X174573952Y-30125496D03*
X175276896Y-28428440D03*
X175276896Y-31822552D03*
X176973952Y-27725496D03*
D13*
X176973952Y-30125496D03*
D12*
X176973952Y-32525496D03*
X178671008Y-28428440D03*
X178671008Y-31822552D03*
X179373952Y-30125496D03*
%TD*%
D24*
%TO.N,HIGHIN A*%
X145500000Y-114500000D03*
X163500000Y-66000000D03*
%TO.N,LOWIN A*%
X161900000Y-94000000D03*
X92500000Y-48500000D03*
%TO.N,HIGHIN B*%
X86500000Y-37500000D03*
X113500000Y-25600000D03*
X153500000Y-102000000D03*
X152500000Y-105000000D03*
X88000000Y-39100000D03*
X177000000Y-101500000D03*
X59500000Y-62500000D03*
X163500000Y-102000000D03*
X164300003Y-66000000D03*
X176325735Y-38325735D03*
X179500000Y-86500000D03*
X67500000Y-39500000D03*
X176500000Y-40000000D03*
X59000000Y-64500000D03*
X179000000Y-101000000D03*
X149000000Y-94000000D03*
X89500000Y-28900000D03*
%TO.N,LOWIN B*%
X104000000Y-106000000D03*
%TO.N,GND*%
X103000000Y-114000000D03*
X84000000Y-37500000D03*
X96500000Y-113000000D03*
X22500000Y-44500000D03*
X105400000Y-111500000D03*
X85500000Y-39100000D03*
X37000000Y-29400000D03*
X111450000Y-113050000D03*
%TO.N,HIGHSRC A*%
X108760050Y-80260050D03*
X126000000Y-85500000D03*
%TO.N,HIGHSRC B*%
X72500000Y-110100000D03*
X125000000Y-51000000D03*
X72500000Y-108000000D03*
X40500000Y-78500000D03*
X76000000Y-107500000D03*
X74000000Y-57000000D03*
X135000000Y-41500000D03*
%TO.N,GATEH B*%
X106500000Y-56000000D03*
X110174265Y-50325735D03*
X102000000Y-58000000D03*
%TO.N,+12V*%
X114000000Y-54000000D03*
X91000000Y-76500000D03*
X114000000Y-56000000D03*
X105500000Y-54500000D03*
X105500000Y-45050000D03*
X144000000Y-49000000D03*
X109980000Y-71050000D03*
X100000000Y-103500000D03*
X114000000Y-71500000D03*
%TO.N,LOWSRC B*%
X148731669Y-71870639D03*
X104500000Y-53500000D03*
X146650000Y-71850000D03*
X137000000Y-61000000D03*
%TO.N,GATEL B*%
X102000000Y-65500000D03*
X102000000Y-74500000D03*
X78500000Y-69800000D03*
X72667108Y-80332892D03*
X66550000Y-90050000D03*
X76900000Y-82500000D03*
%TO.N,GATEH A*%
X97840735Y-88159265D03*
X109500000Y-78600000D03*
X108000000Y-81000000D03*
X106000000Y-85100000D03*
%TO.N,/BST B*%
X101500000Y-81000000D03*
X108600000Y-84500000D03*
%TO.N,EN*%
X179000000Y-102500000D03*
X161400000Y-103000000D03*
X150330000Y-94000000D03*
X73500000Y-110100000D03*
%TO.N,Net-(C7-Pad1)*%
X114600000Y-70500000D03*
X97000000Y-67000000D03*
X99000000Y-67000000D03*
%TO.N,LOWSRC A*%
X116500000Y-41400000D03*
X111900000Y-56500000D03*
%TO.N,GATEL A*%
X74500000Y-92500000D03*
X110500000Y-58500000D03*
X110500000Y-65500000D03*
%TO.N,Net-(D6-K)*%
X156500000Y-114900000D03*
X75600000Y-108900000D03*
X162500000Y-81000000D03*
X162500000Y-83000000D03*
%TO.N,/BSTA*%
X109500000Y-95500000D03*
X160500000Y-94500000D03*
%TO.N,Net-(U1-LDEL)*%
X159500000Y-95000000D03*
X110600000Y-84500000D03*
%TO.N,Net-(U1-HDEL)*%
X158500000Y-95500000D03*
X113500000Y-88000000D03*
%TO.N,Net-(D4-K)*%
X178500000Y-88000000D03*
%TO.N,Net-(D5-K)*%
X179000000Y-105000000D03*
X74400000Y-110100000D03*
X150500000Y-77500000D03*
X74400000Y-100000000D03*
%TO.N,Net-(D3-K)*%
X126000000Y-84500000D03*
%TO.N,Net-(LED2--)*%
X101500000Y-77000000D03*
X109000000Y-83500000D03*
%TD*%
%TO.N,HIGHIN A*%
D25*
X163500000Y-84000000D02*
X167500000Y-88000000D01*
X167500000Y-88000000D02*
X177000000Y-88000000D01*
X177000000Y-88000000D02*
X180000000Y-91000000D01*
X177500000Y-115500000D02*
X159500000Y-115500000D01*
X154000000Y-114500000D02*
X156000000Y-112500000D01*
X145500000Y-114500000D02*
X154000000Y-114500000D01*
X156000000Y-112500000D02*
X156000000Y-110500000D01*
X163500000Y-66000000D02*
X163500000Y-84000000D01*
X180000000Y-91000000D02*
X180000000Y-113000000D01*
X156000000Y-112000000D02*
X156000000Y-110500000D01*
X180000000Y-113000000D02*
X177500000Y-115500000D01*
X159500000Y-115500000D02*
X156000000Y-112000000D01*
%TO.N,LOWIN A*%
X162000000Y-76500000D02*
X162500000Y-76000000D01*
X162000000Y-82651471D02*
X162000000Y-81348529D01*
X100500000Y-40500000D02*
X92500000Y-48500000D01*
X162000000Y-83348529D02*
X161900000Y-83248529D01*
X162500000Y-56500000D02*
X159500000Y-53500000D01*
X162500000Y-76000000D02*
X162500000Y-56500000D01*
X161900000Y-80751471D02*
X162000000Y-80651471D01*
X159500000Y-53500000D02*
X147500000Y-53500000D01*
X147500000Y-53500000D02*
X141500000Y-47500000D01*
X161900000Y-82751471D02*
X162000000Y-82651471D01*
X101500000Y-40500000D02*
X100500000Y-40500000D01*
X162000000Y-93900000D02*
X162000000Y-83348529D01*
X141500000Y-43000000D02*
X139000000Y-40500000D01*
X139000000Y-40500000D02*
X101500000Y-40500000D01*
X161900000Y-83248529D02*
X161900000Y-82751471D01*
X47000000Y-38750000D02*
X47000000Y-32000000D01*
X49500000Y-29500000D02*
X90500000Y-29500000D01*
X141500000Y-47500000D02*
X141500000Y-43000000D01*
X47000000Y-32000000D02*
X49500000Y-29500000D01*
X161900000Y-94000000D02*
X162000000Y-93900000D01*
X162000000Y-81348529D02*
X161900000Y-81248529D01*
X161900000Y-81248529D02*
X161900000Y-80751471D01*
X90500000Y-29500000D02*
X101500000Y-40500000D01*
X162000000Y-80651471D02*
X162000000Y-76500000D01*
%TO.N,HIGHIN B*%
X88000000Y-39000000D02*
X88000000Y-39100000D01*
X86500000Y-37500000D02*
X88000000Y-39000000D01*
X113500000Y-25600000D02*
X113400000Y-25500000D01*
X149000000Y-94000000D02*
X149000000Y-101500000D01*
X177500000Y-101000000D02*
X179000000Y-101000000D01*
X176500000Y-38500000D02*
X176325735Y-38325735D01*
X91500000Y-26900000D02*
X89500000Y-28900000D01*
X113400000Y-25500000D02*
X91500000Y-25500000D01*
X164000000Y-70000000D02*
X164300003Y-69699997D01*
X70100000Y-36900000D02*
X85900000Y-36900000D01*
X164300003Y-69699997D02*
X164300003Y-66000000D01*
X85900000Y-36900000D02*
X86500000Y-37500000D01*
X67500000Y-39500000D02*
X70100000Y-36900000D01*
X151500000Y-105000000D02*
X152500000Y-105000000D01*
X149000000Y-101500000D02*
X151000000Y-103500000D01*
X167500000Y-86500000D02*
X164000000Y-83000000D01*
X151000000Y-105500000D02*
X151500000Y-105000000D01*
X151000000Y-103500000D02*
X151000000Y-105500000D01*
X91500000Y-25500000D02*
X91500000Y-26900000D01*
X164000000Y-83000000D02*
X164000000Y-70000000D01*
X177000000Y-101500000D02*
X177500000Y-101000000D01*
X59500000Y-64000000D02*
X59500000Y-62500000D01*
X153500000Y-102000000D02*
X163500000Y-102000000D01*
X59000000Y-64500000D02*
X59500000Y-64000000D01*
X151000000Y-105500000D02*
X151000000Y-110500000D01*
X176500000Y-40000000D02*
X176500000Y-38500000D01*
X179500000Y-86500000D02*
X167500000Y-86500000D01*
%TO.N,LOWIN B*%
X105000000Y-115000000D02*
X144000000Y-115000000D01*
X104000000Y-114000000D02*
X105000000Y-115000000D01*
X104000000Y-106000000D02*
X104000000Y-114000000D01*
X144000000Y-115000000D02*
X148500000Y-110500000D01*
%TO.N,GND*%
X109900000Y-111500000D02*
X111450000Y-113050000D01*
X96500000Y-113000000D02*
X97500000Y-114000000D01*
X105400000Y-111500000D02*
X109900000Y-111500000D01*
X37000000Y-29400000D02*
X35500000Y-30900000D01*
X85500000Y-39000000D02*
X85500000Y-39100000D01*
X22500000Y-44500000D02*
X30500000Y-44500000D01*
X30500000Y-44500000D02*
X35500000Y-49500000D01*
X97500000Y-114000000D02*
X103000000Y-114000000D01*
X84000000Y-37500000D02*
X85500000Y-39000000D01*
X35500000Y-30900000D02*
X35500000Y-37500000D01*
%TO.N,HIGHSRC A*%
X120565686Y-85500000D02*
X126000000Y-85500000D01*
X82500000Y-57850000D02*
X63150000Y-57850000D01*
X108760050Y-80260050D02*
X110020100Y-79000000D01*
X63150000Y-57850000D02*
X33000000Y-88000000D01*
X110020100Y-79000000D02*
X114065685Y-79000000D01*
X114065685Y-79000000D02*
X120565686Y-85500000D01*
%TO.N,Net-(R16-Pad2)*%
X58500000Y-87250000D02*
X61500000Y-84250000D01*
X58500000Y-96500000D02*
X58500000Y-87250000D01*
%TO.N,HIGHSRC B*%
X96000000Y-107500000D02*
X97500000Y-106000000D01*
X135000000Y-41500000D02*
X131500000Y-41500000D01*
X97500000Y-106000000D02*
X101000000Y-106000000D01*
X125000000Y-48000000D02*
X125000000Y-51000000D01*
X103000000Y-104000000D02*
X116500000Y-104000000D01*
X74000000Y-57000000D02*
X63434314Y-57000000D01*
X63434314Y-57000000D02*
X48434314Y-72000000D01*
X37500000Y-72000000D02*
X40500000Y-75000000D01*
X116500000Y-104000000D02*
X124500000Y-96000000D01*
X40500000Y-75000000D02*
X40500000Y-78500000D01*
X72500000Y-110100000D02*
X72500000Y-108000000D01*
X101000000Y-106000000D02*
X103000000Y-104000000D01*
X76000000Y-107500000D02*
X96000000Y-107500000D01*
X37500000Y-72000000D02*
X33000000Y-72000000D01*
X131500000Y-41500000D02*
X125000000Y-48000000D01*
X48434314Y-72000000D02*
X37500000Y-72000000D01*
%TO.N,GATEH B*%
X99000000Y-58000000D02*
X98000000Y-59000000D01*
X98000000Y-59000000D02*
X98000000Y-74580000D01*
X106500000Y-54000000D02*
X110174265Y-50325735D01*
X102000000Y-58000000D02*
X99000000Y-58000000D01*
X106500000Y-56000000D02*
X106500000Y-54000000D01*
X98000000Y-74580000D02*
X89580000Y-83000000D01*
%TO.N,+12V*%
X90665786Y-85500000D02*
X88000000Y-85500000D01*
X100000000Y-103500000D02*
X100000000Y-94834214D01*
X100000000Y-94834214D02*
X90665786Y-85500000D01*
X105500000Y-46500000D02*
X105500000Y-45050000D01*
X107500000Y-48500000D02*
X105500000Y-46500000D01*
X87000000Y-82500000D02*
X91000000Y-78500000D01*
X148000000Y-53000000D02*
X160000000Y-53000000D01*
X105500000Y-54000000D02*
X107500000Y-52000000D01*
X114000000Y-56000000D02*
X114000000Y-54000000D01*
X144000000Y-49000000D02*
X148000000Y-53000000D01*
X114000000Y-71500000D02*
X113550000Y-71050000D01*
X105500000Y-54500000D02*
X105500000Y-54000000D01*
X87000000Y-84500000D02*
X87000000Y-82500000D01*
X160000000Y-53000000D02*
X170500000Y-63500000D01*
X88000000Y-85500000D02*
X87000000Y-84500000D01*
X107500000Y-52000000D02*
X107500000Y-48500000D01*
X113550000Y-71050000D02*
X109980000Y-71050000D01*
X91000000Y-78500000D02*
X91000000Y-76500000D01*
%TO.N,LOWSRC B*%
X148731669Y-71870639D02*
X148711030Y-71850000D01*
X131500000Y-66500000D02*
X137000000Y-61000000D01*
X110000000Y-66500000D02*
X131500000Y-66500000D01*
X109500000Y-66000000D02*
X110000000Y-66500000D01*
X148711030Y-71850000D02*
X146650000Y-71850000D01*
X104500000Y-53500000D02*
X104500000Y-55500000D01*
X109000000Y-58500000D02*
X109500000Y-59000000D01*
X109500000Y-59000000D02*
X109500000Y-66000000D01*
X104500000Y-55500000D02*
X107500000Y-58500000D01*
X107500000Y-58500000D02*
X109000000Y-58500000D01*
%TO.N,GATEL B*%
X78500000Y-79368628D02*
X76900000Y-80968628D01*
X78500000Y-69800000D02*
X78500000Y-79368628D01*
X66550000Y-86450000D02*
X66550000Y-90050000D01*
X72667108Y-80332892D02*
X66550000Y-86450000D01*
X76900000Y-80968628D02*
X76900000Y-82500000D01*
X102000000Y-65500000D02*
X102000000Y-74500000D01*
%TO.N,GATEH A*%
X108000000Y-81000000D02*
X108000000Y-80100000D01*
X102940735Y-88159265D02*
X106000000Y-85100000D01*
X108000000Y-80100000D02*
X109500000Y-78600000D01*
X97840735Y-88159265D02*
X102940735Y-88159265D01*
%TO.N,/BST B*%
X105000000Y-84500000D02*
X101500000Y-81000000D01*
X108600000Y-84500000D02*
X105000000Y-84500000D01*
%TO.N,EN*%
X167534314Y-105600000D02*
X179248529Y-105600000D01*
X179248529Y-105600000D02*
X179600000Y-105248529D01*
X179600000Y-105248529D02*
X179600000Y-103100000D01*
X179600000Y-103100000D02*
X179000000Y-102500000D01*
X73500000Y-76500000D02*
X65750000Y-68750000D01*
X158500000Y-110000000D02*
X158500000Y-110500000D01*
X73500000Y-110100000D02*
X73500000Y-76500000D01*
X150330000Y-94000000D02*
X150330000Y-101830000D01*
X150330000Y-101830000D02*
X158500000Y-110000000D01*
X65750000Y-68750000D02*
X61500000Y-68750000D01*
X164934314Y-103000000D02*
X167534314Y-105600000D01*
X161400000Y-103000000D02*
X164934314Y-103000000D01*
%TO.N,Net-(C7-Pad1)*%
X111100000Y-67000000D02*
X106500000Y-67000000D01*
X97000000Y-67000000D02*
X95750000Y-68250000D01*
X105000000Y-65500000D02*
X105000000Y-65000000D01*
X105000000Y-65000000D02*
X103000000Y-63000000D01*
X99000000Y-65000000D02*
X99000000Y-67000000D01*
X114600000Y-70500000D02*
X111100000Y-67000000D01*
X106500000Y-67000000D02*
X105000000Y-65500000D01*
X101000000Y-63000000D02*
X99000000Y-65000000D01*
X95750000Y-68250000D02*
X90090000Y-68250000D01*
X103000000Y-63000000D02*
X101000000Y-63000000D01*
%TO.N,LOWSRC A*%
X111900000Y-56500000D02*
X111900000Y-46000000D01*
X111900000Y-46000000D02*
X116500000Y-41400000D01*
%TO.N,GATEL A*%
X110500000Y-65500000D02*
X110500000Y-59434314D01*
X110500000Y-58500000D02*
X110500000Y-65500000D01*
X92400000Y-78231370D02*
X92400000Y-74834314D01*
X98400000Y-74745686D02*
X90580000Y-82565686D01*
X88331372Y-84700000D02*
X87800000Y-84168628D01*
X105100000Y-53748529D02*
X105100000Y-53251471D01*
X84834314Y-73600000D02*
X77500000Y-80934314D01*
X103500000Y-57348529D02*
X101348529Y-59500000D01*
X104748529Y-52900000D02*
X104100000Y-52900000D01*
X91165685Y-73600000D02*
X84834314Y-73600000D01*
X109165686Y-58100000D02*
X107665686Y-58100000D01*
X107665686Y-58100000D02*
X104900000Y-55334314D01*
X104900000Y-53948529D02*
X105100000Y-53748529D01*
X103500000Y-53500000D02*
X103500000Y-57348529D01*
X92400000Y-74834314D02*
X91165685Y-73600000D01*
X90580000Y-82565686D02*
X90580000Y-84120000D01*
X90580000Y-84120000D02*
X90000000Y-84700000D01*
X87800000Y-82831372D02*
X92400000Y-78231370D01*
X87800000Y-84168628D02*
X87800000Y-82831372D01*
X98400000Y-60600000D02*
X98400000Y-74745686D01*
X105100000Y-53251471D02*
X104748529Y-52900000D01*
X99500000Y-59500000D02*
X98400000Y-60600000D01*
X90000000Y-84700000D02*
X88331372Y-84700000D01*
X77500000Y-80934314D02*
X77500000Y-89500000D01*
X110500000Y-59434314D02*
X109165686Y-58100000D01*
X104100000Y-52900000D02*
X103500000Y-53500000D01*
X104900000Y-55334314D02*
X104900000Y-53948529D01*
X101348529Y-59500000D02*
X99500000Y-59500000D01*
X77500000Y-89500000D02*
X74500000Y-92500000D01*
%TO.N,Net-(D6-K)*%
X155800000Y-115600000D02*
X156500000Y-114900000D01*
X75600000Y-108900000D02*
X75600000Y-110534314D01*
X75600000Y-110534314D02*
X80665686Y-115600000D01*
X162500000Y-83000000D02*
X162500000Y-81000000D01*
X80665686Y-115600000D02*
X155800000Y-115600000D01*
%TO.N,/BSTA*%
X157500000Y-87000000D02*
X118000000Y-87000000D01*
X159500000Y-89000000D02*
X157500000Y-87000000D01*
X159500000Y-93500000D02*
X159500000Y-89000000D01*
X160500000Y-94500000D02*
X159500000Y-93500000D01*
X118000000Y-87000000D02*
X109500000Y-95500000D01*
%TO.N,Net-(U1-LDEL)*%
X158500000Y-90000000D02*
X156000000Y-87500000D01*
X109348529Y-96500000D02*
X108500000Y-96500000D01*
X158500000Y-94000000D02*
X158500000Y-90000000D01*
X159500000Y-95000000D02*
X158500000Y-94000000D01*
X108500000Y-86600000D02*
X110600000Y-84500000D01*
X156000000Y-87500000D02*
X118348529Y-87500000D01*
X108500000Y-96500000D02*
X108500000Y-86600000D01*
X118348529Y-87500000D02*
X109348529Y-96500000D01*
%TO.N,Net-(U1-HDEL)*%
X156400000Y-93400000D02*
X113014215Y-93400000D01*
X158500000Y-95500000D02*
X156400000Y-93400000D01*
X108000000Y-86000000D02*
X110500000Y-83500000D01*
X113014215Y-93400000D02*
X109514215Y-96900000D01*
X108334315Y-96900000D02*
X108000000Y-96565685D01*
X115500000Y-81000000D02*
X117000000Y-82500000D01*
X110500000Y-82500000D02*
X112000000Y-81000000D01*
X117000000Y-82500000D02*
X117000000Y-87000000D01*
X109514215Y-96900000D02*
X108334315Y-96900000D01*
X116000000Y-88000000D02*
X113500000Y-88000000D01*
X112000000Y-81000000D02*
X115500000Y-81000000D01*
X117000000Y-87000000D02*
X116000000Y-88000000D01*
X110500000Y-83500000D02*
X110500000Y-82500000D01*
X108000000Y-96565685D02*
X108000000Y-86000000D01*
%TO.N,Net-(D4-K)*%
X180500000Y-113065685D02*
X177565685Y-116000000D01*
X75000000Y-110500000D02*
X75000000Y-92920000D01*
X178500000Y-88000000D02*
X180500000Y-90000000D01*
X75000000Y-92920000D02*
X79420000Y-88500000D01*
X177565685Y-116000000D02*
X80500000Y-116000000D01*
X180500000Y-90000000D02*
X180500000Y-113065685D01*
X80500000Y-116000000D02*
X75000000Y-110500000D01*
%TO.N,Net-(D5-K)*%
X167500000Y-105000000D02*
X179000000Y-105000000D01*
X161300000Y-79200000D02*
X161300000Y-98800000D01*
X74400000Y-110100000D02*
X74500000Y-110000000D01*
X74500000Y-100100000D02*
X74400000Y-100000000D01*
X161500000Y-79000000D02*
X161300000Y-79200000D01*
X74500000Y-110000000D02*
X74500000Y-100100000D01*
X160000000Y-77500000D02*
X161500000Y-79000000D01*
X150500000Y-77500000D02*
X160000000Y-77500000D01*
X161300000Y-98800000D02*
X167500000Y-105000000D01*
%TO.N,Net-(D3-K)*%
X121000000Y-84500000D02*
X114500000Y-78000000D01*
X88165686Y-85100000D02*
X87400000Y-84334314D01*
X87400000Y-82665686D02*
X92000000Y-78065685D01*
X92000000Y-78065685D02*
X92000000Y-75000000D01*
X95500000Y-83500000D02*
X93900000Y-85100000D01*
X93900000Y-85100000D02*
X88165686Y-85100000D01*
X92000000Y-75000000D02*
X91000000Y-74000000D01*
X85000000Y-74000000D02*
X79420000Y-79580000D01*
X114500000Y-78000000D02*
X105000000Y-78000000D01*
X95500000Y-78494214D02*
X95500000Y-83500000D01*
X87400000Y-84334314D02*
X87400000Y-82665686D01*
X103000000Y-76000000D02*
X97994214Y-76000000D01*
X97994214Y-76000000D02*
X95500000Y-78494214D01*
X79420000Y-79580000D02*
X79420000Y-83000000D01*
X105000000Y-78000000D02*
X103000000Y-76000000D01*
X91000000Y-74000000D02*
X85000000Y-74000000D01*
X126000000Y-84500000D02*
X121000000Y-84500000D01*
%TO.N,Net-(LED2--)*%
X102500000Y-77000000D02*
X101500000Y-77000000D01*
X109000000Y-83500000D02*
X102500000Y-77000000D01*
%TD*%
M02*
