%TF.GenerationSoftware,KiCad,Pcbnew,10.0.3*%
%TF.CreationDate,2026-06-14T15:58:53-05:00*%
%TF.ProjectId,Lathe PCB,4c617468-6520-4504-9342-2e6b69636164,rev?*%
%TF.SameCoordinates,Original*%
%TF.FileFunction,Copper,L1,Top*%
%TF.FilePolarity,Positive*%
%FSLAX46Y46*%
G04 Gerber Fmt 4.6, Leading zero omitted, Abs format (unit mm)*
G04 Created by KiCad (PCBNEW 10.0.3) date 2026-06-14 15:58:53*
%MOMM*%
%LPD*%
G01*
G04 APERTURE LIST*
G04 Aperture macros list*
%AMRoundRect*
0 Rectangle with rounded corners*
0 $1 Rounding radius*
0 $2 $3 $4 $5 $6 $7 $8 $9 X,Y pos of 4 corners*
0 Add a 4 corners polygon primitive as box body*
4,1,4,$2,$3,$4,$5,$6,$7,$8,$9,$2,$3,0*
0 Add four circle primitives for the rounded corners*
1,1,$1+$1,$2,$3*
1,1,$1+$1,$4,$5*
1,1,$1+$1,$6,$7*
1,1,$1+$1,$8,$9*
0 Add four rect primitives between the rounded corners*
20,1,$1+$1,$2,$3,$4,$5,0*
20,1,$1+$1,$4,$5,$6,$7,0*
20,1,$1+$1,$6,$7,$8,$9,0*
20,1,$1+$1,$8,$9,$2,$3,0*%
G04 Aperture macros list end*
%TA.AperFunction,SMDPad,CuDef*%
%ADD10R,1.700000X0.400000*%
%TD*%
%TA.AperFunction,SMDPad,CuDef*%
%ADD11R,3.000000X3.000000*%
%TD*%
%TA.AperFunction,ComponentPad*%
%ADD12O,1.700000X2.000000*%
%TD*%
%TA.AperFunction,ComponentPad*%
%ADD13O,1.700000X1.900000*%
%TD*%
%TA.AperFunction,SMDPad,CuDef*%
%ADD14R,1.728000X1.485000*%
%TD*%
%TA.AperFunction,SMDPad,CuDef*%
%ADD15R,0.450000X1.000000*%
%TD*%
%TA.AperFunction,SMDPad,CuDef*%
%ADD16R,2.500000X1.800000*%
%TD*%
%TA.AperFunction,SMDPad,CuDef*%
%ADD17R,2.470000X0.980000*%
%TD*%
%TA.AperFunction,SMDPad,CuDef*%
%ADD18R,2.470000X3.600000*%
%TD*%
%TA.AperFunction,ComponentPad*%
%ADD19C,0.800000*%
%TD*%
%TA.AperFunction,ComponentPad*%
%ADD20C,6.400000*%
%TD*%
%TA.AperFunction,ComponentPad*%
%ADD21C,1.300000*%
%TD*%
%TA.AperFunction,SMDPad,CuDef*%
%ADD22RoundRect,0.225000X-0.225000X-0.375000X0.225000X-0.375000X0.225000X0.375000X-0.225000X0.375000X0*%
%TD*%
%TA.AperFunction,ComponentPad*%
%ADD23C,1.524000*%
%TD*%
%TA.AperFunction,ComponentPad*%
%ADD24R,1.800000X1.800000*%
%TD*%
%TA.AperFunction,ComponentPad*%
%ADD25C,1.800000*%
%TD*%
%TA.AperFunction,SMDPad,CuDef*%
%ADD26R,1.485000X1.728000*%
%TD*%
%TA.AperFunction,SMDPad,CuDef*%
%ADD27RoundRect,0.250000X-1.000000X-0.650000X1.000000X-0.650000X1.000000X0.650000X-1.000000X0.650000X0*%
%TD*%
%TA.AperFunction,ComponentPad*%
%ADD28C,1.600000*%
%TD*%
%TA.AperFunction,ComponentPad*%
%ADD29R,4.000000X8.000000*%
%TD*%
%TA.AperFunction,ComponentPad*%
%ADD30O,4.000000X8.000000*%
%TD*%
%TA.AperFunction,SMDPad,CuDef*%
%ADD31R,1.230000X1.860000*%
%TD*%
%TA.AperFunction,SMDPad,CuDef*%
%ADD32R,0.800000X0.900000*%
%TD*%
%TA.AperFunction,ComponentPad*%
%ADD33C,1.400000*%
%TD*%
%TA.AperFunction,ComponentPad*%
%ADD34O,1.400000X1.400000*%
%TD*%
%TA.AperFunction,SMDPad,CuDef*%
%ADD35RoundRect,0.250000X0.350000X0.450000X-0.350000X0.450000X-0.350000X-0.450000X0.350000X-0.450000X0*%
%TD*%
%TA.AperFunction,SMDPad,CuDef*%
%ADD36R,3.500000X5.100000*%
%TD*%
%TA.AperFunction,SMDPad,CuDef*%
%ADD37O,0.595000X2.360000*%
%TD*%
%TA.AperFunction,SMDPad,CuDef*%
%ADD38RoundRect,0.250000X0.650000X-1.000000X0.650000X1.000000X-0.650000X1.000000X-0.650000X-1.000000X0*%
%TD*%
%TA.AperFunction,SMDPad,CuDef*%
%ADD39RoundRect,0.250000X-0.350000X-0.450000X0.350000X-0.450000X0.350000X0.450000X-0.350000X0.450000X0*%
%TD*%
%TA.AperFunction,ComponentPad*%
%ADD40C,1.550000*%
%TD*%
%TA.AperFunction,SMDPad,CuDef*%
%ADD41RoundRect,0.250000X-0.650000X1.000000X-0.650000X-1.000000X0.650000X-1.000000X0.650000X1.000000X0*%
%TD*%
%TA.AperFunction,ViaPad*%
%ADD42C,0.600000*%
%TD*%
%TA.AperFunction,Conductor*%
%ADD43C,0.200000*%
%TD*%
%TA.AperFunction,Conductor*%
%ADD44C,2.000000*%
%TD*%
%TA.AperFunction,Conductor*%
%ADD45C,0.600000*%
%TD*%
G04 APERTURE END LIST*
D10*
%TO.P,U3,1,1A_1*%
%TO.N,HIGHIN A*%
X89250000Y-49250000D03*
%TO.P,U3,2,1Y_2*%
%TO.N,LOWIN A*%
X89250000Y-48600000D03*
%TO.P,U3,3,2A_3*%
%TO.N,HIGHIN B*%
X89250000Y-47950000D03*
%TO.P,U3,4,2Y_4*%
%TO.N,LOWIN B*%
X89250000Y-47300000D03*
%TO.P,U3,5,3A_5*%
%TO.N,unconnected-(U3-3A-Pad5)*%
X89250000Y-46650000D03*
%TO.P,U3,6,3Y_6*%
%TO.N,unconnected-(U3-3Y-Pad6)*%
X89250000Y-46000000D03*
%TO.P,U3,7,GND_7*%
%TO.N,GND*%
X89250000Y-45350000D03*
%TO.P,U3,8,4Y_8*%
%TO.N,unconnected-(U3-4Y-Pad8)*%
X83650000Y-45350000D03*
%TO.P,U3,9,4A_9*%
%TO.N,unconnected-(U3-4A-Pad9)*%
X83650000Y-46000000D03*
%TO.P,U3,10,5Y_10*%
%TO.N,unconnected-(U3-5Y-Pad10)*%
X83650000Y-46650000D03*
%TO.P,U3,11,5A_11*%
%TO.N,unconnected-(U3-5A-Pad11)*%
X83650000Y-47300000D03*
%TO.P,U3,12,6Y_12*%
%TO.N,unconnected-(U3-6Y-Pad12)*%
X83650000Y-47950000D03*
%TO.P,U3,13,6A_13*%
%TO.N,unconnected-(U3-6A-Pad13)*%
X83650000Y-48600000D03*
%TO.P,U3,14,VCC_14*%
%TO.N,+3.3V*%
X83650000Y-49250000D03*
%TD*%
D11*
%TO.P,TP1,1,1_1*%
%TO.N,HIGHSRC A*%
X119500000Y-31500000D03*
%TD*%
D12*
%TO.P,SW1,0,0_0*%
%TO.N,unconnected-(SW1-Pad0)*%
X40000000Y-107000000D03*
%TO.N,unconnected-(SW1-Pad0)_3*%
X40000000Y-112000000D03*
%TO.N,unconnected-(SW1-Pad0)_2*%
X54000000Y-107000000D03*
%TO.N,unconnected-(SW1-Pad0)_1*%
X54000000Y-112000000D03*
D13*
%TO.P,SW1,1,1_1*%
%TO.N,GND*%
X44000000Y-109500000D03*
%TO.P,SW1,2,2_2*%
%TO.N,Net-(R16-Pad2)*%
X47000000Y-109500000D03*
%TO.P,SW1,3,3_3*%
%TO.N,+3.3V*%
X50000000Y-109500000D03*
%TD*%
D14*
%TO.P,C10,1,1_1*%
%TO.N,GND*%
X86500000Y-27820000D03*
%TO.P,C10,2,2_2*%
%TO.N,HIGHIN B*%
X86500000Y-31000000D03*
%TD*%
D11*
%TO.P,TP4,1,1_1*%
%TO.N,GND*%
X110500000Y-110065000D03*
%TD*%
D15*
%TO.P,Q2,1,S_1*%
%TO.N,HIGHSRC B*%
X108340000Y-47000000D03*
%TO.P,Q2,2,S_2*%
%TO.N,unconnected-(Q2-S-Pad2)*%
X109000000Y-47000000D03*
%TO.P,Q2,3,S_3*%
%TO.N,unconnected-(Q2-S-Pad3)*%
X109650000Y-47000000D03*
%TO.P,Q2,4,G_4*%
%TO.N,GATEH B*%
X110300000Y-47000000D03*
%TO.P,Q2,5,D_5*%
%TO.N,+12V*%
X108340000Y-44000000D03*
X109000000Y-44000000D03*
D16*
X109320000Y-45050000D03*
D15*
X109650000Y-44000000D03*
X110300000Y-44000000D03*
%TD*%
D17*
%TO.P,U2,1,GND_1*%
%TO.N,GND*%
X88330000Y-77800000D03*
%TO.P,U2,2,VOUT_2*%
%TO.N,Net-(U2-VOUT-Pad2)*%
X88330000Y-75500000D03*
%TO.P,U2,3,VIN_3*%
%TO.N,+12V*%
X88330000Y-73200000D03*
D18*
%TO.P,U2,4,VOUT_4*%
%TO.N,Net-(U2-VOUT-Pad2)*%
X82670000Y-75500000D03*
%TD*%
D15*
%TO.P,Q8,1,S_1*%
%TO.N,LOWSRC B*%
X100020000Y-64450000D03*
%TO.P,Q8,2,S_2*%
%TO.N,unconnected-(Q8-S-Pad2)*%
X100680000Y-64450000D03*
%TO.P,Q8,3,S_3*%
%TO.N,unconnected-(Q8-S-Pad3)*%
X101330000Y-64450000D03*
%TO.P,Q8,4,G_4*%
%TO.N,GATEL B*%
X101980000Y-64450000D03*
%TO.P,Q8,5,D_5*%
%TO.N,HIGHSRC B*%
X100020000Y-61450000D03*
X100680000Y-61450000D03*
D16*
X101000000Y-62500000D03*
D15*
X101330000Y-61450000D03*
X101980000Y-61450000D03*
%TD*%
D19*
%TO.P,REF\u002A\u002A,1*%
%TO.N,N/C*%
X169500000Y-95000000D03*
X170202944Y-93302944D03*
X170202944Y-96697056D03*
X171900000Y-92600000D03*
D20*
X171900000Y-95000000D03*
D19*
X171900000Y-97400000D03*
X173597056Y-93302944D03*
X173597056Y-96697056D03*
X174300000Y-95000000D03*
%TD*%
D15*
%TO.P,Q1,1,S_1*%
%TO.N,HIGHSRC A*%
X99690000Y-47000000D03*
%TO.P,Q1,2,S_2*%
%TO.N,unconnected-(Q1-S-Pad2)*%
X100350000Y-47000000D03*
%TO.P,Q1,3,S_3*%
%TO.N,unconnected-(Q1-S-Pad3)*%
X101000000Y-47000000D03*
%TO.P,Q1,4,G_4*%
%TO.N,GATEH A*%
X101650000Y-47000000D03*
%TO.P,Q1,5,D_5*%
%TO.N,+12V*%
X99690000Y-44000000D03*
X100350000Y-44000000D03*
D16*
X100670000Y-45050000D03*
D15*
X101000000Y-44000000D03*
X101650000Y-44000000D03*
%TD*%
D21*
%TO.P,R8,1,1_1*%
%TO.N,Net-(LED1-Pad2)*%
X134800000Y-96000000D03*
%TO.P,R8,2,2_2*%
%TO.N,HIGHSRC B*%
X124500000Y-96000000D03*
%TD*%
D22*
%TO.P,D2,1,K_1*%
%TO.N,/BST B*%
X98000000Y-98000000D03*
%TO.P,D2,2,A_2*%
%TO.N,+12V*%
X101300000Y-98000000D03*
%TD*%
D23*
%TO.P,LED1,1,1_1*%
%TO.N,HIGHSRC A*%
X134730000Y-109500000D03*
%TO.P,LED1,2,2_2*%
%TO.N,Net-(LED1-Pad2)*%
X137270000Y-109500000D03*
%TD*%
%TO.P,R16,1,1_1*%
%TO.N,EN*%
X61500000Y-68750000D03*
%TO.P,R16,2,2_2*%
%TO.N,Net-(R16-Pad2)*%
X61500000Y-84250000D03*
%TD*%
D24*
%TO.P,U7,1,1_1*%
%TO.N,EN*%
X158500000Y-110500000D03*
D25*
%TO.P,U7,2,2_2*%
%TO.N,HIGHIN A*%
X156000000Y-110500000D03*
%TO.P,U7,3,3_3*%
%TO.N,LOWIN A*%
X153500000Y-110500000D03*
%TO.P,U7,4,4_4*%
%TO.N,HIGHIN B*%
X151000000Y-110500000D03*
%TO.P,U7,5,5_5*%
%TO.N,LOWIN B*%
X148500000Y-110500000D03*
%TO.P,U7,6,6_6*%
%TO.N,GND*%
X146000000Y-110500000D03*
%TD*%
D26*
%TO.P,C7,1,1_1*%
%TO.N,Net-(C7-Pad1)*%
X116915000Y-74515000D03*
%TO.P,C7,2,2_2*%
%TO.N,HIGHSRC B*%
X120095000Y-74515000D03*
%TD*%
D11*
%TO.P,TP2,1,1_1*%
%TO.N,HIGHSRC B*%
X126000000Y-31500000D03*
%TD*%
D23*
%TO.P,R19,1,1_1*%
%TO.N,HIGHIN B*%
X68750000Y-55500000D03*
%TO.P,R19,2,2_2*%
%TO.N,+3.3V*%
X53250000Y-55500000D03*
%TD*%
%TO.P,R18,1,1_1*%
%TO.N,+3.3V*%
X53000000Y-45000000D03*
%TO.P,R18,2,2_2*%
%TO.N,LOWIN B*%
X68500000Y-45000000D03*
%TD*%
D27*
%TO.P,D7,1,K_1*%
%TO.N,+12V*%
X120500000Y-45000000D03*
%TO.P,D7,2,A_2*%
%TO.N,HIGHSRC A*%
X124500000Y-45000000D03*
%TD*%
D28*
%TO.P,R9,1,1_1*%
%TO.N,HIGHSRC A*%
X90090000Y-57750000D03*
%TO.P,R9,2,2_2*%
%TO.N,Net-(C7-Pad1)*%
X90090000Y-68250000D03*
%TD*%
D29*
%TO.P,U4,1,1_1*%
%TO.N,HIGHSRC A*%
X24000000Y-88000000D03*
X33000000Y-88000000D03*
D30*
%TO.P,U4,2,2_2*%
%TO.N,HIGHSRC B*%
X24000000Y-72000000D03*
X33000000Y-72000000D03*
%TD*%
D26*
%TO.P,C3,1,1_1*%
%TO.N,GND*%
X51320000Y-66000000D03*
%TO.P,C3,2,2_2*%
%TO.N,+12V*%
X54500000Y-66000000D03*
%TD*%
D31*
%TO.P,SW3,1,1_1*%
%TO.N,HIGHIN B*%
X66320000Y-109500000D03*
%TO.P,SW3,2,2_2*%
%TO.N,GND*%
X70680000Y-109500000D03*
%TD*%
D23*
%TO.P,R14,1,1_1*%
%TO.N,HIGHIN A*%
X74500000Y-54000000D03*
%TO.P,R14,2,2_2*%
%TO.N,+3.3V*%
X74500000Y-38500000D03*
%TD*%
D15*
%TO.P,Q7,1,S_1*%
%TO.N,LOWSRC A*%
X108520000Y-56450000D03*
%TO.P,Q7,2,S_2*%
%TO.N,unconnected-(Q7-S-Pad2)*%
X109180000Y-56450000D03*
%TO.P,Q7,3,S_3*%
%TO.N,unconnected-(Q7-S-Pad3)*%
X109830000Y-56450000D03*
%TO.P,Q7,4,G_4*%
%TO.N,GATEL A*%
X110480000Y-56450000D03*
%TO.P,Q7,5,D_5*%
%TO.N,HIGHSRC A*%
X108520000Y-53450000D03*
X109180000Y-53450000D03*
D16*
X109500000Y-54500000D03*
D15*
X109830000Y-53450000D03*
X110480000Y-53450000D03*
%TD*%
D31*
%TO.P,SW2,1,1_1*%
%TO.N,GND*%
X80640000Y-109500000D03*
%TO.P,SW2,2,2_2*%
%TO.N,HIGHIN A*%
X85000000Y-109500000D03*
%TD*%
D32*
%TO.P,C11,1,1_1*%
%TO.N,+12V*%
X100000000Y-90500000D03*
%TO.P,C11,2,2_2*%
%TO.N,GND*%
X98600000Y-90500000D03*
%TD*%
D33*
%TO.P,R5,1*%
%TO.N,Net-(D6-K)*%
X79840000Y-94000000D03*
D34*
%TO.P,R5,2*%
%TO.N,GATEL A*%
X90000000Y-94000000D03*
%TD*%
D23*
%TO.P,R15,1,1_1*%
%TO.N,+3.3V*%
X47000000Y-54250000D03*
%TO.P,R15,2,2_2*%
%TO.N,LOWIN A*%
X47000000Y-38750000D03*
%TD*%
D22*
%TO.P,D1,1,K_1*%
%TO.N,/BSTA*%
X109500000Y-98000000D03*
%TO.P,D1,2,A_2*%
%TO.N,+12V*%
X112800000Y-98000000D03*
%TD*%
D35*
%TO.P,R1,1*%
%TO.N,GND*%
X115000000Y-83500000D03*
%TO.P,R1,2*%
%TO.N,Net-(U1-LDEL)*%
X113000000Y-83500000D03*
%TD*%
D23*
%TO.P,LED3,1,1_1*%
%TO.N,Net-(LED3-Pad1)*%
X27230000Y-109500000D03*
%TO.P,LED3,2,2_2*%
%TO.N,GND*%
X29770000Y-109500000D03*
%TD*%
D36*
%TO.P,R13,1,1_1*%
%TO.N,LOWSRC B*%
X151990000Y-67770000D03*
%TO.P,R13,2,2_2*%
%TO.N,GND*%
X156110000Y-67770000D03*
%TD*%
D37*
%TO.P,U1,1,BHB_1*%
%TO.N,/BST B*%
X147780000Y-89730000D03*
%TO.P,U1,2,BHI_2*%
%TO.N,HIGHIN B*%
X149050000Y-89730000D03*
%TO.P,U1,3,DIS_3*%
%TO.N,EN*%
X150330000Y-89730000D03*
%TO.P,U1,4,VSS_4*%
%TO.N,GND*%
X151600000Y-89730000D03*
%TO.P,U1,5,BLI_5*%
%TO.N,LOWIN B*%
X152870000Y-89730000D03*
%TO.P,U1,6,ALI_6*%
%TO.N,LOWIN A*%
X154130000Y-89730000D03*
%TO.P,U1,7,AHI_7*%
%TO.N,HIGHIN A*%
X155400000Y-89730000D03*
%TO.P,U1,8,HDEL_8*%
%TO.N,Net-(U1-HDEL)*%
X156670000Y-89730000D03*
%TO.P,U1,9,LDEL_9*%
%TO.N,Net-(U1-LDEL)*%
X157950000Y-89730000D03*
%TO.P,U1,10,AHB_10*%
%TO.N,/BSTA*%
X159220000Y-89730000D03*
%TO.P,U1,11,AHO_11*%
%TO.N,Net-(D4-K)*%
X159220000Y-80270000D03*
%TO.P,U1,12,AHS_12*%
%TO.N,HIGHSRC A*%
X157950000Y-80270000D03*
%TO.P,U1,13,ALO_13*%
%TO.N,Net-(D6-K)*%
X156670000Y-80270000D03*
%TO.P,U1,14,ALS_14*%
%TO.N,LOWSRC A*%
X155400000Y-80270000D03*
%TO.P,U1,15,VCC_15*%
%TO.N,+12V*%
X154130000Y-80270000D03*
%TO.P,U1,16,VDD_16*%
X152870000Y-80270000D03*
%TO.P,U1,17,BLS_17*%
%TO.N,LOWSRC B*%
X151600000Y-80270000D03*
%TO.P,U1,18,BLO_18*%
%TO.N,Net-(D5-K)*%
X150330000Y-80270000D03*
%TO.P,U1,19,BHS_19*%
%TO.N,HIGHSRC B*%
X149050000Y-80270000D03*
%TO.P,U1,20,BHO_20*%
%TO.N,Net-(D3-K)*%
X147780000Y-80270000D03*
%TD*%
D15*
%TO.P,Q3,1,S_1*%
%TO.N,LOWSRC A*%
X108520000Y-63950000D03*
%TO.P,Q3,2,S_2*%
%TO.N,unconnected-(Q3-S-Pad2)*%
X109180000Y-63950000D03*
%TO.P,Q3,3,S_3*%
%TO.N,unconnected-(Q3-S-Pad3)*%
X109830000Y-63950000D03*
%TO.P,Q3,4,G_4*%
%TO.N,GATEL A*%
X110480000Y-63950000D03*
%TO.P,Q3,5,D_5*%
%TO.N,HIGHSRC A*%
X108520000Y-60950000D03*
X109180000Y-60950000D03*
D16*
X109500000Y-62000000D03*
D15*
X109830000Y-60950000D03*
X110480000Y-60950000D03*
%TD*%
%TO.P,Q5,1,S_1*%
%TO.N,HIGHSRC A*%
X109000000Y-73000000D03*
%TO.P,Q5,2,S_2*%
%TO.N,unconnected-(Q5-S-Pad2)*%
X109660000Y-73000000D03*
%TO.P,Q5,3,S_3*%
%TO.N,unconnected-(Q5-S-Pad3)*%
X110310000Y-73000000D03*
%TO.P,Q5,4,G_4*%
%TO.N,GATEH A*%
X110960000Y-73000000D03*
%TO.P,Q5,5,D_5*%
%TO.N,+12V*%
X109000000Y-70000000D03*
X109660000Y-70000000D03*
D16*
X109980000Y-71050000D03*
D15*
X110310000Y-70000000D03*
X110960000Y-70000000D03*
%TD*%
D27*
%TO.P,D8,1,K_1*%
%TO.N,+12V*%
X120500000Y-54000000D03*
%TO.P,D8,2,A_2*%
%TO.N,HIGHSRC B*%
X124500000Y-54000000D03*
%TD*%
D14*
%TO.P,C9,1,1_1*%
%TO.N,HIGHIN A*%
X106000000Y-31000000D03*
%TO.P,C9,2,2_2*%
%TO.N,GND*%
X106000000Y-27820000D03*
%TD*%
D27*
%TO.P,D9,1,K_1*%
%TO.N,HIGHSRC A*%
X133000000Y-45000000D03*
%TO.P,D9,2,A_2*%
%TO.N,LOWSRC A*%
X137000000Y-45000000D03*
%TD*%
D32*
%TO.P,C1,1,1_1*%
%TO.N,HIGHSRC A*%
X99000000Y-84500000D03*
%TO.P,C1,2,2_2*%
%TO.N,/BSTA*%
X100400000Y-84500000D03*
%TD*%
D15*
%TO.P,Q4,1,S_1*%
%TO.N,LOWSRC B*%
X99840000Y-73000000D03*
%TO.P,Q4,2,S_2*%
%TO.N,unconnected-(Q4-S-Pad2)*%
X100500000Y-73000000D03*
%TO.P,Q4,3,S_3*%
%TO.N,unconnected-(Q4-S-Pad3)*%
X101150000Y-73000000D03*
%TO.P,Q4,4,G_4*%
%TO.N,GATEL B*%
X101800000Y-73000000D03*
%TO.P,Q4,5,D_5*%
%TO.N,HIGHSRC B*%
X99840000Y-70000000D03*
X100500000Y-70000000D03*
D16*
X100820000Y-71050000D03*
D15*
X101150000Y-70000000D03*
X101800000Y-70000000D03*
%TD*%
D27*
%TO.P,D10,1,K_1*%
%TO.N,HIGHSRC B*%
X133000000Y-54000000D03*
%TO.P,D10,2,A_2*%
%TO.N,LOWSRC B*%
X137000000Y-54000000D03*
%TD*%
D28*
%TO.P,C13,1,1_1*%
%TO.N,+12V*%
X30500000Y-37500000D03*
%TO.P,C13,2,2_2*%
%TO.N,GND*%
X35500000Y-37500000D03*
%TD*%
D36*
%TO.P,R12,1,1_1*%
%TO.N,GND*%
X156000000Y-49000000D03*
%TO.P,R12,2,2_2*%
%TO.N,LOWSRC A*%
X151880000Y-49000000D03*
%TD*%
D38*
%TO.P,D4,1,K_1*%
%TO.N,Net-(D4-K)*%
X69500000Y-79000000D03*
%TO.P,D4,2,A_2*%
%TO.N,GATEH A*%
X69500000Y-75000000D03*
%TD*%
D28*
%TO.P,LED2,1,-_1*%
%TO.N,Net-(LED2--)*%
X126960000Y-109500000D03*
%TO.P,LED2,2,+_2*%
%TO.N,HIGHSRC B*%
X129500000Y-109500000D03*
%TD*%
D26*
%TO.P,C4,1,1_1*%
%TO.N,GND*%
X51410000Y-72840000D03*
%TO.P,C4,2,2_2*%
%TO.N,+12V*%
X54590000Y-72840000D03*
%TD*%
D32*
%TO.P,C2,1,1_1*%
%TO.N,HIGHSRC B*%
X101000000Y-79000000D03*
%TO.P,C2,2,2_2*%
%TO.N,/BST B*%
X99600000Y-79000000D03*
%TD*%
D26*
%TO.P,C5,1,1_1*%
%TO.N,+12V*%
X54590000Y-79000000D03*
%TO.P,C5,2,2_2*%
%TO.N,GND*%
X51410000Y-79000000D03*
%TD*%
D28*
%TO.P,C12,1,1_1*%
%TO.N,+12V*%
X30500000Y-49500000D03*
%TO.P,C12,2,2_2*%
%TO.N,GND*%
X35500000Y-49500000D03*
%TD*%
D33*
%TO.P,R3,1*%
%TO.N,Net-(D3-K)*%
X79420000Y-83000000D03*
D34*
%TO.P,R3,2*%
%TO.N,GATEH B*%
X89580000Y-83000000D03*
%TD*%
D14*
%TO.P,C8,1,1_1*%
%TO.N,+3.3V*%
X96500000Y-31000000D03*
%TO.P,C8,2,2_2*%
%TO.N,GND*%
X96500000Y-27820000D03*
%TD*%
D29*
%TO.P,U5,1,1_1*%
%TO.N,GND*%
X170500000Y-79500000D03*
X179500000Y-79500000D03*
D30*
%TO.P,U5,2,2_2*%
%TO.N,+12V*%
X170500000Y-63500000D03*
X179500000Y-63500000D03*
%TD*%
D36*
%TO.P,R11,1,1_1*%
%TO.N,GND*%
X155620000Y-57500000D03*
%TO.P,R11,2,2_2*%
%TO.N,LOWSRC B*%
X151500000Y-57500000D03*
%TD*%
D33*
%TO.P,R6,1*%
%TO.N,GATEL B*%
X79500000Y-98500000D03*
D34*
%TO.P,R6,2*%
%TO.N,Net-(D5-K)*%
X89660000Y-98500000D03*
%TD*%
D39*
%TO.P,R2,1*%
%TO.N,Net-(U1-HDEL)*%
X113000000Y-89500000D03*
%TO.P,R2,2*%
%TO.N,GND*%
X115000000Y-89500000D03*
%TD*%
D19*
%TO.P,REF\u002A\u002A,1*%
%TO.N,N/C*%
X32100000Y-112500000D03*
X32802944Y-110802944D03*
X32802944Y-114197056D03*
X34500000Y-110100000D03*
D20*
X34500000Y-112500000D03*
D19*
X34500000Y-114900000D03*
X36197056Y-110802944D03*
X36197056Y-114197056D03*
X36900000Y-112500000D03*
%TD*%
D38*
%TO.P,D3,1,K_1*%
%TO.N,Net-(D3-K)*%
X69500000Y-70500000D03*
%TO.P,D3,2,A_2*%
%TO.N,GATEH B*%
X69500000Y-66500000D03*
%TD*%
D11*
%TO.P,TP3,1,1_1*%
%TO.N,+12V*%
X101500000Y-110000000D03*
%TD*%
D40*
%TO.P,U6,1,1_1*%
%TO.N,/H-Bridge/Power/LOWSRC B*%
X166000000Y-109500000D03*
%TO.P,U6,2,2_2*%
%TO.N,GND*%
X168500000Y-109500000D03*
%TO.P,U6,3,3_3*%
%TO.N,/H-Bridge/Power/LOWSRC A*%
X171000000Y-109500000D03*
%TD*%
D21*
%TO.P,R7,1,1_1*%
%TO.N,HIGHSRC A*%
X82500000Y-57850000D03*
%TO.P,R7,2,2_2*%
%TO.N,Net-(LED2--)*%
X82500000Y-68150000D03*
%TD*%
D38*
%TO.P,D6,1,K_1*%
%TO.N,Net-(D6-K)*%
X69500000Y-96500000D03*
%TO.P,D6,2,A_2*%
%TO.N,GATEL A*%
X69500000Y-92500000D03*
%TD*%
D41*
%TO.P,D5,1,K_1*%
%TO.N,Net-(D5-K)*%
X69500000Y-84000000D03*
%TO.P,D5,2,A_2*%
%TO.N,GATEL B*%
X69500000Y-88000000D03*
%TD*%
D26*
%TO.P,C6,1,1_1*%
%TO.N,+12V*%
X54590000Y-85000000D03*
%TO.P,C6,2,2_2*%
%TO.N,GND*%
X51410000Y-85000000D03*
%TD*%
D33*
%TO.P,R4,1*%
%TO.N,Net-(D4-K)*%
X79420000Y-88500000D03*
D34*
%TO.P,R4,2*%
%TO.N,GATEH A*%
X89580000Y-88500000D03*
%TD*%
D23*
%TO.P,R17,1,1_1*%
%TO.N,Net-(R16-Pad2)*%
X58500000Y-96500000D03*
%TO.P,R17,2,2_2*%
%TO.N,Net-(LED3-Pad1)*%
X45500000Y-96500000D03*
%TD*%
D36*
%TO.P,R10,1,1_1*%
%TO.N,LOWSRC A*%
X151930000Y-37770000D03*
%TO.P,R10,2,2_2*%
%TO.N,GND*%
X156050000Y-37770000D03*
%TD*%
D19*
%TO.P,REF\u002A\u002A,1*%
%TO.N,N/C*%
X174573952Y-30125496D03*
X175276896Y-28428440D03*
X175276896Y-31822552D03*
X176973952Y-27725496D03*
D20*
X176973952Y-30125496D03*
D19*
X176973952Y-32525496D03*
X178671008Y-28428440D03*
X178671008Y-31822552D03*
X179373952Y-30125496D03*
%TD*%
D15*
%TO.P,Q6,1,S_1*%
%TO.N,HIGHSRC B*%
X100020000Y-56450000D03*
%TO.P,Q6,2,S_2*%
%TO.N,unconnected-(Q6-S-Pad2)*%
X100680000Y-56450000D03*
%TO.P,Q6,3,S_3*%
%TO.N,unconnected-(Q6-S-Pad3)*%
X101330000Y-56450000D03*
%TO.P,Q6,4,G_4*%
%TO.N,GATEH B*%
X101980000Y-56450000D03*
%TO.P,Q6,5,D_5*%
%TO.N,+12V*%
X100020000Y-53450000D03*
X100680000Y-53450000D03*
D16*
X101000000Y-54500000D03*
D15*
X101330000Y-53450000D03*
X101980000Y-53450000D03*
%TD*%
D42*
%TO.N,HIGHIN A*%
X145500000Y-114500000D03*
X163500000Y-66000000D03*
%TO.N,LOWIN A*%
X161900000Y-94000000D03*
X92500000Y-48500000D03*
%TO.N,HIGHIN B*%
X86500000Y-37500000D03*
X113500000Y-25600000D03*
X153500000Y-102000000D03*
X152500000Y-105000000D03*
X88000000Y-39100000D03*
X177000000Y-101500000D03*
X59500000Y-62500000D03*
X163500000Y-102000000D03*
X164300003Y-66000000D03*
X176325735Y-38325735D03*
X179500000Y-86500000D03*
X67500000Y-39500000D03*
X176500000Y-40000000D03*
X59000000Y-64500000D03*
X179000000Y-101000000D03*
X149000000Y-94000000D03*
X89500000Y-28900000D03*
%TO.N,LOWIN B*%
X104000000Y-106000000D03*
%TO.N,GND*%
X103000000Y-114000000D03*
X84000000Y-37500000D03*
X96500000Y-113000000D03*
X22500000Y-44500000D03*
X105400000Y-111500000D03*
X85500000Y-39100000D03*
X37000000Y-29400000D03*
X111450000Y-113050000D03*
%TO.N,HIGHSRC A*%
X108760050Y-80260050D03*
X126000000Y-85500000D03*
%TO.N,HIGHSRC B*%
X72500000Y-110100000D03*
X125000000Y-51000000D03*
X72500000Y-108000000D03*
X40500000Y-78500000D03*
X76000000Y-107500000D03*
X74000000Y-57000000D03*
X135000000Y-41500000D03*
%TO.N,GATEH B*%
X106500000Y-56000000D03*
X110174265Y-50325735D03*
X102000000Y-58000000D03*
%TO.N,+12V*%
X114000000Y-54000000D03*
X91000000Y-76500000D03*
X114000000Y-56000000D03*
X105500000Y-54500000D03*
X105500000Y-45050000D03*
X144000000Y-49000000D03*
X109980000Y-71050000D03*
X100000000Y-103500000D03*
X114000000Y-71500000D03*
%TO.N,LOWSRC B*%
X148731669Y-71870639D03*
X104500000Y-53500000D03*
X146650000Y-71850000D03*
X137000000Y-61000000D03*
%TO.N,GATEL B*%
X102000000Y-65500000D03*
X102000000Y-74500000D03*
X78500000Y-69800000D03*
X72667108Y-80332892D03*
X66550000Y-90050000D03*
X76900000Y-82500000D03*
%TO.N,GATEH A*%
X97840735Y-88159265D03*
X109500000Y-78600000D03*
X108000000Y-81000000D03*
X106000000Y-85100000D03*
%TO.N,/BST B*%
X101500000Y-81000000D03*
X108600000Y-84500000D03*
%TO.N,EN*%
X179000000Y-102500000D03*
X161400000Y-103000000D03*
X150330000Y-94000000D03*
X73500000Y-110100000D03*
%TO.N,Net-(C7-Pad1)*%
X114600000Y-70500000D03*
X97000000Y-67000000D03*
X99000000Y-67000000D03*
%TO.N,LOWSRC A*%
X116500000Y-41400000D03*
X111900000Y-56500000D03*
%TO.N,GATEL A*%
X74500000Y-92500000D03*
X110500000Y-58500000D03*
X110500000Y-65500000D03*
%TO.N,Net-(D6-K)*%
X156500000Y-114900000D03*
X75600000Y-108900000D03*
X162500000Y-81000000D03*
X162500000Y-83000000D03*
%TO.N,/BSTA*%
X109500000Y-95500000D03*
X160500000Y-94500000D03*
%TO.N,Net-(U1-LDEL)*%
X159500000Y-95000000D03*
X110600000Y-84500000D03*
%TO.N,Net-(U1-HDEL)*%
X158500000Y-95500000D03*
X113500000Y-88000000D03*
%TO.N,Net-(D4-K)*%
X178500000Y-88000000D03*
%TO.N,Net-(D5-K)*%
X179000000Y-105000000D03*
X74400000Y-110100000D03*
X150500000Y-77500000D03*
X74400000Y-100000000D03*
%TO.N,Net-(D3-K)*%
X126000000Y-84500000D03*
%TO.N,Net-(LED2--)*%
X101500000Y-77000000D03*
X109000000Y-83500000D03*
%TD*%
%TO.N,HIGHIN A*%
D43*
X91500000Y-109500000D02*
X98200000Y-116200000D01*
X156000000Y-110500000D02*
X156000000Y-104000000D01*
X143800000Y-116200000D02*
X145500000Y-114500000D01*
X182900000Y-27400000D02*
X182900000Y-32600000D01*
X93250000Y-49250000D02*
X89250000Y-49250000D01*
X106000000Y-31000000D02*
X106500000Y-31000000D01*
X180500000Y-25000000D02*
X182900000Y-27400000D01*
X74500000Y-54000000D02*
X86500000Y-54000000D01*
X163500000Y-52000000D02*
X163500000Y-66000000D01*
X112500000Y-25000000D02*
X180500000Y-25000000D01*
X97500000Y-45000000D02*
X93250000Y-49250000D01*
X89250000Y-51250000D02*
X89250000Y-49250000D01*
X98200000Y-116200000D02*
X143800000Y-116200000D01*
X155400000Y-103400000D02*
X155400000Y-89730000D01*
X106500000Y-31000000D02*
X112500000Y-25000000D01*
X106000000Y-30500000D02*
X97500000Y-39000000D01*
X156000000Y-104000000D02*
X155400000Y-103400000D01*
X86500000Y-54000000D02*
X89250000Y-51250000D01*
X85000000Y-109500000D02*
X91500000Y-109500000D01*
X97500000Y-39000000D02*
X97500000Y-45000000D01*
X182900000Y-32600000D02*
X163500000Y-52000000D01*
%TO.N,LOWIN A*%
X154500000Y-114000000D02*
X153500000Y-113000000D01*
X92400000Y-48600000D02*
X89250000Y-48600000D01*
X153500000Y-113000000D02*
X153500000Y-110500000D01*
X153500000Y-106500000D02*
X154130000Y-105870000D01*
X162000000Y-112000000D02*
X160000000Y-114000000D01*
X160000000Y-114000000D02*
X154500000Y-114000000D01*
X153500000Y-110500000D02*
X153500000Y-106500000D01*
X92500000Y-48500000D02*
X92400000Y-48600000D01*
X154130000Y-105870000D02*
X154130000Y-89730000D01*
X161900000Y-94000000D02*
X162000000Y-94100000D01*
X162000000Y-94100000D02*
X162000000Y-112000000D01*
%TO.N,HIGHIN B*%
X59500000Y-62500000D02*
X60000000Y-62500000D01*
X180334314Y-25400000D02*
X113700000Y-25400000D01*
X163500000Y-102000000D02*
X164000000Y-101500000D01*
X88000000Y-39100000D02*
X91100000Y-39100000D01*
X91100000Y-39100000D02*
X93000000Y-41000000D01*
X180500000Y-99500000D02*
X181500000Y-99500000D01*
X64000000Y-107180000D02*
X64000000Y-78000000D01*
X179000000Y-101000000D02*
X180500000Y-99500000D01*
X182500000Y-32151470D02*
X182500000Y-27565686D01*
X87400000Y-31000000D02*
X86500000Y-31000000D01*
X89500000Y-28900000D02*
X87400000Y-31000000D01*
X164300003Y-51765683D02*
X176065686Y-40000000D01*
X93000000Y-41000000D02*
X93000000Y-45500000D01*
X149050000Y-93950000D02*
X149000000Y-94000000D01*
X164300003Y-66000000D02*
X164300003Y-51765683D01*
X182500000Y-27565686D02*
X180334314Y-25400000D01*
X66320000Y-109500000D02*
X64000000Y-107180000D01*
X176325735Y-38325735D02*
X182500000Y-32151470D01*
X67000000Y-55500000D02*
X68750000Y-55500000D01*
X90550000Y-47950000D02*
X89250000Y-47950000D01*
X181500000Y-99500000D02*
X181500000Y-88500000D01*
X152500000Y-105000000D02*
X153500000Y-104000000D01*
X181500000Y-88500000D02*
X179500000Y-86500000D01*
X67000000Y-53750000D02*
X67000000Y-40000000D01*
X86500000Y-31000000D02*
X86500000Y-37500000D01*
X113700000Y-25400000D02*
X113500000Y-25600000D01*
X93000000Y-45500000D02*
X90550000Y-47950000D01*
X164000000Y-101500000D02*
X177000000Y-101500000D01*
X68750000Y-55500000D02*
X67000000Y-53750000D01*
X153500000Y-104000000D02*
X153500000Y-102000000D01*
X176065686Y-40000000D02*
X176500000Y-40000000D01*
X60000000Y-62500000D02*
X67000000Y-55500000D01*
X59000000Y-73000000D02*
X59000000Y-64500000D01*
X67000000Y-40000000D02*
X67500000Y-39500000D01*
X64000000Y-78000000D02*
X59000000Y-73000000D01*
X149050000Y-89730000D02*
X149050000Y-93950000D01*
%TO.N,LOWIN B*%
X75500000Y-51500000D02*
X70500000Y-51500000D01*
X89250000Y-47300000D02*
X87200000Y-47300000D01*
X101700000Y-88700000D02*
X101700000Y-94200000D01*
X77600000Y-53600000D02*
X75500000Y-51500000D01*
X68500000Y-49500000D02*
X68500000Y-52500000D01*
X101700000Y-94200000D02*
X103000000Y-95500000D01*
X85400000Y-53600000D02*
X77600000Y-53600000D01*
X73200000Y-57200000D02*
X73200000Y-69034314D01*
X152870000Y-94630000D02*
X152870000Y-89730000D01*
X101000000Y-88000000D02*
X101700000Y-88700000D01*
X86500000Y-52500000D02*
X85400000Y-53600000D01*
X148500000Y-110500000D02*
X148500000Y-99000000D01*
X68500000Y-49500000D02*
X68500000Y-45000000D01*
X89800000Y-70800000D02*
X93000000Y-74000000D01*
X74965686Y-70800000D02*
X89800000Y-70800000D01*
X70500000Y-51500000D02*
X68500000Y-49500000D01*
X73200000Y-69034314D02*
X74965686Y-70800000D01*
X87200000Y-47300000D02*
X86500000Y-48000000D01*
X103000000Y-95500000D02*
X103000000Y-105000000D01*
X103000000Y-105000000D02*
X104000000Y-106000000D01*
X68500000Y-52500000D02*
X73200000Y-57200000D01*
X93000000Y-74000000D02*
X93000000Y-81904314D01*
X93000000Y-81904314D02*
X99095686Y-88000000D01*
X99095686Y-88000000D02*
X101000000Y-88000000D01*
X148500000Y-99000000D02*
X152870000Y-94630000D01*
X86500000Y-48000000D02*
X86500000Y-52500000D01*
%TO.N,GND*%
X177000000Y-115500000D02*
X178000000Y-114500000D01*
X44000000Y-109500000D02*
X44000000Y-114000000D01*
X98600000Y-88070000D02*
X88330000Y-77800000D01*
X86500000Y-27820000D02*
X86320000Y-28000000D01*
X166000000Y-115500000D02*
X177000000Y-115500000D01*
X84500000Y-28000000D02*
X84000000Y-28500000D01*
D44*
X170500000Y-79500000D02*
X179500000Y-79500000D01*
D43*
X178000000Y-87600000D02*
X178000000Y-81000000D01*
X80640000Y-107360000D02*
X82500000Y-105500000D01*
X105400000Y-111600000D02*
X105400000Y-111500000D01*
X84000000Y-28500000D02*
X84000000Y-37500000D01*
X178748529Y-88600000D02*
X179100000Y-88248529D01*
X51410000Y-98024314D02*
X51410000Y-90941371D01*
X178051471Y-88400000D02*
X178251471Y-88600000D01*
X85500000Y-39100000D02*
X89250000Y-42850000D01*
X168500000Y-113000000D02*
X168500000Y-109500000D01*
X70680000Y-109500000D02*
X80640000Y-109500000D01*
X94000000Y-102500000D02*
X94000000Y-110500000D01*
X178748529Y-87400000D02*
X178251471Y-87400000D01*
X94000000Y-110500000D02*
X96500000Y-113000000D01*
X156170000Y-47170000D02*
X156050000Y-47050000D01*
X82500000Y-105500000D02*
X91500000Y-105500000D01*
X29770000Y-109500000D02*
X30770000Y-108500000D01*
X51410000Y-79000000D02*
X51410000Y-72840000D01*
X70680000Y-113320000D02*
X70680000Y-109500000D01*
X44000000Y-114000000D02*
X45500000Y-115500000D01*
X68500000Y-115500000D02*
X70680000Y-113320000D01*
X80640000Y-109500000D02*
X80640000Y-107360000D01*
X98600000Y-92900000D02*
X98600000Y-90500000D01*
X43000000Y-108500000D02*
X44000000Y-109500000D01*
X38580000Y-27820000D02*
X37000000Y-29400000D01*
X178051471Y-87600000D02*
X178000000Y-87600000D01*
X146000000Y-112800000D02*
X143000000Y-115800000D01*
X178251471Y-87400000D02*
X178051471Y-87600000D01*
X115000000Y-89500000D02*
X115000000Y-83500000D01*
X51320000Y-66000000D02*
X51320000Y-65320000D01*
X110500000Y-112100000D02*
X110500000Y-110065000D01*
X115000000Y-105565000D02*
X110500000Y-110065000D01*
X86500000Y-27820000D02*
X96500000Y-27820000D01*
X94000000Y-97500000D02*
X98600000Y-92900000D01*
X156110000Y-66610000D02*
X156170000Y-66550000D01*
X98600000Y-90500000D02*
X98600000Y-88070000D01*
D45*
X35500000Y-49500000D02*
X35500000Y-37500000D01*
D43*
X156170000Y-47770000D02*
X156170000Y-57770000D01*
X45500000Y-115500000D02*
X68500000Y-115500000D01*
X156110000Y-67770000D02*
X156110000Y-66610000D01*
X86320000Y-28000000D02*
X84500000Y-28000000D01*
X170500000Y-79500000D02*
X167840000Y-79500000D01*
X166000000Y-115500000D02*
X168500000Y-113000000D01*
X94000000Y-102500000D02*
X94000000Y-97500000D01*
X146000000Y-110500000D02*
X146000000Y-112800000D01*
X51410000Y-90941371D02*
X47400000Y-86931370D01*
X178000000Y-88400000D02*
X178051471Y-88400000D01*
X146000000Y-100500000D02*
X151600000Y-94900000D01*
X178000000Y-81000000D02*
X179500000Y-79500000D01*
X22500000Y-49465686D02*
X22500000Y-44500000D01*
X146000000Y-113500000D02*
X148000000Y-115500000D01*
X51320000Y-65320000D02*
X35500000Y-49500000D01*
X156170000Y-47770000D02*
X156170000Y-47170000D01*
X148000000Y-115500000D02*
X166000000Y-115500000D01*
X146000000Y-110500000D02*
X146000000Y-100500000D01*
X114200000Y-115800000D02*
X110500000Y-112100000D01*
X179100000Y-87751471D02*
X178748529Y-87400000D01*
X91500000Y-105500000D02*
X94000000Y-103000000D01*
X51410000Y-66090000D02*
X51320000Y-66000000D01*
X89250000Y-42850000D02*
X89250000Y-45350000D01*
X156050000Y-47050000D02*
X156050000Y-37770000D01*
X86500000Y-27820000D02*
X38580000Y-27820000D01*
X151600000Y-94900000D02*
X151600000Y-89730000D01*
X179100000Y-88248529D02*
X179100000Y-87751471D01*
X146000000Y-110500000D02*
X146000000Y-113500000D01*
X115000000Y-89500000D02*
X115000000Y-105565000D01*
X51410000Y-85000000D02*
X51410000Y-79000000D01*
X44000000Y-109500000D02*
X44000000Y-105434314D01*
X96500000Y-27820000D02*
X106000000Y-27820000D01*
X111450000Y-113050000D02*
X110500000Y-112100000D01*
X94000000Y-103000000D02*
X94000000Y-102500000D01*
X143000000Y-115800000D02*
X114200000Y-115800000D01*
X178251471Y-88600000D02*
X178748529Y-88600000D01*
X103000000Y-114000000D02*
X105400000Y-111600000D01*
X156170000Y-66550000D02*
X156170000Y-57770000D01*
X44000000Y-105434314D02*
X51410000Y-98024314D01*
X51410000Y-72840000D02*
X51410000Y-66090000D01*
X30770000Y-108500000D02*
X43000000Y-108500000D01*
X47400000Y-86931370D02*
X47400000Y-74365686D01*
X167840000Y-79500000D02*
X156110000Y-67770000D01*
X47400000Y-74365686D02*
X22500000Y-49465686D01*
X178000000Y-114500000D02*
X178000000Y-88400000D01*
%TO.N,+3.3V*%
X47800000Y-86765685D02*
X47800000Y-74200000D01*
X60200000Y-94800000D02*
X59200000Y-93800000D01*
X40800000Y-30000000D02*
X53000000Y-42200000D01*
X26000000Y-32400000D02*
X28400000Y-30000000D01*
X82600000Y-49250000D02*
X83650000Y-49250000D01*
X26000000Y-52400000D02*
X26000000Y-32400000D01*
X28400000Y-30000000D02*
X40800000Y-30000000D01*
X53000000Y-42200000D02*
X53200000Y-42000000D01*
X50000000Y-109500000D02*
X50000000Y-108000000D01*
X50000000Y-108000000D02*
X60200000Y-97800000D01*
X53200000Y-42000000D02*
X56700000Y-38500000D01*
X53250000Y-45250000D02*
X53000000Y-45000000D01*
X47800000Y-74200000D02*
X26000000Y-52400000D01*
X60200000Y-97800000D02*
X60200000Y-94800000D01*
X96500000Y-31000000D02*
X89000000Y-38500000D01*
X54834315Y-93800000D02*
X47800000Y-86765685D01*
X53250000Y-55500000D02*
X52500000Y-55500000D01*
X52500000Y-55500000D02*
X51250000Y-54250000D01*
X53000000Y-45000000D02*
X53000000Y-42200000D01*
X56700000Y-38500000D02*
X74500000Y-38500000D01*
X74500000Y-38500000D02*
X74500000Y-41150000D01*
X59200000Y-93800000D02*
X54834315Y-93800000D01*
X89000000Y-38500000D02*
X74500000Y-38500000D01*
X74500000Y-41150000D02*
X82600000Y-49250000D01*
X53250000Y-55500000D02*
X53250000Y-45250000D01*
X51250000Y-54250000D02*
X47000000Y-54250000D01*
%TO.N,HIGHSRC A*%
X99690000Y-47700000D02*
X99690000Y-47000000D01*
X108000000Y-68000000D02*
X111000000Y-68000000D01*
X119500000Y-31500000D02*
X119500000Y-36500000D01*
X99000000Y-83200000D02*
X100000000Y-82200000D01*
X108760050Y-80260050D02*
X107260050Y-80260050D01*
X142600000Y-90000000D02*
X142600000Y-111834314D01*
X111000000Y-68000000D02*
X112500000Y-66500000D01*
D44*
X24000000Y-88000000D02*
X33000000Y-88000000D01*
D43*
X157950000Y-80270000D02*
X157950000Y-82050000D01*
X89990000Y-57850000D02*
X90090000Y-57750000D01*
X99000000Y-42000000D02*
X98200000Y-42800000D01*
X106700000Y-79700000D02*
X106700000Y-77700000D01*
X107260050Y-80260050D02*
X106700000Y-79700000D01*
X112000000Y-54500000D02*
X109500000Y-54500000D01*
X114000000Y-42000000D02*
X99000000Y-42000000D01*
X112000000Y-62000000D02*
X112500000Y-61500000D01*
X106700000Y-77700000D02*
X106700000Y-69300000D01*
X157000000Y-83000000D02*
X146500000Y-83000000D01*
X109500000Y-54500000D02*
X106490000Y-54500000D01*
X142600000Y-88100000D02*
X140000000Y-85500000D01*
X99000000Y-84500000D02*
X99000000Y-83200000D01*
X119500000Y-36500000D02*
X114000000Y-42000000D01*
X139434314Y-115000000D02*
X137500000Y-115000000D01*
X157950000Y-82050000D02*
X157000000Y-83000000D01*
X102200000Y-82200000D02*
X106700000Y-77700000D01*
X106700000Y-69300000D02*
X108000000Y-68000000D01*
X100000000Y-82200000D02*
X102200000Y-82200000D01*
X82500000Y-57850000D02*
X89990000Y-57850000D01*
X109500000Y-62000000D02*
X112000000Y-62000000D01*
X106490000Y-54500000D02*
X99690000Y-47700000D01*
X124500000Y-45000000D02*
X121500000Y-42000000D01*
X140000000Y-85500000D02*
X126000000Y-85500000D01*
X98200000Y-42800000D02*
X98200000Y-48490000D01*
X121500000Y-42000000D02*
X114000000Y-42000000D01*
X98200000Y-48490000D02*
X99690000Y-47000000D01*
X142600000Y-86900000D02*
X142600000Y-90000000D01*
X146500000Y-83000000D02*
X142600000Y-86900000D01*
X106700000Y-77700000D02*
X108200000Y-76200000D01*
X133000000Y-45000000D02*
X124500000Y-45000000D01*
X108200000Y-76200000D02*
X109000000Y-75400000D01*
X90090000Y-57750000D02*
X90090000Y-56600000D01*
X109000000Y-75400000D02*
X109000000Y-73000000D01*
X112500000Y-55000000D02*
X112000000Y-54500000D01*
X142600000Y-111834314D02*
X139434314Y-115000000D01*
X142600000Y-90000000D02*
X142600000Y-88100000D01*
X112500000Y-66500000D02*
X112500000Y-61500000D01*
X137500000Y-115000000D02*
X134730000Y-112230000D01*
X112500000Y-61500000D02*
X112500000Y-55000000D01*
X134730000Y-112230000D02*
X134730000Y-109500000D01*
X90090000Y-56600000D02*
X98200000Y-48490000D01*
%TO.N,Net-(R16-Pad2)*%
X53500000Y-96500000D02*
X47000000Y-103000000D01*
X47000000Y-103000000D02*
X47000000Y-109500000D01*
X58500000Y-96500000D02*
X53500000Y-96500000D01*
%TO.N,HIGHSRC B*%
X103800000Y-77200000D02*
X103800000Y-72000000D01*
X103800000Y-72000000D02*
X103800000Y-64950000D01*
X120095000Y-61000000D02*
X120000000Y-61000000D01*
X100020000Y-61450000D02*
X100020000Y-56450000D01*
X120095000Y-58505000D02*
X120095000Y-61000000D01*
X126000000Y-31500000D02*
X135000000Y-40500000D01*
X28000000Y-105000000D02*
X24000000Y-109000000D01*
X102000000Y-79000000D02*
X103800000Y-77200000D01*
X103800000Y-72000000D02*
X102850000Y-71050000D01*
X101000000Y-79000000D02*
X102000000Y-79000000D01*
X103800000Y-64950000D02*
X101350000Y-62500000D01*
X124500000Y-54000000D02*
X133000000Y-54000000D01*
X27000000Y-116500000D02*
X69000000Y-116500000D01*
X40500000Y-95500000D02*
X31000000Y-105000000D01*
X72500000Y-108000000D02*
X73000000Y-107500000D01*
X74000000Y-69268628D02*
X75131372Y-70400000D01*
X129500000Y-101000000D02*
X124500000Y-96000000D01*
X24000000Y-113500000D02*
X27000000Y-116500000D01*
X102850000Y-71050000D02*
X100820000Y-71050000D01*
X120000000Y-61000000D02*
X108340000Y-49340000D01*
X40500000Y-78500000D02*
X40500000Y-95500000D01*
X75131372Y-70400000D02*
X92400000Y-70400000D01*
X124500000Y-78920000D02*
X120095000Y-74515000D01*
X74000000Y-57000000D02*
X74000000Y-69268628D01*
X108340000Y-49340000D02*
X108340000Y-47000000D01*
X124500000Y-96000000D02*
X124500000Y-78920000D01*
X124500000Y-54000000D02*
X124500000Y-54100000D01*
X124500000Y-51500000D02*
X124500000Y-54000000D01*
X101350000Y-62500000D02*
X101000000Y-62500000D01*
X24000000Y-109000000D02*
X24000000Y-113500000D01*
X125000000Y-51000000D02*
X124500000Y-51500000D01*
X31000000Y-105000000D02*
X28000000Y-105000000D01*
D44*
X24000000Y-72000000D02*
X33000000Y-72000000D01*
D43*
X149050000Y-80270000D02*
X149050000Y-75550000D01*
X73000000Y-107500000D02*
X76000000Y-107500000D01*
X135000000Y-40500000D02*
X135000000Y-41500000D01*
X133000000Y-59500000D02*
X133000000Y-54000000D01*
X69000000Y-116500000D02*
X72500000Y-113000000D01*
X124500000Y-54100000D02*
X120095000Y-58505000D01*
X72500000Y-113000000D02*
X72500000Y-110100000D01*
X149050000Y-75550000D02*
X133000000Y-59500000D01*
X120095000Y-61000000D02*
X120095000Y-74515000D01*
X129500000Y-109500000D02*
X129500000Y-101000000D01*
X92400000Y-70400000D02*
X101000000Y-79000000D01*
%TO.N,GATEH B*%
X89580000Y-83000000D02*
X82565686Y-83000000D01*
X101980000Y-57980000D02*
X102000000Y-58000000D01*
X110174265Y-50325735D02*
X110300000Y-50200000D01*
X101980000Y-56450000D02*
X106050000Y-56450000D01*
X82565686Y-83000000D02*
X74200000Y-74634314D01*
X89580000Y-83000000D02*
X84500000Y-77920000D01*
X101980000Y-56450000D02*
X101980000Y-57980000D01*
X74200000Y-74634314D02*
X74200000Y-71200000D01*
X110300000Y-50200000D02*
X110300000Y-47000000D01*
X74200000Y-71200000D02*
X69500000Y-66500000D01*
X106050000Y-56450000D02*
X106500000Y-56000000D01*
X84500000Y-77920000D02*
X84500000Y-77000000D01*
%TO.N,+12V*%
X54590000Y-85000000D02*
X54590000Y-79000000D01*
X88330000Y-73200000D02*
X86330000Y-71200000D01*
X54590000Y-86810000D02*
X53800000Y-87600000D01*
X54590000Y-85000000D02*
X54590000Y-86810000D01*
X101000000Y-54500000D02*
X105500000Y-54500000D01*
X154130000Y-80270000D02*
X152870000Y-80270000D01*
X72800000Y-69200000D02*
X72800000Y-66200000D01*
X112800000Y-98700000D02*
X101500000Y-110000000D01*
X56000000Y-63400000D02*
X54500000Y-64900000D01*
X147600000Y-72153185D02*
X147600000Y-51165686D01*
X152870000Y-80270000D02*
X152870000Y-77423185D01*
X120450000Y-45050000D02*
X120500000Y-45000000D01*
X53800000Y-87600000D02*
X49200000Y-87600000D01*
X86330000Y-71200000D02*
X74800000Y-71200000D01*
X72800000Y-66200000D02*
X70000000Y-63400000D01*
X101500000Y-98200000D02*
X101300000Y-98000000D01*
X101500000Y-110000000D02*
X101500000Y-98200000D01*
X112800000Y-98000000D02*
X112800000Y-94365686D01*
X152870000Y-77423185D02*
X147600000Y-72153185D01*
X54590000Y-72410000D02*
X54500000Y-72320000D01*
X114000000Y-71500000D02*
X114000000Y-56000000D01*
X109000000Y-70070000D02*
X109980000Y-71050000D01*
X147600000Y-51165686D02*
X145434314Y-49000000D01*
X109320000Y-45050000D02*
X120450000Y-45050000D01*
X112800000Y-98000000D02*
X112800000Y-98700000D01*
X112800000Y-94365686D02*
X108000000Y-89565686D01*
X48200000Y-67200000D02*
X30500000Y-49500000D01*
X144000000Y-49000000D02*
X124500000Y-49000000D01*
X110960000Y-70000000D02*
X110960000Y-70070000D01*
X48200000Y-86600000D02*
X48200000Y-67200000D01*
X145434314Y-49000000D02*
X144000000Y-49000000D01*
X124500000Y-49000000D02*
X120500000Y-45000000D01*
X49200000Y-87600000D02*
X48200000Y-86600000D01*
X91000000Y-74500000D02*
X89700000Y-73200000D01*
X108000000Y-81868629D02*
X113600000Y-76268628D01*
X108000000Y-89565686D02*
X108000000Y-81868629D01*
X110960000Y-70070000D02*
X109980000Y-71050000D01*
X91000000Y-76500000D02*
X91000000Y-74500000D01*
X109000000Y-70000000D02*
X109000000Y-70070000D01*
X101500000Y-105000000D02*
X100000000Y-103500000D01*
X54590000Y-79000000D02*
X54590000Y-72840000D01*
D45*
X30500000Y-37500000D02*
X30500000Y-49500000D01*
D43*
X54500000Y-64900000D02*
X54500000Y-66000000D01*
X54500000Y-72320000D02*
X54500000Y-66000000D01*
X114000000Y-54000000D02*
X120500000Y-54000000D01*
X113600000Y-71900000D02*
X114000000Y-71500000D01*
D44*
X170500000Y-63500000D02*
X179500000Y-63500000D01*
D43*
X101300000Y-98000000D02*
X101300000Y-91800000D01*
X54590000Y-72840000D02*
X54590000Y-72410000D01*
X70000000Y-63400000D02*
X56000000Y-63400000D01*
X101500000Y-110000000D02*
X101500000Y-105000000D01*
X101300000Y-91800000D02*
X100000000Y-90500000D01*
X105500000Y-45050000D02*
X100670000Y-45050000D01*
X109320000Y-45050000D02*
X105500000Y-45050000D01*
X120500000Y-45000000D02*
X120500000Y-54000000D01*
X74800000Y-71200000D02*
X72800000Y-69200000D01*
X89700000Y-73200000D02*
X88330000Y-73200000D01*
X113600000Y-76268628D02*
X113600000Y-71900000D01*
%TO.N,Net-(U2-VOUT-Pad2)*%
X88330000Y-75500000D02*
X82670000Y-75500000D01*
%TO.N,LOWSRC B*%
X137000000Y-62200000D02*
X146650000Y-71850000D01*
X98000000Y-73500000D02*
X98000000Y-71000000D01*
X151500000Y-68260000D02*
X151500000Y-71000000D01*
X137000000Y-61000000D02*
X137000000Y-62200000D01*
X151600000Y-76800000D02*
X151600000Y-80270000D01*
X151990000Y-67770000D02*
X151990000Y-57990000D01*
X99840000Y-74160000D02*
X99500000Y-74500000D01*
X148861030Y-72000000D02*
X148731669Y-71870639D01*
X137000000Y-54000000D02*
X137000000Y-61000000D01*
X98000000Y-71000000D02*
X98000000Y-69500000D01*
X150500000Y-72000000D02*
X148861030Y-72000000D01*
X99000000Y-51500000D02*
X102500000Y-51500000D01*
X96000000Y-54500000D02*
X99000000Y-51500000D01*
X99840000Y-73000000D02*
X99840000Y-74160000D01*
X102500000Y-51500000D02*
X104500000Y-53500000D01*
X98000000Y-71000000D02*
X96000000Y-69000000D01*
X96000000Y-69000000D02*
X96000000Y-54500000D01*
X151990000Y-67770000D02*
X151500000Y-68260000D01*
X151500000Y-71000000D02*
X150500000Y-72000000D01*
X151990000Y-57990000D02*
X151500000Y-57500000D01*
X146650000Y-71850000D02*
X151600000Y-76800000D01*
X100020000Y-67480000D02*
X100020000Y-64450000D01*
X98000000Y-69500000D02*
X100020000Y-67480000D01*
X99500000Y-74500000D02*
X99000000Y-74500000D01*
X99000000Y-74500000D02*
X98000000Y-73500000D01*
%TO.N,GATEL B*%
X102000000Y-74500000D02*
X102000000Y-73200000D01*
X101980000Y-64450000D02*
X101980000Y-65480000D01*
X92481372Y-69350000D02*
X86850000Y-69350000D01*
X76600000Y-101400000D02*
X67200000Y-101400000D01*
X101980000Y-65480000D02*
X102000000Y-65500000D01*
X74834216Y-82500000D02*
X72667108Y-80332892D01*
X68600000Y-88000000D02*
X69500000Y-88000000D01*
X102000000Y-74500000D02*
X101000000Y-75500000D01*
X66550000Y-90050000D02*
X68600000Y-88000000D01*
X64400000Y-98600000D02*
X64400000Y-92200000D01*
X101000000Y-75500000D02*
X98631372Y-75500000D01*
X67200000Y-101400000D02*
X64400000Y-98600000D01*
X86850000Y-69350000D02*
X83500000Y-66000000D01*
X81500000Y-66000000D02*
X78500000Y-69000000D01*
X102000000Y-73200000D02*
X101800000Y-73000000D01*
X64400000Y-92200000D02*
X66550000Y-90050000D01*
X78500000Y-69000000D02*
X78500000Y-69800000D01*
X76900000Y-82500000D02*
X74834216Y-82500000D01*
X98631372Y-75500000D02*
X92481372Y-69350000D01*
X83500000Y-66000000D02*
X81500000Y-66000000D01*
X79500000Y-98500000D02*
X76600000Y-101400000D01*
%TO.N,GATEH A*%
X89580000Y-88500000D02*
X89660000Y-88580000D01*
X97420000Y-88580000D02*
X97840735Y-88159265D01*
X111600000Y-76600000D02*
X110960000Y-75960000D01*
X105355000Y-47000000D02*
X113200000Y-54845000D01*
X106000000Y-83000000D02*
X108000000Y-81000000D01*
X113200000Y-75800000D02*
X112400000Y-76600000D01*
X79200000Y-85800000D02*
X77285686Y-85800000D01*
X77285686Y-85800000D02*
X71800000Y-80314314D01*
X106000000Y-85100000D02*
X106000000Y-83000000D01*
X71800000Y-77200000D02*
X71700000Y-77200000D01*
X101650000Y-47000000D02*
X105355000Y-47000000D01*
X81900000Y-88500000D02*
X79200000Y-85800000D01*
X71700000Y-77200000D02*
X69500000Y-75000000D01*
X110960000Y-77140000D02*
X110960000Y-75960000D01*
X112400000Y-76600000D02*
X111600000Y-76600000D01*
X89580000Y-88500000D02*
X81900000Y-88500000D01*
X109500000Y-78600000D02*
X110960000Y-77140000D01*
X89660000Y-88580000D02*
X97420000Y-88580000D01*
X113200000Y-54845000D02*
X113200000Y-75800000D01*
X110960000Y-75960000D02*
X110960000Y-73000000D01*
X71800000Y-80314314D02*
X71800000Y-77200000D01*
%TO.N,Net-(LED1-Pad2)*%
X137270000Y-98470000D02*
X134800000Y-96000000D01*
X137270000Y-109500000D02*
X137270000Y-98470000D01*
%TO.N,/BST B*%
X110000000Y-88500000D02*
X110000000Y-85900000D01*
X98000000Y-114000000D02*
X98000000Y-98000000D01*
X106000000Y-112500000D02*
X103000000Y-115500000D01*
X143000000Y-94510000D02*
X143000000Y-112000000D01*
X147780000Y-89730000D02*
X143000000Y-94510000D01*
X101500000Y-81000000D02*
X101500000Y-80900000D01*
X114000000Y-101000000D02*
X106000000Y-109000000D01*
X115500000Y-79500000D02*
X111500000Y-79500000D01*
X119000000Y-83000000D02*
X115500000Y-79500000D01*
X101500000Y-80900000D02*
X99600000Y-79000000D01*
X103000000Y-115500000D02*
X99500000Y-115500000D01*
X119000000Y-110500000D02*
X119000000Y-83000000D01*
X114000000Y-95000000D02*
X114000000Y-101000000D01*
X99500000Y-115500000D02*
X98000000Y-114000000D01*
X110000000Y-88500000D02*
X110000000Y-91000000D01*
X106000000Y-109000000D02*
X106000000Y-112500000D01*
X139600000Y-115400000D02*
X123900000Y-115400000D01*
X110000000Y-81000000D02*
X110000000Y-88500000D01*
X110000000Y-85900000D02*
X108600000Y-84500000D01*
X123900000Y-115400000D02*
X119000000Y-110500000D01*
X111500000Y-79500000D02*
X110000000Y-81000000D01*
X143000000Y-112000000D02*
X139600000Y-115400000D01*
X110000000Y-91000000D02*
X114000000Y-95000000D01*
%TO.N,EN*%
X150330000Y-94000000D02*
X150330000Y-89730000D01*
X154165686Y-116400000D02*
X153565685Y-117000000D01*
X177665685Y-116400000D02*
X154165686Y-116400000D01*
X153565685Y-117000000D02*
X80400000Y-117000000D01*
X180000000Y-114065685D02*
X177665685Y-116400000D01*
X179000000Y-102500000D02*
X180000000Y-103500000D01*
X80400000Y-117000000D02*
X73500000Y-110100000D01*
X158500000Y-105900000D02*
X161400000Y-103000000D01*
X158500000Y-110500000D02*
X158500000Y-105900000D01*
X180000000Y-103500000D02*
X180000000Y-114065685D01*
%TO.N,Net-(C7-Pad1)*%
X99000000Y-67000000D02*
X97000000Y-67000000D01*
X116915000Y-74515000D02*
X116915000Y-72815000D01*
X116915000Y-72815000D02*
X114600000Y-70500000D01*
%TO.N,LOWSRC A*%
X148000000Y-53500000D02*
X148000000Y-51000000D01*
X155400000Y-80270000D02*
X155400000Y-79387500D01*
X107000000Y-65000000D02*
X107000000Y-60000000D01*
X148000000Y-71987500D02*
X148000000Y-53500000D01*
X108520000Y-64980000D02*
X108000000Y-65500000D01*
X109500000Y-59500000D02*
X111000000Y-59500000D01*
X108520000Y-56450000D02*
X108520000Y-58520000D01*
X112000000Y-56600000D02*
X111900000Y-56500000D01*
X133400000Y-41400000D02*
X116500000Y-41400000D01*
X112000000Y-58500000D02*
X112000000Y-56600000D01*
X108520000Y-63950000D02*
X108520000Y-64980000D01*
X108000000Y-65500000D02*
X107500000Y-65500000D01*
X108520000Y-58520000D02*
X109500000Y-59500000D01*
X111000000Y-59500000D02*
X112000000Y-58500000D01*
X107000000Y-60000000D02*
X108520000Y-58480000D01*
X142000000Y-45000000D02*
X137000000Y-45000000D01*
X148000000Y-51000000D02*
X142000000Y-45000000D01*
X151880000Y-49000000D02*
X151880000Y-37820000D01*
X108520000Y-58480000D02*
X108520000Y-56450000D01*
X137000000Y-45000000D02*
X133400000Y-41400000D01*
X155400000Y-79387500D02*
X148000000Y-71987500D01*
X107500000Y-65500000D02*
X107000000Y-65000000D01*
X151880000Y-37820000D02*
X151930000Y-37770000D01*
X148000000Y-53500000D02*
X148000000Y-52880000D01*
X148000000Y-52880000D02*
X151880000Y-49000000D01*
%TO.N,GATEL A*%
X110500000Y-65500000D02*
X110500000Y-63970000D01*
X74500000Y-92500000D02*
X69500000Y-92500000D01*
X90000000Y-94000000D02*
X88500000Y-92500000D01*
X110500000Y-63970000D02*
X110480000Y-63950000D01*
X110480000Y-58480000D02*
X110500000Y-58500000D01*
X88500000Y-92500000D02*
X74500000Y-92500000D01*
X110480000Y-56450000D02*
X110480000Y-58480000D01*
%TO.N,Net-(D6-K)*%
X93600000Y-97600000D02*
X93600000Y-102834314D01*
X160100000Y-114900000D02*
X162500000Y-112500000D01*
X72000000Y-94000000D02*
X69500000Y-96500000D01*
X93600000Y-102834314D02*
X91334314Y-105100000D01*
X79840000Y-94000000D02*
X72000000Y-94000000D01*
X92500000Y-96500000D02*
X93600000Y-97600000D01*
X162500000Y-77000000D02*
X162000000Y-76500000D01*
X88500000Y-95500000D02*
X89500000Y-96500000D01*
X156670000Y-77330000D02*
X156670000Y-80270000D01*
X162000000Y-76500000D02*
X157500000Y-76500000D01*
X84500000Y-94000000D02*
X86000000Y-95500000D01*
X162500000Y-81000000D02*
X162500000Y-77000000D01*
X86000000Y-95500000D02*
X88500000Y-95500000D01*
X157500000Y-76500000D02*
X156670000Y-77330000D01*
X79400000Y-105100000D02*
X75600000Y-108900000D01*
X162500000Y-112500000D02*
X162500000Y-83000000D01*
X156500000Y-114900000D02*
X160100000Y-114900000D01*
X89500000Y-96500000D02*
X92500000Y-96500000D01*
X79840000Y-94000000D02*
X84500000Y-94000000D01*
X91334314Y-105100000D02*
X79400000Y-105100000D01*
%TO.N,/BSTA*%
X109500000Y-95500000D02*
X109500000Y-98000000D01*
X100400000Y-84600000D02*
X109500000Y-93700000D01*
X159220000Y-93220000D02*
X160500000Y-94500000D01*
X100400000Y-84500000D02*
X100400000Y-84600000D01*
X159220000Y-89730000D02*
X159220000Y-93220000D01*
X109500000Y-93700000D02*
X109500000Y-95500000D01*
%TO.N,Net-(U1-LDEL)*%
X110600000Y-84500000D02*
X111600000Y-83500000D01*
X111600000Y-83500000D02*
X113000000Y-83500000D01*
X157950000Y-89730000D02*
X157950000Y-93450000D01*
X157950000Y-93450000D02*
X159500000Y-95000000D01*
%TO.N,Net-(LED3-Pad1)*%
X40230000Y-96500000D02*
X45500000Y-96500000D01*
X27230000Y-109500000D02*
X40230000Y-96500000D01*
%TO.N,Net-(U1-HDEL)*%
X156670000Y-93670000D02*
X158500000Y-95500000D01*
X156670000Y-89730000D02*
X156670000Y-93670000D01*
X113500000Y-88000000D02*
X113500000Y-89000000D01*
X113500000Y-89000000D02*
X113000000Y-89500000D01*
%TO.N,Net-(D4-K)*%
X160770000Y-80270000D02*
X168500000Y-88000000D01*
X79420000Y-88500000D02*
X69920000Y-79000000D01*
X159220000Y-80270000D02*
X160770000Y-80270000D01*
X69920000Y-79000000D02*
X69500000Y-79000000D01*
X168500000Y-88000000D02*
X178500000Y-88000000D01*
%TO.N,Net-(D5-K)*%
X72000000Y-90400000D02*
X72800000Y-89600000D01*
X179000000Y-105000000D02*
X179000000Y-114500000D01*
X64800000Y-92800000D02*
X67200000Y-90400000D01*
X74500000Y-110200000D02*
X74400000Y-110100000D01*
X74600000Y-101000000D02*
X73500000Y-101000000D01*
X74400000Y-100000000D02*
X74400000Y-100100000D01*
X154000000Y-116000000D02*
X153400000Y-116600000D01*
X87160000Y-96000000D02*
X79600000Y-96000000D01*
X72800000Y-89600000D02*
X72800000Y-86400000D01*
X70400000Y-84000000D02*
X69500000Y-84000000D01*
X79600000Y-96000000D02*
X74600000Y-101000000D01*
X150330000Y-80270000D02*
X150330000Y-77670000D01*
X74400000Y-100100000D02*
X73500000Y-101000000D01*
X177500000Y-116000000D02*
X154000000Y-116000000D01*
X74500000Y-110500000D02*
X74500000Y-110200000D01*
X73500000Y-101000000D02*
X67400000Y-101000000D01*
X72800000Y-86400000D02*
X70400000Y-84000000D01*
X153400000Y-116600000D02*
X80600000Y-116600000D01*
X64800000Y-98400000D02*
X64800000Y-92800000D01*
X80600000Y-116600000D02*
X74500000Y-110500000D01*
X89660000Y-98500000D02*
X87160000Y-96000000D01*
X150330000Y-77670000D02*
X150500000Y-77500000D01*
X67400000Y-101000000D02*
X64800000Y-98400000D01*
X179000000Y-114500000D02*
X177500000Y-116000000D01*
X67200000Y-90400000D02*
X72000000Y-90400000D01*
%TO.N,Net-(D3-K)*%
X130230000Y-80270000D02*
X126000000Y-84500000D01*
X69500000Y-70500000D02*
X79420000Y-80420000D01*
X147780000Y-80270000D02*
X130230000Y-80270000D01*
X79420000Y-80420000D02*
X79420000Y-83000000D01*
%TO.N,Net-(LED2--)*%
X84650000Y-68150000D02*
X82500000Y-68150000D01*
X92565686Y-70000000D02*
X86500000Y-70000000D01*
X119400000Y-82834314D02*
X115665685Y-79100000D01*
X99565686Y-77000000D02*
X92565686Y-70000000D01*
X109600000Y-82900000D02*
X109000000Y-83500000D01*
X126960000Y-109500000D02*
X121400000Y-109500000D01*
X111334314Y-79100000D02*
X109600000Y-80834315D01*
X109600000Y-80834315D02*
X109600000Y-82900000D01*
X86500000Y-70000000D02*
X84650000Y-68150000D01*
X101500000Y-77000000D02*
X99565686Y-77000000D01*
X115665685Y-79100000D02*
X111334314Y-79100000D01*
X119400000Y-107500000D02*
X119400000Y-82834314D01*
X121400000Y-109500000D02*
X119400000Y-107500000D01*
%TD*%
M02*
